{"glyphs":{"0":{"ha":849,"x_min":11,"x_max":821,"o":"m 11 707 q 24 864 11 790 q 67 992 36 938 q 153 1079 99 1047 q 290 1111 207 1111 l 536 1111 q 675 1079 619 1111 q 763 992 731 1047 q 808 864 794 938 q 821 707 821 790 l 821 404 q 808 247 821 321 q 763 119 794 174 q 675 32 731 64 q 536 0 619 0 l 290 0 q 153 32 207 0 q 67 119 99 64 q 24 247 36 174 q 11 404 11 321 l 11 707 m 563 693 q 558 755 563 724 q 544 810 554 786 q 521 849 535 833 q 488 864 507 864 l 346 864 q 313 849 326 864 q 289 810 299 833 q 275 755 279 786 q 271 693 271 724 l 271 418 q 275 356 271 386 q 289 301 279 325 q 313 263 299 278 q 346 247 326 247 l 488 247 q 521 263 507 247 q 544 301 535 278 q 558 356 554 325 q 563 418 563 386 l 563 693 z "},"1":{"ha":608,"x_min":43,"x_max":561,"o":"m 204 1111 l 561 1111 l 561 0 l 204 0 l 204 928 l 43 928 l 204 1111 z "},"2":{"ha":876,"x_min":8,"x_max":850,"o":"m 849 0 l 29 0 l 29 363 l 582 696 q 580 733 582 714 q 571 766 578 751 q 552 790 564 781 q 522 799 540 799 l 335 799 q 282 761 292 796 q 275 668 272 726 l 275 667 l 8 667 l 8 867 q 21 961 8 917 q 65 1039 33 1006 q 151 1092 97 1072 q 288 1111 206 1111 l 576 1111 q 712 1092 658 1111 q 796 1039 765 1072 q 838 961 826 1006 q 850 867 850 917 l 850 511 l 350 225 l 849 225 l 849 0 z "},"3":{"ha":868,"x_min":26,"x_max":822,"o":"m 292 421 l 292 690 l 425 690 q 468 690 446 690 q 510 696 490 689 q 542 722 529 703 q 554 781 554 740 q 549 826 554 808 q 529 852 543 843 q 490 865 515 861 q 425 868 464 868 l 422 868 q 352 863 378 868 q 313 846 326 858 q 297 813 300 833 q 293 764 293 793 l 26 764 l 26 867 q 39 961 26 917 q 83 1039 51 1006 q 169 1092 115 1072 q 306 1111 224 1111 l 549 1111 q 684 1092 631 1111 q 768 1039 738 1072 q 810 961 799 1006 q 822 867 822 917 l 822 736 q 820 688 822 715 q 814 634 818 661 q 803 585 810 607 q 789 554 797 563 q 803 524 797 546 q 814 476 810 503 q 820 422 818 450 q 822 375 822 394 l 822 244 q 810 150 822 194 q 768 72 799 106 q 684 19 738 39 q 549 0 631 0 l 306 0 q 169 19 224 0 q 83 72 115 39 q 39 150 51 106 q 26 244 26 194 l 26 347 l 293 347 q 297 298 293 318 q 313 265 300 278 q 352 248 326 253 q 422 243 378 243 l 425 243 q 490 247 464 243 q 529 260 515 250 q 549 286 543 269 q 554 329 554 303 q 542 389 554 369 q 510 415 529 408 q 467 422 490 422 q 425 421 444 421 l 292 421 z "},"4":{"ha":906,"x_min":17,"x_max":858,"o":"m 360 1111 l 858 1111 l 858 0 l 529 0 l 529 183 l 17 183 l 17 365 l 360 1111 m 529 436 l 529 846 l 336 436 l 529 436 z "},"5":{"ha":833,"x_min":13,"x_max":808,"o":"m 265 758 l 535 758 q 670 739 617 758 q 754 686 724 719 q 797 608 785 653 q 808 514 808 564 l 808 244 q 797 150 808 194 q 754 72 785 106 q 670 19 724 39 q 535 0 617 0 l 292 0 q 156 19 210 0 q 69 72 101 39 q 25 150 38 106 q 13 244 13 194 l 13 347 l 279 347 l 279 346 q 277 306 279 326 q 279 269 275 286 q 297 240 283 251 q 339 229 310 229 l 481 229 q 510 238 499 229 q 529 262 522 247 q 538 294 536 276 q 540 332 540 313 l 540 429 q 538 466 540 447 q 529 499 536 485 q 510 523 522 514 q 481 532 499 532 l 117 532 q 63 542 83 532 q 31 569 43 551 q 16 611 19 588 q 13 664 13 635 l 13 924 q 39 1038 13 999 q 118 1093 65 1076 q 250 1110 171 1110 q 436 1111 329 1111 l 778 1111 l 778 913 l 453 913 q 344 910 382 913 q 288 895 306 907 q 268 858 271 883 q 265 789 265 833 l 265 758 z "},"6":{"ha":832,"x_min":13,"x_max":808,"o":"m 279 276 q 281 239 279 257 q 290 206 283 221 q 308 183 297 192 q 339 174 319 174 l 481 174 q 510 183 499 174 q 529 206 522 192 q 538 239 536 221 q 540 276 540 257 l 540 471 q 538 508 540 489 q 529 541 536 526 q 510 565 522 556 q 481 574 499 574 l 339 574 q 308 565 319 574 q 290 541 297 556 q 281 508 283 526 q 279 471 279 489 l 279 276 m 668 858 q 660 890 667 882 q 632 899 653 897 l 314 899 q 288 901 297 899 q 273 897 278 903 q 267 869 268 890 q 265 803 265 849 l 265 758 l 535 758 q 670 739 617 758 q 754 686 724 719 q 797 608 785 653 q 808 514 808 564 l 808 244 q 797 150 808 194 q 754 72 785 106 q 670 19 724 39 q 535 0 617 0 l 292 0 q 156 19 210 0 q 69 72 101 39 q 25 150 38 106 q 13 244 13 194 l 13 881 q 26 1010 13 964 q 71 1079 39 1057 q 158 1106 103 1101 q 297 1111 214 1111 l 594 1111 q 718 1094 675 1111 q 781 1042 761 1078 q 803 947 800 1006 q 808 803 807 888 l 668 803 l 668 858 z "},"7":{"ha":847,"x_min":14,"x_max":794,"o":"m 500 1111 q 672 1106 608 1111 q 765 1081 736 1100 q 793 1026 794 1063 q 769 928 792 990 l 463 0 l 79 0 l 432 928 l 14 928 l 14 1111 l 500 1111 z "},"8":{"ha":838,"x_min":10,"x_max":810,"o":"m 10 321 q 13 379 10 346 q 23 447 15 413 q 42 510 31 481 q 71 556 54 540 q 42 601 54 571 q 23 665 31 631 q 13 733 15 699 q 10 792 10 767 l 10 885 q 22 973 10 932 q 65 1044 33 1014 q 149 1093 96 1075 q 285 1111 201 1111 l 529 1111 q 667 1093 613 1111 q 753 1044 721 1075 q 797 973 785 1014 q 810 885 810 932 l 810 792 q 806 733 810 767 q 795 665 803 699 q 776 601 788 631 q 746 556 764 571 q 776 510 764 540 q 795 447 788 481 q 806 379 803 413 q 810 321 810 346 l 810 228 q 797 140 810 181 q 753 68 785 99 q 667 19 721 38 q 529 1 613 1 l 285 1 q 149 19 201 1 q 65 68 96 38 q 22 140 33 99 q 10 228 10 181 l 10 321 m 556 876 q 538 942 556 913 q 482 972 519 972 l 339 972 q 283 942 301 972 q 265 876 265 913 l 265 800 q 283 734 265 764 q 339 704 301 704 l 482 704 q 538 734 519 704 q 556 800 556 764 l 556 876 m 556 451 q 538 517 556 488 q 482 547 519 547 l 339 547 q 283 517 301 547 q 265 451 265 488 l 265 236 q 283 170 265 200 q 339 140 301 140 l 482 140 q 538 170 519 140 q 556 236 556 200 l 556 451 z "},"9":{"ha":835,"x_min":13,"x_max":808,"o":"m 556 353 l 286 353 q 151 372 204 353 q 67 425 97 392 q 24 503 36 458 q 13 597 13 547 l 13 867 q 24 961 13 917 q 67 1039 36 1006 q 151 1092 97 1072 q 286 1111 204 1111 l 529 1111 q 665 1092 611 1111 q 751 1039 719 1072 q 796 961 783 1006 q 808 867 808 917 l 808 371 q 795 219 808 288 q 750 101 782 150 q 663 26 718 53 q 524 0 607 0 l 43 0 l 43 218 l 507 218 q 545 256 536 219 q 556 342 554 293 l 556 353 m 542 835 q 540 872 542 853 q 531 905 538 890 q 512 928 524 919 q 482 938 500 938 l 340 938 q 310 928 321 938 q 292 905 299 919 q 283 872 285 890 q 281 835 281 853 l 281 640 q 283 603 281 621 q 292 570 285 585 q 310 547 299 556 q 340 538 321 538 l 482 538 q 512 547 500 538 q 531 570 524 556 q 540 603 538 585 q 542 640 542 621 l 542 835 z "},"\u0000":{"ha":0,"x_min":0,"x_max":0,"o":""},"\r":{"ha":622,"x_min":0,"x_max":0,"o":""}," ":{"ha":622,"x_min":0,"x_max":0,"o":""},"˚":{"ha":361,"x_min":10,"x_max":344,"o":"m 10 833 q 22 914 10 876 q 58 980 35 951 q 110 1024 81 1008 q 176 1040 140 1040 q 242 1024 211 1040 q 296 980 274 1008 q 331 914 318 951 q 344 833 344 876 q 331 753 344 790 q 296 688 318 715 q 242 644 274 660 q 176 628 211 628 q 110 644 140 628 q 58 688 81 660 q 22 753 35 715 q 10 833 10 790 m 149 833 q 156 772 149 796 q 176 747 164 747 q 197 772 189 747 q 206 833 206 796 q 197 895 206 869 q 176 921 189 921 q 156 895 164 921 q 149 833 149 869 z "},"˝":{"ha":643,"x_min":25,"x_max":619,"o":"m 369 893 q 292 892 318 901 q 255 861 267 882 q 239 813 243 840 q 229 761 235 786 q 209 717 224 736 q 163 693 194 697 l 25 693 q 88 742 69 708 q 116 817 107 776 q 133 901 125 858 q 163 976 140 943 q 234 1028 186 1010 q 369 1042 282 1047 l 369 893 m 619 893 q 542 892 568 901 q 505 861 517 882 q 489 813 493 840 q 479 761 485 786 q 459 717 474 736 q 413 693 444 697 l 275 693 q 338 742 319 708 q 366 817 357 776 q 383 901 375 858 q 413 976 390 943 q 483 1028 436 1010 q 619 1042 531 1047 l 619 893 z "},"˛":{"ha":319,"x_min":11,"x_max":296,"o":"m 296 -418 q 126 -378 188 -404 q 38 -318 65 -351 q 14 -249 11 -285 q 34 -178 17 -212 q 79 -116 51 -144 q 132 -69 107 -87 l 132 1 l 269 1 l 269 -69 q 252 -103 265 -85 q 225 -140 239 -121 q 202 -178 211 -158 q 197 -214 193 -197 q 224 -245 201 -231 q 296 -269 246 -260 l 296 -418 z "},"ˇ":{"ha":597,"x_min":24,"x_max":582,"o":"m 24 1042 q 140 1026 96 1046 q 210 974 185 1007 q 247 903 235 942 q 265 834 258 865 q 278 785 271 803 q 303 774 286 767 q 323 785 317 767 q 336 835 329 804 q 355 905 343 867 q 393 975 367 943 q 464 1026 419 1007 q 582 1042 508 1046 l 582 893 q 505 892 531 901 q 467 861 479 882 q 451 813 456 840 q 442 761 447 786 q 422 717 436 736 q 375 693 407 697 l 231 693 q 183 717 197 697 q 164 761 169 736 q 154 813 158 786 q 138 861 150 840 q 100 892 126 882 q 24 893 74 901 l 24 1042 z "},"ı":{"ha":457,"x_min":15,"x_max":447,"o":"m 15 565 l 15 779 l 447 779 l 447 1 l 244 1 l 244 565 l 15 565 z "},"⁄":{"ha":781,"x_min":19,"x_max":763,"o":"m 503 1042 l 763 1042 l 278 0 l 19 0 l 503 1042 z "},"ﬁ":{"ha":986,"x_min":-92,"x_max":936,"o":"m 413 560 l 933 560 l 933 0 l 549 0 l 549 351 l 413 351 l 413 0 l 28 0 l 28 351 l -92 351 l -92 560 l 28 560 l 28 638 q 106 944 28 847 q 351 1042 183 1042 l 653 1042 q 745 1034 696 1042 q 836 994 794 1026 q 906 896 878 963 q 936 713 935 829 l 625 713 q 623 753 625 738 q 615 778 621 769 q 595 791 608 788 q 560 794 582 794 l 488 794 q 448 791 463 794 q 425 771 433 788 q 415 719 417 754 q 413 624 413 685 l 413 560 z "},"ﬂ":{"ha":1900,"x_min":-153,"x_max":1006,"o":"m 694 0 l 694 794 l 488 794 q 448 791 463 794 q 425 771 433 788 q 415 719 417 754 q 413 624 413 685 l 413 581 l 636 581 l 636 372 l 413 372 l 413 0 l 28 0 l 28 372 l -153 372 l -153 581 l 28 581 l 28 638 q 106 944 28 847 q 351 1042 183 1042 l 1006 1042 l 1006 0 l 694 0 z "},"Ł":{"ha":953,"x_min":25,"x_max":925,"o":"m 76 426 l 25 622 l 211 672 l 211 1042 l 596 1042 l 596 775 l 776 824 l 828 628 l 596 565 l 596 418 q 600 356 596 386 q 614 301 604 325 q 638 263 624 278 q 671 247 651 247 l 925 247 l 925 0 l 615 0 q 458 32 532 0 q 330 119 385 64 q 243 247 275 174 q 211 404 211 321 l 211 463 l 76 426 z "},"ł":{"ha":1508,"x_min":31,"x_max":1463,"o":"m 392 97 l 340 293 l 554 350 l 554 638 q 632 944 554 847 q 878 1042 710 1042 l 1179 1042 q 1272 1034 1222 1042 q 1363 994 1321 1026 q 1433 896 1404 963 q 1463 713 1461 829 l 1151 713 q 1149 753 1151 738 q 1141 778 1147 769 q 1122 791 1135 788 q 1086 794 1108 794 l 1014 794 q 974 791 989 794 q 951 771 960 788 q 941 719 943 754 q 939 624 939 685 l 939 453 l 1092 494 l 1143 299 l 939 243 l 939 0 q 861 -306 939 -210 q 615 -403 783 -403 l 314 -403 q 222 -395 271 -403 q 131 -356 172 -387 q 60 -257 89 -324 q 31 -74 32 -190 l 342 -74 q 344 -115 342 -99 q 352 -140 346 -131 q 372 -152 358 -149 q 407 -156 385 -156 l 479 -156 q 519 -152 504 -156 q 541 -133 533 -149 q 551 -85 549 -118 q 554 4 554 -53 l 554 140 l 392 97 z "},"Ž":{"ha":836,"x_min":11,"x_max":824,"o":"m 139 1458 q 256 1443 211 1463 q 325 1391 300 1424 q 362 1320 350 1358 q 380 1251 374 1282 q 394 1201 386 1219 q 418 1190 401 1183 q 438 1202 432 1183 q 451 1252 444 1221 q 470 1322 458 1283 q 508 1392 482 1360 q 579 1443 535 1424 q 697 1458 624 1463 l 697 1310 q 620 1308 646 1318 q 583 1278 594 1299 q 567 1230 571 1257 q 557 1178 563 1203 q 537 1133 551 1153 q 490 1110 522 1114 l 346 1110 q 299 1133 313 1114 q 279 1178 285 1153 q 269 1230 274 1203 q 253 1278 265 1257 q 216 1308 242 1299 q 139 1310 190 1318 l 139 1458 m 361 1042 q 569 1040 485 1042 q 708 1031 654 1038 q 788 1010 763 1024 q 819 973 814 996 q 811 916 824 950 q 776 833 799 882 l 436 208 l 819 208 l 819 0 l 467 0 q 213 3 313 0 q 65 26 114 7 q 14 88 17 46 q 51 208 11 131 l 390 833 l 14 833 l 14 1042 l 361 1042 z "},"ž":{"ha":836,"x_min":11,"x_max":824,"o":"m 139 1458 q 256 1443 211 1463 q 325 1391 300 1424 q 362 1320 350 1358 q 380 1251 374 1282 q 394 1201 386 1219 q 418 1190 401 1183 q 438 1202 432 1183 q 451 1252 444 1221 q 470 1322 458 1283 q 508 1392 482 1360 q 579 1443 535 1424 q 697 1458 624 1463 l 697 1310 q 620 1308 646 1318 q 583 1278 594 1299 q 567 1230 571 1257 q 557 1178 563 1203 q 537 1133 551 1153 q 490 1110 522 1114 l 346 1110 q 299 1133 313 1114 q 279 1178 285 1153 q 269 1230 274 1203 q 253 1278 265 1257 q 216 1308 242 1299 q 139 1310 190 1318 l 139 1458 m 361 1042 q 569 1040 485 1042 q 708 1031 654 1038 q 788 1010 763 1024 q 819 973 814 996 q 811 916 824 950 q 776 833 799 882 l 436 208 l 819 208 l 819 0 l 467 0 q 213 3 313 0 q 65 26 114 7 q 14 88 17 46 q 51 208 11 131 l 390 833 l 14 833 l 14 1042 l 361 1042 z "},"!":{"ha":464,"x_min":32,"x_max":444,"o":"m 444 524 l 32 524 l 32 1181 l 444 1181 l 444 524 m 32 0 l 32 354 l 444 354 l 444 0 l 32 0 z "},"\"":{"ha":483,"x_min":26,"x_max":465,"o":"m 26 1042 l 229 1042 l 229 650 l 26 650 l 26 1042 m 263 1042 l 465 1042 l 465 650 l 263 650 l 263 1042 z "},"#":{"ha":1471,"x_min":39,"x_max":1450,"o":"m 1086 1042 l 1346 1042 l 1247 829 l 1343 829 l 1450 593 l 1138 596 l 1065 439 l 1188 438 l 1294 201 l 956 204 l 861 0 l 603 0 l 699 207 l 528 208 l 431 0 l 172 0 l 269 211 l 146 213 l 39 447 l 378 444 l 451 603 l 301 604 l 194 839 l 560 836 l 656 1042 l 915 1042 l 818 833 l 989 832 l 1086 1042 m 636 442 l 807 440 l 879 599 l 710 600 l 636 442 z "},"$":{"ha":954,"x_min":21,"x_max":936,"o":"m 418 1158 l 538 1158 l 538 1042 q 693 1008 621 1040 q 819 922 765 976 q 905 794 874 867 q 936 638 936 721 l 614 638 q 608 695 613 667 q 594 746 603 724 q 571 781 585 768 q 539 794 557 794 l 538 794 l 538 578 l 936 578 l 936 404 q 905 248 936 321 q 819 120 874 175 q 693 33 765 65 q 538 0 621 1 l 538 -161 l 418 -161 l 418 0 q 263 33 335 1 q 137 120 190 65 q 52 248 83 175 q 21 404 21 321 l 343 404 q 349 347 344 375 q 363 296 354 318 q 386 260 372 274 q 418 247 400 247 l 418 464 l 21 464 l 21 638 q 52 794 21 721 q 137 921 83 867 q 263 1008 190 975 q 418 1042 335 1040 l 418 1158 m 607 464 l 538 464 l 538 247 q 569 265 556 249 q 590 304 582 281 q 603 358 599 328 q 607 418 607 388 l 607 464 m 350 578 l 418 578 l 418 793 q 388 775 400 790 q 367 735 375 760 q 354 682 358 711 q 350 624 350 653 l 350 578 z "},"%":{"ha":1124,"x_min":18,"x_max":1110,"o":"m 692 1042 l 951 1042 l 467 0 l 208 0 l 692 1042 m 18 740 q 26 830 18 788 q 53 904 33 872 q 108 954 74 936 q 197 972 143 972 l 267 972 q 356 954 321 972 q 413 904 392 936 q 442 830 433 872 q 450 740 450 788 l 450 646 q 442 556 450 597 q 413 482 433 514 q 356 432 392 450 q 267 414 321 414 l 197 414 q 108 432 143 414 q 53 482 74 450 q 26 556 33 514 q 18 646 18 597 l 18 740 m 283 732 q 272 799 283 768 q 235 831 260 831 l 233 831 q 197 799 208 831 q 185 732 185 768 l 185 654 q 197 587 185 618 q 233 556 208 556 l 235 556 q 272 587 260 556 q 283 654 283 618 l 283 732 m 678 328 q 685 417 678 375 q 713 492 693 460 q 768 542 733 524 q 857 560 803 560 l 926 560 q 1016 542 981 560 q 1072 492 1051 524 q 1101 417 1093 460 q 1110 328 1110 375 l 1110 233 q 1101 143 1110 185 q 1072 69 1093 101 q 1016 19 1051 38 q 926 1 981 1 l 857 1 q 768 19 803 1 q 713 69 733 38 q 685 143 693 101 q 678 233 678 185 l 678 328 m 943 319 q 931 387 943 356 q 894 418 919 418 l 893 418 q 856 387 868 418 q 844 319 844 356 l 844 242 q 856 174 844 206 q 893 143 868 143 l 894 143 q 931 174 919 143 q 943 242 943 206 l 943 319 z "},"&":{"ha":1293,"x_min":8,"x_max":1269,"o":"m 571 518 l 733 393 l 807 506 l 1157 561 l 944 239 l 1269 0 l 1006 0 l 843 103 q 737 28 811 57 q 533 0 663 0 l 347 0 q 179 18 244 0 q 76 67 114 36 q 23 140 38 99 q 8 231 8 182 l 8 486 l 161 542 l 8 642 l 8 793 q 23 883 8 840 q 76 956 38 925 q 179 1006 114 988 q 347 1024 244 1024 l 533 1024 q 703 1006 636 1024 q 809 956 769 988 q 865 883 849 925 q 881 793 881 840 l 879 642 l 571 518 m 340 424 l 340 260 q 343 224 340 242 q 354 193 346 207 q 376 171 363 179 q 414 163 390 163 l 475 163 q 519 166 501 164 q 551 175 536 168 q 584 194 567 182 q 628 228 601 207 l 340 424 m 550 685 q 550 742 551 711 q 541 799 549 772 q 517 842 533 825 q 475 861 501 860 l 414 861 q 376 852 390 861 q 354 829 363 843 q 343 798 346 815 q 340 764 340 781 l 340 686 l 411 632 l 550 683 l 550 685 z "},"'":{"ha":239,"x_min":15,"x_max":218,"o":"m 15 1042 l 218 1042 l 218 650 l 15 650 l 15 1042 z "},"(":{"ha":722,"x_min":94,"x_max":717,"o":"m 94 701 q 130 994 94 875 q 235 1188 165 1114 q 410 1296 306 1263 q 654 1329 515 1329 l 717 1329 l 717 1042 l 650 1042 q 573 1024 606 1042 q 517 975 540 1006 q 481 906 494 944 q 459 828 467 868 q 449 750 451 789 q 446 682 446 711 l 446 240 q 451 131 446 196 q 476 6 456 65 q 536 -97 496 -54 q 649 -139 576 -139 l 717 -139 l 717 -425 l 654 -425 q 410 -389 515 -425 q 235 -275 306 -353 q 130 -75 165 -197 q 94 221 94 47 l 94 701 z "},")":{"ha":681,"x_min":31,"x_max":653,"o":"m 653 221 q 617 -75 653 47 q 512 -275 582 -197 q 337 -389 442 -353 q 93 -425 232 -425 l 31 -425 l 31 -139 l 99 -139 q 211 -97 171 -139 q 272 6 251 -54 q 297 131 292 65 q 301 240 301 196 l 301 682 q 299 750 301 711 q 288 828 296 789 q 267 906 281 868 q 230 975 253 944 q 174 1024 207 1006 q 97 1042 142 1042 l 31 1042 l 31 1329 l 93 1329 q 337 1296 232 1329 q 512 1188 442 1263 q 617 994 582 1114 q 653 701 653 875 l 653 221 z "},"*":{"ha":810,"x_min":78,"x_max":772,"o":"m 526 426 l 526 282 l 324 282 l 324 426 l 222 325 l 78 469 l 282 672 l 78 875 l 222 1019 l 324 917 l 324 1042 l 526 1042 l 526 917 l 628 1019 l 772 875 l 568 672 l 772 469 l 628 325 l 526 426 z "},"+":{"ha":846,"x_min":36,"x_max":814,"o":"m 36 288 l 36 490 l 324 490 l 324 778 l 526 778 l 526 490 l 814 490 l 814 288 l 526 288 l 526 0 l 324 0 l 324 288 l 36 288 z "},",":{"ha":239,"x_min":-39,"x_max":238,"o":"m -39 -29 q 44 -25 18 -39 q 81 14 69 -11 q 40 57 56 29 q 25 119 25 85 q 56 205 25 169 q 131 240 88 240 q 206 205 175 240 q 238 119 238 169 q 215 46 238 79 q 188 -40 207 0 q 136 -109 168 -81 q 60 -153 104 -137 q -39 -164 17 -168 l -39 -29 m 114 119 q 131 103 114 103 q 149 119 149 103 q 131 138 149 138 q 114 119 114 138 z "},"-":{"ha":718,"x_min":36,"x_max":675,"o":"m 36 288 l 36 629 l 675 629 l 675 288 l 36 288 z "},".":{"ha":240,"x_min":11,"x_max":224,"o":"m 11 119 q 42 205 11 169 q 117 240 74 240 q 192 205 161 240 q 224 119 224 169 q 192 35 224 69 q 117 0 161 0 q 42 35 74 0 q 11 119 11 69 z "},"/":{"ha":789,"x_min":19,"x_max":763,"o":"m 503 1042 l 763 1042 l 278 0 l 19 0 l 503 1042 z "},":":{"ha":246,"x_min":11,"x_max":238,"o":"m 11 119 q 42 205 11 169 q 117 240 74 240 q 192 205 161 240 q 224 119 224 169 q 192 35 224 69 q 117 0 161 0 q 42 35 74 0 q 11 119 11 69 m 25 675 q 56 760 25 725 q 131 796 88 796 q 206 760 175 796 q 238 675 238 725 q 206 590 238 625 q 131 556 175 556 q 56 590 88 556 q 25 675 25 625 z "},";":{"ha":257,"x_min":-39,"x_max":238,"o":"m -39 -29 q 44 -25 18 -39 q 81 14 69 -11 q 40 57 56 29 q 25 119 25 85 q 56 205 25 169 q 131 240 88 240 q 206 205 175 240 q 238 119 238 169 q 215 46 238 79 q 188 -40 207 0 q 136 -109 168 -81 q 60 -153 104 -137 q -39 -164 17 -168 l -39 -29 m 114 119 q 131 103 114 103 q 149 119 149 103 q 131 138 149 138 q 114 119 114 138 m 25 675 q 56 760 25 725 q 131 796 88 796 q 206 760 175 796 q 238 675 238 725 q 206 590 238 625 q 131 556 175 556 q 56 590 88 556 q 25 675 25 625 z "},"<":{"ha":468,"x_min":22,"x_max":450,"o":"m 229 390 l 450 0 l 243 0 l 22 390 l 243 783 l 450 783 l 229 390 z "},"=":{"ha":718,"x_min":36,"x_max":675,"o":"m 36 288 l 36 629 l 675 629 l 675 288 l 36 288 m 36 704 l 36 1046 l 675 1046 l 675 704 l 36 704 z "},">":{"ha":475,"x_min":22,"x_max":450,"o":"m 22 783 l 229 783 l 450 390 l 229 0 l 22 0 l 243 390 l 22 783 z "},"?":{"ha":876,"x_min":8,"x_max":850,"o":"m 218 422 l 443 625 l 582 764 q 580 801 582 782 q 571 834 578 819 q 552 858 564 849 q 522 867 540 867 l 335 867 q 282 829 292 864 q 275 736 272 794 l 275 735 l 8 735 l 8 796 q 21 890 8 846 q 65 968 33 935 q 151 1021 97 1001 q 288 1040 206 1040 l 576 1040 q 712 1021 658 1040 q 796 968 765 1001 q 838 890 826 935 q 850 796 850 846 l 850 582 l 844 579 l 850 579 l 621 390 l 621 258 l 218 258 l 218 422 m 218 179 l 621 179 l 621 -139 l 218 -139 l 218 179 z "},"@":{"ha":1140,"x_min":36,"x_max":1071,"o":"m 36 588 q 60 740 36 669 q 135 860 83 810 q 265 940 186 911 q 454 968 343 968 l 788 968 q 940 940 883 968 q 1025 865 996 913 q 1063 753 1054 817 q 1071 617 1071 689 l 1071 549 q 1063 394 1071 460 q 1026 285 1054 328 q 945 219 999 242 q 801 196 892 197 l 497 196 q 393 214 442 196 q 309 263 344 232 q 253 334 274 293 q 232 422 232 375 l 232 554 q 253 642 232 601 q 309 715 274 683 q 393 764 344 746 q 497 782 442 782 l 801 782 l 801 290 l 858 290 q 912 315 892 290 q 942 380 932 340 q 956 467 953 419 q 958 560 958 515 l 958 603 q 955 673 958 629 q 940 758 951 717 q 910 830 929 800 q 858 860 890 860 l 369 860 q 292 835 332 857 q 220 774 253 813 q 167 685 188 736 q 147 571 147 633 l 147 368 q 168 266 147 313 q 222 185 189 219 q 293 130 254 150 q 369 108 332 110 l 878 108 l 878 0 l 454 0 q 260 24 340 0 q 131 94 181 49 q 58 205 81 139 q 36 354 36 271 l 36 588 m 553 335 l 553 640 l 533 640 q 496 610 507 640 q 485 547 485 581 l 485 431 q 496 365 485 396 q 533 335 507 335 l 553 335 z "},"[":{"ha":603,"x_min":64,"x_max":565,"o":"m 64 1306 l 565 1306 l 565 1181 l 406 1181 l 406 -1 l 564 -1 l 564 -135 l 64 -135 l 64 1306 z "},"\\":{"ha":783,"x_min":19,"x_max":763,"o":"m 763 0 l 504 0 l 19 1042 l 279 1042 l 763 0 z "},"]":{"ha":543,"x_min":8,"x_max":510,"o":"m 510 -135 l 10 -135 l 10 -1 l 168 -1 l 168 1181 l 8 1181 l 8 1306 l 510 1306 l 510 -135 z "},"^":{"ha":588,"x_min":10,"x_max":574,"o":"m 10 428 l 10 675 l 292 1042 l 574 675 l 574 428 l 292 794 l 10 428 z "},"_":{"ha":963,"x_min":36,"x_max":939,"o":"m 36 -226 l 36 -24 l 939 -24 l 939 -226 l 36 -226 z "},"`":{"ha":372,"x_min":10,"x_max":354,"o":"m 10 1042 q 145 1028 97 1047 q 216 976 193 1010 q 247 901 239 943 q 263 817 254 858 q 291 742 272 776 q 354 693 310 708 l 217 693 q 169 717 183 697 q 150 761 156 736 q 140 813 144 786 q 124 861 136 840 q 86 892 113 882 q 10 893 60 901 l 10 1042 z "},"{":{"ha":556,"x_min":42,"x_max":532,"o":"m 42 538 l 181 638 q 181 753 181 693 q 185 871 181 814 q 202 979 190 928 q 237 1069 214 1031 q 297 1130 260 1107 q 390 1153 335 1153 l 532 1153 l 532 1044 l 446 1044 q 422 1019 433 1044 q 400 953 410 993 q 382 865 390 914 q 368 770 374 817 q 360 684 363 724 q 357 624 357 644 l 246 532 l 357 418 q 360 358 357 397 q 368 272 363 318 q 382 176 374 225 q 400 88 390 128 q 422 23 410 49 q 446 -3 433 -3 l 532 -3 l 532 -111 l 390 -111 q 297 -88 335 -111 q 237 -27 260 -65 q 202 63 214 11 q 185 171 190 114 q 181 288 181 228 q 181 404 181 349 l 42 538 z "},"|":{"ha":296,"x_min":50,"x_max":253,"o":"m 50 1042 l 253 1042 l 253 -278 l 50 -278 l 50 1042 z "},"}":{"ha":531,"x_min":14,"x_max":504,"o":"m 365 404 q 365 288 365 349 q 360 171 365 228 q 344 63 356 114 q 309 -27 332 11 q 249 -88 286 -65 q 156 -111 211 -111 l 14 -111 l 14 -3 l 100 -3 q 124 23 113 -3 q 146 88 136 49 q 164 176 156 128 q 178 272 172 225 q 186 358 183 318 q 189 418 189 397 l 300 532 l 189 624 q 186 684 189 644 q 178 770 183 724 q 164 865 172 817 q 146 953 156 914 q 124 1019 136 993 q 100 1044 113 1044 l 14 1044 l 14 1153 l 156 1153 q 249 1130 211 1153 q 309 1069 286 1107 q 344 979 332 1031 q 360 871 356 928 q 365 753 365 814 q 365 638 365 693 l 504 538 l 365 404 z "},"~":{"ha":913,"x_min":26,"x_max":906,"o":"m 513 513 q 601 440 564 456 q 676 435 639 424 q 757 476 714 446 q 863 542 800 506 l 906 428 q 854 389 882 413 q 792 344 826 365 q 719 309 758 324 q 633 297 679 294 q 534 321 588 299 q 419 396 481 343 q 322 465 368 453 q 239 465 276 478 q 174 426 201 453 q 133 381 146 400 l 26 453 q 54 485 33 461 q 108 536 75 510 q 183 585 140 563 q 276 610 225 607 q 388 593 328 614 q 513 513 447 572 z "},"€":{"ha":831,"x_min":25,"x_max":828,"o":"m 25 324 l 25 465 l 185 465 l 185 560 l 25 560 l 25 703 l 188 703 q 210 838 193 775 q 258 945 226 900 q 338 1016 289 990 q 457 1042 386 1042 l 561 1042 q 670 1021 624 1042 q 749 963 717 1000 q 799 875 781 926 q 828 764 818 824 l 597 764 q 585 775 594 768 q 563 789 575 782 q 537 801 550 796 q 514 807 524 807 l 511 807 q 485 799 500 807 q 456 778 471 792 q 429 744 442 764 q 411 703 417 725 l 783 703 l 783 560 l 383 560 l 383 465 l 783 465 l 783 324 l 400 324 q 417 267 407 294 q 440 219 428 240 q 468 183 453 197 q 501 168 483 169 q 528 176 513 165 q 557 204 543 188 q 579 239 571 221 q 586 269 588 257 l 826 269 q 797 160 817 210 q 746 74 778 110 q 669 19 714 39 q 561 0 624 0 l 457 0 q 340 24 388 0 q 260 92 292 49 q 212 194 229 135 q 189 324 194 253 l 25 324 z "},"‚":{"ha":271,"x_min":-39,"x_max":238,"o":"m -39 -29 q 44 -25 18 -39 q 81 14 69 -11 q 40 57 56 29 q 25 119 25 85 q 56 205 25 169 q 131 240 88 240 q 206 205 175 240 q 238 119 238 169 q 215 46 238 79 q 188 -40 207 0 q 136 -109 168 -81 q 60 -153 104 -137 q -39 -164 17 -168 l -39 -29 m 114 119 q 131 103 114 103 q 149 119 149 103 q 131 138 149 138 q 114 119 114 138 z "},"ƒ":{"ha":1029,"x_min":-414,"x_max":1018,"o":"m 35 -156 q 74 -152 60 -156 q 97 -133 89 -149 q 107 -85 104 -118 q 110 4 110 -53 l 110 638 q 188 944 110 847 q 433 1042 265 1042 l 735 1042 q 827 1034 778 1042 q 918 994 876 1026 q 988 896 960 963 q 1018 713 1017 829 l 707 713 q 705 753 707 738 q 697 778 703 769 q 677 791 690 788 q 642 794 664 794 l 569 794 q 530 791 544 794 q 507 771 515 788 q 497 719 499 754 q 494 624 494 685 l 494 469 l 788 469 l 788 261 l 494 261 l 494 0 q 417 -306 494 -210 q 171 -403 339 -403 l -131 -403 q -223 -395 -174 -403 q -314 -356 -272 -387 q -384 -257 -356 -324 q -414 -74 -412 -190 l -103 -74 q -101 -115 -103 -99 q -92 -140 -99 -131 q -73 -152 -86 -149 q -37 -156 -60 -156 l 35 -156 z "},"„":{"ha":500,"x_min":-39,"x_max":485,"o":"m -39 -29 q 44 -25 18 -39 q 81 14 69 -11 q 40 57 56 29 q 25 119 25 85 q 56 205 25 169 q 131 240 88 240 q 206 205 175 240 q 238 119 238 169 q 215 46 238 79 q 188 -40 207 0 q 136 -109 168 -81 q 60 -153 104 -137 q -39 -164 17 -168 l -39 -29 m 114 119 q 131 103 114 103 q 149 119 149 103 q 131 138 149 138 q 114 119 114 138 m 208 -29 q 291 -25 265 -39 q 328 14 317 -11 q 288 57 303 29 q 272 119 272 85 q 303 205 272 169 q 378 240 335 240 q 453 205 422 240 q 485 119 485 169 q 463 46 485 79 q 435 -40 454 0 q 383 -109 415 -81 q 308 -153 351 -137 q 208 -164 264 -168 l 208 -29 m 361 119 q 378 103 361 103 q 396 119 396 103 q 378 138 396 138 q 361 119 361 138 z "},"…":{"ha":721,"x_min":11,"x_max":704,"o":"m 11 119 q 42 205 11 169 q 117 240 74 240 q 192 205 161 240 q 224 119 224 169 q 192 35 224 69 q 117 0 161 0 q 42 35 74 0 q 11 119 11 69 m 251 119 q 283 205 251 169 q 357 240 314 240 q 433 205 401 240 q 464 119 464 169 q 433 35 464 69 q 357 0 401 0 q 283 35 314 0 q 251 119 251 69 m 492 119 q 523 205 492 169 q 597 240 554 240 q 673 205 642 240 q 704 119 704 169 q 673 35 704 69 q 597 0 642 0 q 523 35 554 0 q 492 119 492 69 z "},"†":{"ha":515,"x_min":-131,"x_max":647,"o":"m -131 288 l -131 490 l 156 490 l 156 1042 l 358 1042 l 358 490 l 647 490 l 647 288 l 358 288 l 358 -278 l 156 -278 l 156 288 l -131 288 z "},"‡":{"ha":857,"x_min":36,"x_max":814,"o":"m 36 10 l 36 213 l 322 213 l 322 565 l 36 565 l 36 768 l 322 768 l 322 1042 l 525 1042 l 525 768 l 814 768 l 814 565 l 525 565 l 525 213 l 814 213 l 814 10 l 525 10 l 525 -278 l 322 -278 l 322 10 l 36 10 z "},"ˆ":{"ha":604,"x_min":24,"x_max":582,"o":"m 24 861 q 100 863 74 853 q 138 893 126 872 q 154 941 150 914 q 164 993 158 968 q 184 1038 169 1018 q 231 1061 199 1057 l 375 1061 q 422 1038 407 1057 q 442 993 436 1018 q 451 941 447 968 q 467 893 456 914 q 505 863 479 872 q 582 861 531 853 l 582 713 q 464 727 508 707 q 393 779 419 747 q 355 849 367 811 q 336 919 343 888 q 323 969 329 950 q 303 981 317 988 q 278 969 286 988 q 265 920 271 951 q 247 851 258 889 q 210 780 235 813 q 140 727 185 747 q 24 713 96 707 l 24 861 z "},"‰":{"ha":1406,"x_min":18,"x_max":1376,"o":"m 678 328 q 685 417 678 375 q 713 492 693 460 q 768 542 733 524 q 857 560 803 560 l 926 560 q 1025 536 985 560 q 1124 560 1064 560 l 1193 560 q 1283 542 1247 560 q 1339 492 1318 524 q 1368 417 1360 460 q 1376 328 1376 375 l 1376 233 q 1368 143 1376 185 q 1339 69 1360 101 q 1283 19 1318 38 q 1193 1 1247 1 l 1124 1 q 1025 25 1064 1 q 926 1 985 1 l 857 1 q 768 19 803 1 q 713 69 733 38 q 685 143 693 101 q 678 233 678 185 l 678 328 m 692 1042 l 951 1042 l 467 0 l 208 0 l 692 1042 m 18 740 q 26 830 18 788 q 53 904 33 872 q 108 954 74 936 q 197 972 143 972 l 267 972 q 356 954 321 972 q 413 904 392 936 q 442 830 433 872 q 450 740 450 788 l 450 646 q 442 556 450 597 q 413 482 433 514 q 356 432 392 450 q 267 414 321 414 l 197 414 q 108 432 143 414 q 53 482 74 450 q 26 556 33 514 q 18 646 18 597 l 18 740 m 1210 319 q 1198 387 1210 356 q 1161 418 1186 418 l 1160 418 q 1123 387 1135 418 q 1111 319 1111 356 l 1111 242 q 1123 174 1111 206 q 1160 143 1135 143 l 1161 143 q 1198 174 1186 143 q 1210 242 1210 206 l 1210 319 m 283 732 q 272 799 283 768 q 235 831 260 831 l 233 831 q 197 799 208 831 q 185 732 185 768 l 185 654 q 197 587 185 618 q 233 556 208 556 l 235 556 q 272 587 260 556 q 283 654 283 618 l 283 732 m 943 319 q 931 387 943 356 q 894 418 919 418 l 893 418 q 856 387 868 418 q 844 319 844 356 l 844 242 q 856 174 844 206 q 893 143 868 143 l 894 143 q 931 174 919 143 q 943 242 943 206 l 943 319 z "},"Š":{"ha":954,"x_min":10,"x_max":921,"o":"m 197 1458 q 314 1443 269 1463 q 383 1391 358 1424 q 420 1320 408 1358 q 438 1251 432 1282 q 452 1201 444 1219 q 476 1190 460 1183 q 497 1202 490 1183 q 510 1252 503 1221 q 528 1322 517 1283 q 567 1392 540 1360 q 638 1443 593 1424 q 756 1458 682 1463 l 756 1310 q 678 1308 704 1318 q 641 1278 653 1299 q 625 1230 629 1257 q 615 1178 621 1203 q 595 1133 610 1153 q 549 1110 581 1114 l 404 1110 q 357 1133 371 1114 q 338 1178 343 1153 q 328 1230 332 1203 q 312 1278 324 1257 q 274 1308 300 1299 q 197 1310 247 1318 l 197 1458 m 703 628 q 783 614 744 628 q 853 572 822 600 q 901 504 883 544 q 918 411 919 464 l 918 347 q 899 176 918 243 q 840 70 879 108 q 739 17 800 32 q 594 3 678 3 l 293 3 q 201 10 250 3 q 110 50 151 18 q 40 149 68 82 q 10 332 11 215 l 321 332 q 323 291 321 307 q 331 266 325 275 q 351 253 338 257 q 386 250 364 250 l 458 250 q 497 253 483 250 q 516 274 510 257 q 524 324 522 290 q 525 417 525 357 l 228 417 q 147 431 186 417 q 78 472 108 444 q 29 540 47 500 q 13 633 11 581 l 13 697 q 32 869 13 801 q 91 974 51 936 q 192 1027 131 1013 q 336 1042 253 1042 l 638 1042 q 730 1034 681 1042 q 821 994 779 1026 q 891 896 863 963 q 921 713 919 829 l 610 713 q 608 753 610 738 q 599 778 606 769 q 580 791 593 788 q 544 794 567 794 l 472 794 q 434 791 447 794 q 415 771 421 788 q 407 721 408 754 q 406 628 406 688 l 703 628 z "},"‹":{"ha":481,"x_min":24,"x_max":451,"o":"m 24 578 l 244 972 l 451 972 l 231 578 l 231 390 l 451 0 l 244 0 l 24 390 l 24 578 z "},"Œ":{"ha":1538,"x_min":28,"x_max":1494,"o":"m 28 638 q 60 794 28 721 q 147 923 92 868 q 275 1010 201 978 q 432 1042 349 1042 l 1099 1042 q 1238 1017 1172 1042 q 1357 948 1304 992 q 1445 844 1410 904 q 1494 715 1481 785 l 1114 715 q 1090 772 1106 750 q 1050 794 1074 794 l 1047 794 q 1014 779 1028 794 q 990 740 1000 764 q 976 685 981 717 q 972 624 972 654 l 1286 624 l 1286 415 l 972 415 q 976 353 972 383 q 990 299 981 322 q 1014 260 1000 275 q 1047 244 1028 244 l 1050 244 q 1090 267 1074 244 q 1114 324 1106 289 l 1494 324 q 1445 194 1481 254 q 1357 91 1410 135 q 1238 22 1304 47 q 1099 -3 1172 -3 l 992 -3 q 967 -2 979 -3 q 942 0 954 -1 l 432 0 q 275 32 349 0 q 147 119 201 64 q 60 247 92 174 q 28 404 28 321 l 28 638 m 588 638 q 619 794 588 719 l 488 794 q 454 779 468 794 q 431 740 440 764 q 417 685 421 717 q 413 624 413 654 l 413 418 q 417 356 413 386 q 431 301 421 325 q 454 263 440 278 q 488 247 468 247 l 618 247 q 588 401 588 321 l 588 638 z "},"‘":{"ha":243,"x_min":10,"x_max":286,"o":"m 286 904 q 203 900 229 914 q 167 861 178 886 q 207 818 192 846 q 222 756 222 790 q 191 670 222 706 q 117 635 160 635 q 41 670 72 635 q 10 756 10 706 q 32 829 10 796 q 60 915 40 875 q 111 984 79 956 q 186 1028 143 1013 q 286 1039 229 1043 l 286 904 m 133 756 q 117 772 133 772 q 99 756 99 772 q 117 738 99 738 q 133 756 133 738 z "},"’":{"ha":258,"x_min":-39,"x_max":238,"o":"m -39 693 q 44 697 18 683 q 81 736 69 711 q 40 779 56 751 q 25 842 25 807 q 56 927 25 892 q 131 963 88 963 q 206 927 175 963 q 238 842 238 892 q 215 768 238 801 q 188 682 207 722 q 136 613 168 642 q 60 569 104 585 q -39 558 17 554 l -39 693 m 114 842 q 131 825 114 825 q 149 842 149 825 q 131 860 149 860 q 114 842 114 860 z "},"“":{"ha":551,"x_min":17,"x_max":543,"o":"m 543 901 q 460 897 486 911 q 424 858 435 883 q 464 815 449 843 q 479 753 479 788 q 448 667 479 703 q 374 632 417 632 q 298 667 329 632 q 267 753 267 703 q 289 826 267 793 q 317 913 297 872 q 368 981 336 953 q 443 1025 400 1010 q 543 1036 486 1040 l 543 901 m 390 753 q 374 769 390 769 q 356 753 356 769 q 374 735 356 735 q 390 753 390 735 m 293 901 q 210 897 236 911 q 174 858 185 883 q 214 815 199 843 q 229 753 229 788 q 198 667 229 703 q 124 632 167 632 q 48 667 79 632 q 17 753 17 703 q 39 826 17 793 q 67 913 47 872 q 118 981 86 953 q 193 1025 150 1010 q 293 1036 236 1040 l 293 901 m 140 753 q 124 769 140 769 q 106 753 106 769 q 124 735 106 735 q 140 753 140 735 z "},"”":{"ha":526,"x_min":-39,"x_max":488,"o":"m -39 776 q 44 781 18 767 q 81 819 69 794 q 40 863 56 835 q 25 925 25 890 q 56 1010 25 975 q 131 1046 88 1046 q 206 1010 175 1046 q 238 925 238 975 q 215 851 238 885 q 188 765 207 806 q 136 697 168 725 q 60 653 104 668 q -39 642 17 638 l -39 776 m 114 925 q 131 908 114 908 q 149 925 149 908 q 131 943 149 943 q 114 925 114 943 m 211 776 q 294 781 268 767 q 331 819 319 794 q 290 863 306 835 q 275 925 275 890 q 306 1010 275 975 q 381 1046 338 1046 q 456 1010 425 1046 q 488 925 488 975 q 465 851 488 885 q 438 765 457 806 q 386 697 418 725 q 310 653 354 668 q 211 642 267 638 l 211 776 m 364 925 q 381 908 364 908 q 399 925 399 908 q 381 943 399 943 q 364 925 364 943 z "},"•":{"ha":450,"x_min":28,"x_max":433,"o":"m 28 460 q 44 539 28 501 q 87 603 60 576 q 151 647 114 631 q 231 663 189 663 q 310 647 272 663 q 374 603 347 631 q 417 539 401 576 q 433 460 433 501 q 417 381 433 418 q 374 316 401 343 q 310 273 347 289 q 231 257 272 257 q 151 273 189 257 q 87 316 114 289 q 44 381 60 343 q 28 460 28 418 z "},"–":{"ha":829,"x_min":36,"x_max":814,"o":"m 36 278 l 36 481 l 814 481 l 814 278 l 36 278 z "},"—":{"ha":913,"x_min":36,"x_max":897,"o":"m 36 278 l 36 481 l 897 481 l 897 278 l 36 278 z "},"˜":{"ha":771,"x_min":3,"x_max":758,"o":"m 421 951 q 497 893 464 906 q 561 890 529 881 q 630 922 593 899 q 721 974 667 946 l 758 883 q 715 853 739 871 q 662 818 690 835 q 599 790 633 801 q 525 780 565 779 q 439 799 485 781 q 340 858 393 817 q 256 914 296 904 q 185 914 217 924 q 129 883 153 904 q 94 847 106 863 l 3 904 q 27 930 10 911 q 72 969 44 949 q 137 1008 100 990 q 218 1028 174 1025 q 313 1015 263 1032 q 421 951 364 999 z "},"™":{"ha":1178,"x_min":7,"x_max":1139,"o":"m 197 894 q 169 862 178 894 q 160 792 160 829 l 7 792 l 7 800 q 22 894 7 850 q 65 971 38 938 q 128 1023 92 1004 q 204 1042 164 1042 l 372 1042 q 449 1023 414 1042 q 512 971 485 1004 q 554 894 539 938 q 569 800 569 850 l 569 792 l 422 792 q 413 862 422 829 q 385 894 404 894 l 385 419 l 197 419 l 197 894 m 951 1042 l 1139 1042 l 1139 419 l 951 419 l 951 704 l 860 540 l 769 704 l 769 419 l 581 419 l 581 1042 l 769 1042 l 860 878 l 951 1042 z "},"š":{"ha":954,"x_min":10,"x_max":921,"o":"m 197 1458 q 314 1443 269 1463 q 383 1391 358 1424 q 420 1320 408 1358 q 438 1251 432 1282 q 452 1201 444 1219 q 476 1190 460 1183 q 497 1202 490 1183 q 510 1252 503 1221 q 528 1322 517 1283 q 567 1392 540 1360 q 638 1443 593 1424 q 756 1458 682 1463 l 756 1310 q 678 1308 704 1318 q 641 1278 653 1299 q 625 1230 629 1257 q 615 1178 621 1203 q 595 1133 610 1153 q 549 1110 581 1114 l 404 1110 q 357 1133 371 1114 q 338 1178 343 1153 q 328 1230 332 1203 q 312 1278 324 1257 q 274 1308 300 1299 q 197 1310 247 1318 l 197 1458 m 703 628 q 783 614 744 628 q 853 572 822 600 q 901 504 883 544 q 918 411 919 464 l 918 347 q 899 176 918 243 q 840 70 879 108 q 739 17 800 32 q 594 3 678 3 l 293 3 q 201 10 250 3 q 110 50 151 18 q 40 149 68 82 q 10 332 11 215 l 321 332 q 323 291 321 307 q 331 266 325 275 q 351 253 338 257 q 386 250 364 250 l 458 250 q 497 253 483 250 q 516 274 510 257 q 524 324 522 290 q 525 417 525 357 l 228 417 q 147 431 186 417 q 78 472 108 444 q 29 540 47 500 q 13 633 11 581 l 13 697 q 32 869 13 801 q 91 974 51 936 q 192 1027 131 1013 q 336 1042 253 1042 l 638 1042 q 730 1034 681 1042 q 821 994 779 1026 q 891 896 863 963 q 921 713 919 829 l 610 713 q 608 753 610 738 q 599 778 606 769 q 580 791 593 788 q 544 794 567 794 l 472 794 q 434 791 447 794 q 415 771 421 788 q 407 721 408 754 q 406 628 406 688 l 703 628 z "},"›":{"ha":464,"x_min":31,"x_max":458,"o":"m 458 390 l 238 0 l 31 0 l 251 390 l 251 578 l 31 972 l 238 972 l 458 578 l 458 390 z "},"œ":{"ha":1557,"x_min":28,"x_max":1494,"o":"m 28 638 q 60 794 28 721 q 147 923 92 868 q 275 1010 201 978 q 432 1042 349 1042 l 1099 1042 q 1238 1017 1172 1042 q 1357 948 1304 992 q 1445 844 1410 904 q 1494 715 1481 785 l 1114 715 q 1090 772 1106 750 q 1050 794 1074 794 l 1047 794 q 1014 779 1028 794 q 990 740 1000 764 q 976 685 981 717 q 972 624 972 654 l 1286 624 l 1286 415 l 972 415 q 976 353 972 383 q 990 299 981 322 q 1014 260 1000 275 q 1047 244 1028 244 l 1050 244 q 1090 267 1074 244 q 1114 324 1106 289 l 1494 324 q 1445 194 1481 254 q 1357 91 1410 135 q 1238 22 1304 47 q 1099 -3 1172 -3 l 992 -3 q 967 -2 979 -3 q 942 0 954 -1 l 432 0 q 275 32 349 0 q 147 119 201 64 q 60 247 92 174 q 28 404 28 321 l 28 638 m 588 638 q 619 794 588 719 l 488 794 q 454 779 468 794 q 431 740 440 764 q 417 685 421 717 q 413 624 413 654 l 413 418 q 417 356 413 386 q 431 301 421 325 q 454 263 440 278 q 488 247 468 247 l 618 247 q 588 401 588 321 l 588 638 z "},"Ÿ":{"ha":947,"x_min":18,"x_max":933,"o":"m 556 1042 l 933 1042 l 933 585 q 914 460 933 519 q 859 351 894 400 q 775 264 824 301 q 668 206 726 226 l 668 0 l 283 0 l 283 206 q 176 264 225 226 q 92 351 128 301 q 38 460 57 400 q 18 585 18 519 l 18 1042 l 403 1042 l 403 599 q 407 536 403 567 q 421 482 411 506 q 444 443 431 458 q 478 428 458 428 l 481 428 q 514 443 500 428 q 538 482 528 458 q 551 536 547 506 q 556 599 556 567 l 556 1042 m 240 1189 q 272 1274 240 1239 q 346 1310 303 1310 q 422 1274 390 1310 q 453 1189 453 1239 q 422 1104 453 1139 q 346 1069 390 1069 q 272 1104 303 1069 q 240 1189 240 1139 m 493 1189 q 524 1274 493 1239 q 599 1310 556 1310 q 674 1274 643 1310 q 706 1189 706 1239 q 674 1104 706 1139 q 599 1069 643 1069 q 524 1104 556 1069 q 493 1189 493 1139 z "}," ":{"ha":0,"x_min":0,"x_max":0,"o":""},"¡":{"ha":346,"x_min":32,"x_max":306,"o":"m 306 0 l 32 0 l 32 657 l 306 657 l 306 0 m 306 1042 l 306 826 l 32 826 l 32 1042 l 306 1042 z "},"¢":{"ha":981,"x_min":42,"x_max":957,"o":"m 406 1169 l 608 1169 l 608 1038 q 746 992 682 1026 q 856 903 810 957 q 930 782 903 850 q 957 638 957 714 l 957 624 l 663 624 q 647 682 663 653 q 608 735 632 711 l 608 307 q 647 359 632 331 q 663 418 663 388 l 957 418 l 957 404 q 930 258 957 326 q 856 137 903 190 q 746 48 810 83 q 608 3 682 13 l 608 -150 l 406 -150 l 406 1 q 262 44 328 10 q 147 132 196 78 q 69 256 97 186 q 42 404 42 325 l 42 638 q 69 786 42 717 q 147 910 97 856 q 262 998 196 964 q 406 1039 328 1032 l 406 1169 m 343 418 q 361 354 343 386 q 406 299 379 322 l 406 743 q 361 687 379 718 q 343 624 343 656 l 343 418 z "},"£":{"ha":1382,"x_min":36,"x_max":1344,"o":"m 790 458 l 790 349 q 791 315 790 332 q 798 283 792 297 q 820 258 804 268 q 865 247 836 249 l 938 247 q 983 277 965 247 q 1007 351 1000 307 l 1344 351 q 1307 213 1335 276 q 1233 101 1279 149 q 1125 27 1188 54 q 986 0 1063 0 l 708 0 q 680 102 701 69 q 628 147 658 135 q 561 158 597 160 q 488 160 525 157 l 471 160 l 426 157 q 369 109 388 154 q 351 1 351 64 l 36 1 l 36 14 q 57 171 36 97 q 119 299 78 244 q 224 386 161 354 q 371 418 288 418 l 406 418 l 406 458 l 296 458 l 296 578 l 406 578 l 406 638 q 438 794 406 721 q 524 923 469 868 q 653 1010 579 978 q 810 1042 726 1042 l 986 1042 q 1124 1015 1063 1042 q 1231 942 1186 989 q 1305 831 1276 894 q 1344 694 1333 768 l 1007 694 q 983 765 1000 736 q 938 794 965 794 l 865 794 q 832 779 846 794 q 808 740 818 764 q 794 685 799 717 q 790 624 790 654 l 790 578 l 1157 578 l 1157 458 l 790 458 z "},"¤":{"ha":1085,"x_min":24,"x_max":1064,"o":"m 24 1042 l 283 1042 l 392 864 q 488 874 431 874 l 600 874 q 694 864 656 874 l 804 1042 l 1064 1042 l 869 725 q 894 579 894 660 l 894 461 q 869 315 894 379 l 1064 0 l 804 0 l 696 175 q 600 167 651 167 l 488 167 q 392 175 433 167 l 283 0 l 24 0 l 219 318 q 203 386 208 350 q 199 461 199 422 l 199 579 q 203 654 199 618 q 219 722 208 690 l 24 1042 m 625 568 q 620 614 625 592 q 606 654 615 636 q 583 683 597 672 q 547 693 568 693 l 546 693 q 510 683 525 693 q 487 654 496 672 q 473 614 478 636 q 468 568 468 592 l 468 472 q 473 426 468 449 q 487 386 478 404 q 510 358 496 368 q 546 347 525 347 l 547 347 q 583 358 568 347 q 606 386 597 368 q 620 426 615 404 q 625 472 625 449 l 625 568 z "},"¥":{"ha":947,"x_min":18,"x_max":933,"o":"m 85 53 l 85 214 l 283 214 l 283 288 l 85 288 l 85 449 l 283 449 l 283 469 q 176 528 225 490 q 92 615 128 565 q 38 724 57 664 q 18 849 18 783 l 18 1042 l 403 1042 l 403 863 q 407 800 403 831 q 421 746 411 769 q 444 707 431 722 q 478 692 458 692 l 481 692 q 514 707 500 692 q 538 746 528 722 q 551 800 547 769 q 556 863 556 831 l 556 1042 l 933 1042 l 933 849 q 914 724 933 783 q 859 615 894 664 q 775 528 824 565 q 668 469 726 490 l 668 449 l 863 449 l 863 288 l 668 288 l 668 214 l 863 214 l 863 53 l 668 53 l 668 0 l 283 0 l 283 53 l 85 53 z "},"¦":{"ha":290,"x_min":57,"x_max":260,"o":"m 260 489 l 57 489 l 57 1042 l 260 1042 l 260 489 m 57 269 l 260 269 l 260 -278 l 57 -278 l 57 269 z "},"§":{"ha":950,"x_min":11,"x_max":908,"o":"m 218 278 q 141 288 178 278 q 75 318 104 299 q 28 367 46 338 q 13 433 11 396 l 13 571 q 28 664 13 632 q 13 728 11 692 l 13 864 q 31 964 13 928 q 87 1017 49 1000 q 183 1038 125 1035 q 322 1042 242 1042 l 610 1042 q 700 1040 649 1042 q 797 1024 751 1039 q 875 972 843 1008 q 907 867 907 936 l 907 785 l 526 785 q 526 825 526 810 q 519 849 525 840 q 501 861 514 858 q 464 864 488 864 l 458 864 q 407 856 421 864 q 393 806 393 847 l 393 764 l 701 764 q 778 751 740 764 q 844 714 815 738 q 891 658 874 690 q 907 589 908 626 l 907 472 q 886 369 907 407 q 907 294 907 336 l 907 178 q 888 78 907 114 q 831 26 869 43 q 734 4 793 8 q 594 0 675 0 l 310 0 q 219 1 271 0 q 122 18 168 3 q 44 69 76 33 q 13 175 13 106 l 13 257 l 393 257 q 394 215 393 231 q 402 192 396 200 q 422 181 408 183 q 457 178 435 178 l 465 178 q 513 187 503 178 q 525 236 524 196 l 525 278 l 218 278 m 465 472 q 495 474 483 472 q 513 481 507 475 q 522 499 519 488 q 525 532 525 511 l 525 536 q 510 564 522 557 q 464 571 497 571 l 458 571 q 410 563 424 571 q 393 524 396 556 q 406 481 394 489 q 457 472 418 472 l 465 472 z "},"¨":{"ha":514,"x_min":11,"x_max":476,"o":"m 11 911 q 42 997 11 961 q 117 1032 74 1032 q 192 997 161 1032 q 224 911 224 961 q 192 826 224 861 q 117 792 161 792 q 42 826 74 792 q 11 911 11 861 m 264 911 q 295 997 264 961 q 369 1032 326 1032 q 445 997 414 1032 q 476 911 476 961 q 445 826 476 861 q 369 792 414 792 q 295 826 326 792 q 264 911 264 861 z "},"©":{"ha":1110,"x_min":14,"x_max":1054,"o":"m 14 638 q 50 794 14 721 q 149 923 86 868 q 294 1010 211 978 q 474 1042 378 1042 l 594 1042 q 774 1010 690 1042 q 919 923 857 978 q 1018 794 982 868 q 1054 638 1054 721 l 1054 404 q 1018 247 1054 321 q 919 119 982 174 q 774 32 857 64 q 594 0 690 0 l 474 0 q 294 32 378 0 q 149 119 211 64 q 50 247 86 174 q 14 404 14 321 l 14 638 m 949 672 q 924 772 949 722 q 850 860 900 821 q 724 923 800 899 q 543 947 647 947 l 529 947 q 348 923 425 947 q 221 860 271 899 q 147 772 171 821 q 122 672 122 722 l 122 346 q 147 247 122 296 q 221 159 171 197 q 348 97 271 121 q 529 72 425 72 l 543 72 q 724 97 647 72 q 850 159 800 121 q 924 247 900 197 q 949 346 949 296 l 949 672 m 190 597 q 214 701 190 653 q 279 787 238 750 q 376 844 321 824 q 496 865 432 865 l 578 865 q 696 844 640 865 q 793 787 751 824 q 858 701 835 750 q 882 597 882 653 l 882 588 l 599 588 q 584 665 599 629 q 542 701 569 701 l 538 701 q 494 665 508 701 q 481 588 481 629 l 481 450 q 484 409 481 429 q 494 373 488 389 q 512 347 501 357 q 538 338 522 338 l 542 338 q 566 347 556 338 q 584 373 576 357 q 595 409 592 389 q 599 450 599 429 l 882 450 l 882 442 q 858 337 882 386 q 793 251 835 288 q 696 194 751 215 q 578 172 640 172 l 496 172 q 376 194 432 172 q 279 251 321 215 q 214 337 238 288 q 190 442 190 386 l 190 597 z "},"ª":{"ha":638,"x_min":14,"x_max":600,"o":"m 358 539 l 260 539 l 260 417 l 14 417 l 14 799 q 34 893 14 849 q 90 971 54 938 q 172 1023 125 1004 q 272 1042 218 1042 l 342 1042 q 442 1023 396 1042 q 524 971 489 1004 q 580 893 560 938 q 600 799 600 849 l 600 417 l 358 417 l 358 539 m 260 689 l 358 689 l 358 790 q 347 860 358 828 q 310 893 335 893 l 308 893 q 272 860 283 893 q 260 790 260 828 l 260 689 z "},"«":{"ha":772,"x_min":32,"x_max":738,"o":"m 310 578 l 531 972 l 738 972 l 517 578 l 517 390 l 738 0 l 531 0 l 310 390 l 310 578 m 32 578 l 253 972 l 460 972 l 239 578 l 239 390 l 460 0 l 253 0 l 32 390 l 32 578 z "},"¬":{"ha":860,"x_min":36,"x_max":814,"o":"m 600 621 l 36 621 l 36 824 l 814 824 l 814 447 l 600 447 l 600 621 z "},"−":{"ha":806,"x_min":21,"x_max":799,"o":"m 21 426 l 21 629 l 799 629 l 799 426 l 21 426 z "},"®":{"ha":1079,"x_min":14,"x_max":1054,"o":"m 14 633 q 50 790 14 717 q 149 917 86 863 q 294 1003 211 972 q 474 1035 378 1035 l 594 1035 q 774 1003 690 1035 q 919 917 857 972 q 1018 790 982 863 q 1054 633 1054 717 l 1054 401 q 1018 245 1054 318 q 919 117 982 172 q 774 31 857 63 q 594 0 690 0 l 474 0 q 294 31 378 0 q 149 117 211 63 q 50 245 86 172 q 14 401 14 318 l 14 633 m 949 678 q 924 776 949 728 q 850 864 900 825 q 724 926 800 903 q 543 950 647 950 l 529 950 q 348 926 425 950 q 221 864 271 903 q 147 776 171 825 q 122 678 122 728 l 122 353 q 147 255 122 303 q 221 168 171 207 q 348 106 271 129 q 529 82 425 82 l 543 82 q 724 106 647 82 q 850 168 800 129 q 924 255 900 207 q 949 353 949 303 l 949 678 m 221 231 l 221 615 q 243 711 221 667 q 303 789 265 756 q 392 842 340 822 q 501 861 443 861 l 574 861 q 683 842 632 861 q 773 789 735 822 q 833 711 811 756 q 856 615 856 667 l 856 599 q 830 497 856 543 q 758 415 804 450 l 856 231 l 589 231 l 533 354 l 488 354 l 488 231 l 221 231 m 488 504 l 542 504 q 581 537 569 504 q 593 608 593 569 q 581 679 593 647 q 542 711 569 711 l 539 711 q 499 679 511 711 q 488 608 488 647 l 488 504 z "},"¯":{"ha":1157,"x_min":0,"x_max":0,"o":""},"°":{"ha":658,"x_min":11,"x_max":626,"o":"m 11 813 q 22 901 11 860 q 63 974 33 943 q 141 1024 92 1006 q 267 1042 190 1042 l 365 1042 q 492 1024 442 1042 q 573 974 543 1006 q 615 901 603 943 q 626 813 626 860 l 626 719 q 615 631 626 672 q 573 558 603 589 q 492 508 543 526 q 365 490 442 490 l 267 490 q 141 508 190 490 q 63 558 92 526 q 22 631 33 589 q 11 719 11 672 l 11 813 m 389 804 q 373 871 389 840 q 321 901 357 901 l 318 901 q 265 871 282 901 q 249 804 249 840 l 249 728 q 265 661 249 692 q 318 631 282 631 l 321 631 q 373 661 357 631 q 389 728 389 692 l 389 804 z "},"±":{"ha":857,"x_min":36,"x_max":814,"o":"m 36 0 l 36 203 l 814 203 l 814 0 l 36 0 m 36 524 l 36 726 l 324 726 l 324 1014 l 526 1014 l 526 726 l 814 726 l 814 524 l 526 524 l 526 236 l 324 236 l 324 524 l 36 524 z "},"²":{"ha":514,"x_min":8,"x_max":497,"o":"m 496 417 l 24 417 l 24 533 l 311 776 l 311 864 q 303 908 311 888 q 269 929 296 929 l 236 929 q 199 906 206 928 q 193 846 192 883 l 193 844 l 8 844 l 8 885 q 17 947 8 918 q 49 996 26 975 q 108 1029 71 1017 q 203 1042 146 1042 l 307 1042 q 401 1029 364 1042 q 459 996 438 1017 q 489 947 481 975 q 497 885 497 918 l 497 746 l 247 533 l 496 533 l 496 417 z "},"³":{"ha":551,"x_min":26,"x_max":539,"o":"m 233 688 l 233 771 l 282 771 q 323 792 317 771 q 329 838 329 814 l 329 864 q 321 909 329 888 q 282 931 313 931 q 244 909 253 931 q 235 864 235 888 l 26 864 l 26 883 q 36 945 26 917 q 71 995 46 974 q 138 1029 96 1017 q 244 1042 181 1042 l 325 1042 q 431 1029 389 1042 q 497 995 472 1017 q 530 945 521 974 q 539 883 539 917 l 539 801 q 513 728 539 749 q 539 657 539 708 l 539 575 q 530 513 539 542 q 497 463 521 485 q 431 429 472 442 q 325 417 389 417 l 244 417 q 138 429 181 417 q 71 463 96 442 q 36 513 46 485 q 26 575 26 542 l 26 594 l 235 594 q 244 549 235 571 q 282 528 253 528 q 321 549 313 528 q 329 594 329 571 l 329 621 q 322 666 329 644 q 282 688 315 688 l 233 688 z "},"´":{"ha":383,"x_min":18,"x_max":363,"o":"m 363 893 q 285 892 311 901 q 248 861 260 882 q 232 813 236 840 q 222 761 228 786 q 202 717 217 736 q 156 693 188 697 l 18 693 q 81 742 63 708 q 109 817 100 776 q 126 901 118 858 q 156 976 133 943 q 227 1028 179 1010 q 363 1042 275 1047 l 363 893 z "},"µ":{"ha":963,"x_min":7,"x_max":922,"o":"m 7 968 l 392 968 l 392 540 q 396 478 392 508 q 410 424 400 447 q 433 385 419 400 q 467 369 447 369 l 469 369 q 503 385 489 369 q 526 424 517 400 q 540 478 536 447 q 544 540 544 508 l 544 968 l 922 968 l 922 404 q 890 247 922 321 q 803 119 858 174 q 675 32 749 64 q 518 0 601 0 l 411 83 l 392 96 l 392 -129 l 7 -129 l 7 968 z "},"¶":{"ha":1589,"x_min":-43,"x_max":1547,"o":"m 785 794 q 742 769 758 794 q 718 706 726 743 q 719 672 719 689 q 719 638 719 654 l 719 0 l 335 0 l 335 206 l 278 206 q 133 238 194 206 q 33 324 72 269 q -24 453 -6 379 q -43 610 -43 526 l -43 638 q -24 794 -43 721 q 33 923 -6 868 q 133 1010 72 978 q 278 1042 194 1042 l 1143 1042 q 1300 1010 1226 1042 q 1428 923 1374 978 q 1515 794 1483 868 q 1547 638 1547 721 l 1547 624 l 1244 624 q 1240 685 1244 654 q 1226 740 1236 717 q 1203 779 1217 764 q 1169 794 1189 794 l 1169 0 l 785 0 l 785 794 z "},"·":{"ha":246,"x_min":17,"x_max":229,"o":"m 17 481 q 48 566 17 531 q 122 601 79 601 q 198 566 167 601 q 229 481 229 531 q 198 396 229 431 q 122 361 167 361 q 48 396 79 361 q 17 481 17 431 z "},"¸":{"ha":281,"x_min":-14,"x_max":271,"o":"m -14 -269 q 58 -245 36 -260 q 85 -214 81 -231 q 80 -178 89 -197 q 57 -140 71 -158 q 30 -103 43 -121 q 13 -69 17 -85 l 13 1 l 150 1 l 150 -69 q 203 -116 175 -87 q 248 -178 231 -144 q 268 -249 265 -212 q 244 -318 271 -285 q 156 -378 217 -351 q -14 -418 94 -404 l -14 -269 z "},"¹":{"ha":397,"x_min":15,"x_max":383,"o":"m 176 1042 l 383 1042 l 383 417 l 176 417 l 176 924 l 15 924 l 176 1042 z "},"º":{"ha":510,"x_min":18,"x_max":464,"o":"m 18 781 q 26 882 18 835 q 56 965 35 929 q 112 1021 76 1000 q 203 1042 147 1042 l 275 1042 q 367 1021 331 1042 q 424 965 403 1000 q 455 882 446 929 q 464 781 464 835 l 464 675 q 455 573 464 621 q 424 490 446 525 q 367 434 403 454 q 275 414 331 414 l 203 414 q 112 434 147 414 q 56 490 76 454 q 26 573 35 525 q 18 675 18 621 l 18 781 m 292 771 q 280 847 292 813 q 242 882 268 882 l 240 882 q 202 847 214 882 q 190 771 190 813 l 190 685 q 202 608 190 643 q 240 574 214 574 l 242 574 q 280 608 268 574 q 292 685 292 643 l 292 771 z "},"»":{"ha":740,"x_min":29,"x_max":721,"o":"m 721 390 l 500 0 l 293 0 l 514 390 l 514 578 l 293 972 l 500 972 l 721 578 l 721 390 m 457 390 l 236 0 l 29 0 l 250 390 l 250 578 l 29 972 l 236 972 l 457 578 l 457 390 z "},"¼":{"ha":1221,"x_min":15,"x_max":1188,"o":"m 161 1042 l 363 1042 l 363 417 l 161 417 l 161 924 l 15 924 l 161 1042 m 678 1042 l 938 1042 l 453 0 l 194 0 l 678 1042 m 907 676 l 1188 676 l 1188 0 l 985 0 l 985 128 l 613 128 l 613 254 l 907 676 m 985 256 l 985 492 l 844 256 l 985 256 z "},"½":{"ha":1276,"x_min":15,"x_max":1244,"o":"m 678 1042 l 938 1042 l 453 0 l 194 0 l 678 1042 m 1243 0 l 746 0 l 746 126 l 1049 385 l 1049 481 q 1040 529 1049 507 q 1004 551 1032 551 l 969 551 q 931 526 938 550 q 925 461 924 501 l 731 461 l 731 503 q 740 569 731 538 q 772 623 749 600 q 835 659 796 646 q 935 672 874 672 l 1044 672 q 1143 659 1104 672 q 1204 623 1182 646 q 1235 569 1226 600 q 1244 503 1244 538 l 1244 356 l 1240 353 l 1244 353 l 981 126 l 1243 126 l 1243 0 m 161 1042 l 363 1042 l 363 417 l 161 417 l 161 924 l 15 924 l 161 1042 z "},"¾":{"ha":1324,"x_min":26,"x_max":1299,"o":"m 1018 676 l 1299 676 l 1299 0 l 1096 0 l 1096 128 l 724 128 l 724 254 l 1018 676 m 789 1042 l 1049 1042 l 564 0 l 306 0 l 789 1042 m 235 688 l 235 771 l 283 771 q 324 792 317 771 q 331 838 331 814 l 331 864 q 322 909 331 888 q 283 931 313 931 l 282 931 q 244 909 253 931 q 235 864 235 888 l 26 864 l 26 883 q 36 945 26 917 q 71 995 46 974 q 138 1029 96 1017 q 246 1042 181 1042 l 326 1042 q 432 1029 390 1042 q 497 995 474 1017 q 531 945 521 974 q 540 883 540 917 l 540 801 q 514 728 540 749 q 540 657 540 708 l 540 575 q 531 513 540 542 q 497 463 521 485 q 432 429 474 442 q 326 417 390 417 l 246 417 q 138 429 181 417 q 71 463 96 442 q 36 513 46 485 q 26 575 26 542 l 26 594 l 235 594 q 244 549 235 571 q 282 528 253 528 l 283 528 q 322 549 313 528 q 331 594 331 571 l 331 621 q 324 666 331 644 q 283 688 317 688 l 235 688 m 1096 256 l 1096 492 l 956 256 l 1096 256 z "},"¿":{"ha":724,"x_min":8,"x_max":711,"o":"m 501 618 l 276 415 l 276 276 q 278 239 276 257 q 288 206 281 221 q 306 183 294 192 q 336 174 317 174 l 385 174 q 438 211 428 176 q 444 304 447 246 l 444 306 l 711 306 l 711 244 q 699 150 711 194 q 654 72 686 106 q 568 19 622 39 q 432 0 514 0 l 282 0 q 147 19 200 0 q 63 72 93 39 q 20 150 32 106 q 8 244 8 194 l 8 458 l 14 461 l 8 461 l 238 650 l 238 782 l 501 782 l 501 618 m 501 861 l 238 861 l 238 1040 l 501 1040 l 501 861 z "},"À":{"ha":963,"x_min":14,"x_max":929,"o":"m 304 1458 q 440 1445 392 1464 q 510 1393 488 1426 q 541 1317 533 1360 q 558 1234 549 1275 q 585 1160 567 1193 q 649 1110 604 1126 l 511 1110 q 464 1133 478 1114 q 444 1178 450 1153 q 435 1230 439 1203 q 419 1278 431 1257 q 381 1308 407 1299 q 304 1310 354 1318 l 304 1458 m 551 204 l 399 204 l 399 0 l 14 0 l 14 638 q 46 794 14 721 q 133 923 78 868 q 261 1010 188 978 q 418 1042 335 1042 l 525 1042 q 682 1010 608 1042 q 810 923 756 978 q 897 794 865 868 q 929 638 929 721 l 929 0 l 551 0 l 551 204 m 399 453 l 551 453 l 551 624 q 547 685 551 654 q 533 740 543 717 q 510 779 524 764 q 476 794 496 794 l 474 794 q 440 779 454 794 q 417 740 426 764 q 403 685 407 717 q 399 624 399 654 l 399 453 z "},"Á":{"ha":963,"x_min":14,"x_max":929,"o":"m 657 1310 q 580 1308 606 1318 q 542 1278 554 1299 q 526 1230 531 1257 q 517 1178 522 1203 q 497 1133 511 1153 q 450 1110 482 1114 l 313 1110 q 376 1159 357 1125 q 403 1234 394 1193 q 420 1317 413 1275 q 451 1393 428 1360 q 521 1445 474 1426 q 657 1458 568 1464 l 657 1310 m 551 204 l 399 204 l 399 0 l 14 0 l 14 638 q 46 794 14 721 q 133 923 78 868 q 261 1010 188 978 q 418 1042 335 1042 l 525 1042 q 682 1010 608 1042 q 810 923 756 978 q 897 794 865 868 q 929 638 929 721 l 929 0 l 551 0 l 551 204 m 399 453 l 551 453 l 551 624 q 547 685 551 654 q 533 740 543 717 q 510 779 524 764 q 476 794 496 794 l 474 794 q 440 779 454 794 q 417 740 426 764 q 403 685 407 717 q 399 624 399 654 l 399 453 z "},"Â":{"ha":963,"x_min":14,"x_max":929,"o":"m 201 1278 q 278 1279 251 1269 q 316 1310 304 1289 q 332 1358 328 1331 q 342 1410 336 1385 q 361 1454 347 1435 q 408 1478 375 1474 l 553 1478 q 599 1454 585 1474 q 619 1410 614 1435 q 629 1358 625 1385 q 645 1310 633 1331 q 683 1279 657 1289 q 760 1278 708 1269 l 760 1129 q 642 1144 686 1124 q 571 1196 597 1164 q 533 1266 544 1228 q 514 1335 521 1304 q 501 1385 507 1367 q 481 1397 494 1404 q 456 1386 464 1404 q 442 1337 449 1368 q 424 1267 436 1306 q 388 1197 413 1229 q 318 1144 363 1164 q 201 1129 274 1124 l 201 1278 m 551 204 l 399 204 l 399 0 l 14 0 l 14 638 q 46 794 14 721 q 133 923 78 868 q 261 1010 188 978 q 418 1042 335 1042 l 525 1042 q 682 1010 608 1042 q 810 923 756 978 q 897 794 865 868 q 929 638 929 721 l 929 0 l 551 0 l 551 204 m 399 453 l 551 453 l 551 624 q 547 685 551 654 q 533 740 543 717 q 510 779 524 764 q 476 794 496 794 l 474 794 q 440 779 454 794 q 417 740 426 764 q 403 685 407 717 q 399 624 399 654 l 399 453 z "},"Ã":{"ha":963,"x_min":14,"x_max":929,"o":"m 521 1368 q 597 1310 564 1322 q 661 1306 629 1297 q 730 1339 693 1315 q 821 1390 767 1363 l 858 1300 q 815 1269 839 1288 q 762 1235 790 1251 q 699 1207 733 1218 q 625 1197 665 1196 q 539 1215 585 1197 q 440 1275 493 1233 q 356 1331 396 1321 q 285 1331 317 1340 q 229 1300 253 1321 q 194 1264 206 1279 l 103 1321 q 127 1347 110 1328 q 172 1386 144 1365 q 237 1424 200 1407 q 318 1445 274 1442 q 413 1432 363 1449 q 521 1368 464 1415 m 551 204 l 399 204 l 399 0 l 14 0 l 14 638 q 46 794 14 721 q 133 923 78 868 q 261 1010 188 978 q 418 1042 335 1042 l 525 1042 q 682 1010 608 1042 q 810 923 756 978 q 897 794 865 868 q 929 638 929 721 l 929 0 l 551 0 l 551 204 m 399 453 l 551 453 l 551 624 q 547 685 551 654 q 533 740 543 717 q 510 779 524 764 q 476 794 496 794 l 474 794 q 440 779 454 794 q 417 740 426 764 q 403 685 407 717 q 399 624 399 654 l 399 453 z "},"Ä":{"ha":963,"x_min":14,"x_max":929,"o":"m 249 1328 q 280 1413 249 1378 q 354 1449 311 1449 q 430 1413 399 1449 q 461 1328 461 1378 q 430 1243 461 1278 q 354 1208 399 1208 q 280 1243 311 1208 q 249 1328 249 1278 m 501 1328 q 533 1413 501 1378 q 607 1449 564 1449 q 683 1413 651 1449 q 714 1328 714 1378 q 683 1243 714 1278 q 607 1208 651 1208 q 533 1243 564 1208 q 501 1328 501 1278 m 551 204 l 399 204 l 399 0 l 14 0 l 14 638 q 46 794 14 721 q 133 923 78 868 q 261 1010 188 978 q 418 1042 335 1042 l 525 1042 q 682 1010 608 1042 q 810 923 756 978 q 897 794 865 868 q 929 638 929 721 l 929 0 l 551 0 l 551 204 m 399 453 l 551 453 l 551 624 q 547 685 551 654 q 533 740 543 717 q 510 779 524 764 q 476 794 496 794 l 474 794 q 440 779 454 794 q 417 740 426 764 q 403 685 407 717 q 399 624 399 654 l 399 453 z "},"Å":{"ha":963,"x_min":14,"x_max":929,"o":"m 208 1178 q 228 1269 208 1226 q 281 1342 247 1311 q 360 1392 314 1374 q 458 1410 406 1410 q 557 1392 511 1410 q 637 1342 603 1374 q 690 1269 671 1311 q 710 1178 710 1226 q 693 1094 710 1133 q 646 1022 676 1054 q 759 966 707 1003 q 849 878 811 929 q 908 767 886 828 q 929 638 929 706 l 929 0 l 551 0 l 551 204 l 399 204 l 399 0 l 14 0 l 14 638 q 33 762 14 703 q 88 871 53 821 q 170 958 122 921 q 276 1017 218 996 q 226 1088 244 1047 q 208 1178 208 1129 m 399 453 l 551 453 l 551 624 q 547 685 551 654 q 533 740 543 717 q 510 779 524 764 q 476 794 496 794 l 474 794 q 440 779 454 794 q 417 740 426 764 q 403 685 407 717 q 399 624 399 654 l 399 453 m 417 1178 q 428 1108 417 1135 q 458 1081 439 1081 q 490 1108 478 1081 q 501 1178 501 1135 q 490 1247 501 1218 q 458 1275 478 1275 q 428 1247 439 1275 q 417 1178 417 1218 z "},"Æ":{"ha":1490,"x_min":14,"x_max":1440,"o":"m 1232 415 l 918 415 q 922 353 918 383 q 936 299 926 322 q 960 260 946 275 q 993 244 974 244 l 996 244 q 1035 267 1019 244 q 1060 324 1051 289 l 1440 324 q 1391 194 1426 254 q 1303 92 1356 135 q 1184 24 1250 49 q 1044 0 1118 0 l 938 0 q 729 56 822 0 q 585 204 636 111 l 399 204 l 399 0 l 14 0 l 14 638 q 46 794 14 721 q 133 923 78 868 q 261 1010 188 978 q 418 1042 335 1042 l 1044 1042 q 1184 1017 1118 1042 q 1303 948 1250 992 q 1391 844 1356 904 q 1440 715 1426 785 l 1060 715 q 1035 772 1051 750 q 996 794 1019 794 l 993 794 q 960 779 974 794 q 936 740 946 764 q 922 685 926 717 q 918 624 918 654 l 1232 624 l 1232 415 m 399 453 l 533 453 l 533 638 q 565 794 533 719 l 474 794 q 440 779 454 794 q 417 740 426 764 q 403 685 407 717 q 399 624 399 654 l 399 453 z "},"Ç":{"ha":981,"x_min":42,"x_max":957,"o":"m 411 -269 q 483 -245 461 -260 q 510 -214 506 -231 q 505 -178 514 -197 q 482 -140 496 -158 q 455 -103 468 -121 q 438 -69 442 -85 l 438 0 q 283 34 356 1 q 158 121 211 67 q 73 248 104 175 q 42 404 42 321 l 42 638 q 74 794 42 721 q 160 923 106 868 q 289 1010 215 978 q 446 1042 363 1042 l 553 1042 q 710 1010 636 1042 q 838 923 783 978 q 925 794 893 868 q 957 638 957 721 l 957 624 l 579 624 q 575 685 579 654 q 561 740 571 717 q 538 779 551 764 q 504 794 524 794 l 501 794 q 468 779 482 794 q 444 740 454 764 q 431 685 435 717 q 426 624 426 654 l 426 418 q 431 356 426 386 q 444 301 435 325 q 468 263 454 278 q 501 247 482 247 l 504 247 q 538 263 524 247 q 561 301 551 278 q 575 356 571 325 q 579 418 579 386 l 957 418 l 957 404 q 927 251 957 322 q 846 125 897 179 q 724 38 794 71 q 575 0 654 4 l 575 -69 q 628 -116 600 -87 q 673 -178 656 -144 q 693 -249 690 -212 q 669 -318 696 -285 q 581 -378 642 -351 q 411 -418 519 -404 l 411 -269 z "},"È":{"ha":947,"x_min":19,"x_max":926,"o":"m 297 1458 q 433 1445 385 1464 q 503 1393 481 1426 q 534 1317 526 1360 q 551 1234 542 1275 q 578 1160 560 1193 q 642 1110 597 1126 l 504 1110 q 457 1133 471 1114 q 438 1178 443 1153 q 428 1230 432 1203 q 412 1278 424 1257 q 374 1308 400 1299 q 297 1310 347 1318 l 297 1458 m 718 415 l 404 415 q 408 353 404 383 q 422 299 413 322 q 446 260 432 275 q 479 244 460 244 l 482 244 q 522 267 506 244 q 546 324 538 289 l 926 324 q 877 194 913 254 q 789 92 842 135 q 670 24 736 49 q 531 0 604 0 l 424 0 q 267 31 340 0 q 138 117 193 63 q 51 244 83 171 q 19 401 19 318 l 19 638 q 51 794 19 721 q 138 923 83 868 q 267 1010 193 978 q 424 1042 340 1042 l 531 1042 q 670 1017 604 1042 q 789 948 736 992 q 877 844 842 904 q 926 715 913 785 l 546 715 q 522 772 538 750 q 482 794 506 794 l 479 794 q 446 779 460 794 q 422 740 432 764 q 408 685 413 717 q 404 624 404 654 l 718 624 l 718 415 z "},"É":{"ha":947,"x_min":19,"x_max":926,"o":"m 650 1310 q 573 1308 599 1318 q 535 1278 547 1299 q 519 1230 524 1257 q 510 1178 515 1203 q 490 1133 504 1153 q 443 1110 475 1114 l 306 1110 q 369 1159 350 1125 q 397 1234 388 1193 q 413 1317 406 1275 q 444 1393 421 1360 q 514 1445 467 1426 q 650 1458 561 1464 l 650 1310 m 718 415 l 404 415 q 408 353 404 383 q 422 299 413 322 q 446 260 432 275 q 479 244 460 244 l 482 244 q 522 267 506 244 q 546 324 538 289 l 926 324 q 877 194 913 254 q 789 92 842 135 q 670 24 736 49 q 531 0 604 0 l 424 0 q 267 31 340 0 q 138 117 193 63 q 51 244 83 171 q 19 401 19 318 l 19 638 q 51 794 19 721 q 138 923 83 868 q 267 1010 193 978 q 424 1042 340 1042 l 531 1042 q 670 1017 604 1042 q 789 948 736 992 q 877 844 842 904 q 926 715 913 785 l 546 715 q 522 772 538 750 q 482 794 506 794 l 479 794 q 446 779 460 794 q 422 740 432 764 q 408 685 413 717 q 404 624 404 654 l 718 624 l 718 415 z "},"Ê":{"ha":947,"x_min":19,"x_max":926,"o":"m 194 1278 q 271 1279 244 1269 q 309 1310 297 1289 q 325 1358 321 1331 q 335 1410 329 1385 q 354 1454 340 1435 q 401 1478 368 1474 l 546 1478 q 592 1454 578 1474 q 613 1410 607 1435 q 622 1358 618 1385 q 638 1310 626 1331 q 676 1279 650 1289 q 753 1278 701 1269 l 753 1129 q 635 1144 679 1124 q 564 1196 590 1164 q 526 1266 538 1228 q 507 1335 514 1304 q 494 1385 500 1367 q 474 1397 489 1404 q 449 1386 457 1404 q 435 1337 442 1368 q 417 1267 429 1306 q 381 1197 406 1229 q 311 1144 356 1164 q 194 1129 267 1124 l 194 1278 m 718 415 l 404 415 q 408 353 404 383 q 422 299 413 322 q 446 260 432 275 q 479 244 460 244 l 482 244 q 522 267 506 244 q 546 324 538 289 l 926 324 q 877 194 913 254 q 789 92 842 135 q 670 24 736 49 q 531 0 604 0 l 424 0 q 267 31 340 0 q 138 117 193 63 q 51 244 83 171 q 19 401 19 318 l 19 638 q 51 794 19 721 q 138 923 83 868 q 267 1010 193 978 q 424 1042 340 1042 l 531 1042 q 670 1017 604 1042 q 789 948 736 992 q 877 844 842 904 q 926 715 913 785 l 546 715 q 522 772 538 750 q 482 794 506 794 l 479 794 q 446 779 460 794 q 422 740 432 764 q 408 685 413 717 q 404 624 404 654 l 718 624 l 718 415 z "},"Ë":{"ha":947,"x_min":19,"x_max":926,"o":"m 240 1328 q 272 1413 240 1378 q 346 1449 303 1449 q 422 1413 390 1449 q 453 1328 453 1378 q 422 1243 453 1278 q 346 1208 390 1208 q 272 1243 303 1208 q 240 1328 240 1278 m 493 1328 q 524 1413 493 1378 q 599 1449 556 1449 q 674 1413 643 1449 q 706 1328 706 1378 q 674 1243 706 1278 q 599 1208 643 1208 q 524 1243 556 1208 q 493 1328 493 1278 m 718 415 l 404 415 q 408 353 404 383 q 422 299 413 322 q 446 260 432 275 q 479 244 460 244 l 482 244 q 522 267 506 244 q 546 324 538 289 l 926 324 q 877 194 913 254 q 789 92 842 135 q 670 24 736 49 q 531 0 604 0 l 424 0 q 267 31 340 0 q 138 117 193 63 q 51 244 83 171 q 19 401 19 318 l 19 638 q 51 794 19 721 q 138 923 83 868 q 267 1010 193 978 q 424 1042 340 1042 l 531 1042 q 670 1017 604 1042 q 789 948 736 992 q 877 844 842 904 q 926 715 913 785 l 546 715 q 522 772 538 750 q 482 794 506 794 l 479 794 q 446 779 460 794 q 422 740 432 764 q 408 685 413 717 q 404 624 404 654 l 718 624 l 718 415 z "},"Ì":{"ha":451,"x_min":32,"x_max":417,"o":"m 49 1458 q 184 1445 136 1464 q 255 1393 232 1426 q 285 1317 278 1360 q 302 1234 293 1275 q 330 1160 311 1193 q 393 1110 349 1126 l 256 1110 q 208 1133 222 1114 q 189 1178 194 1153 q 179 1230 183 1203 q 163 1278 175 1257 q 125 1308 151 1299 q 49 1310 99 1318 l 49 1458 m 32 0 l 32 1042 l 417 1042 l 417 0 l 32 0 z "},"Í":{"ha":451,"x_min":32,"x_max":417,"o":"m 401 1310 q 324 1308 350 1318 q 287 1278 299 1299 q 271 1230 275 1257 q 261 1178 267 1203 q 241 1133 256 1153 q 194 1110 226 1114 l 57 1110 q 120 1159 101 1125 q 148 1234 139 1193 q 165 1317 157 1275 q 195 1393 172 1360 q 266 1445 218 1426 q 401 1458 314 1464 l 401 1310 m 32 0 l 32 1042 l 417 1042 l 417 0 l 32 0 z "},"Î":{"ha":451,"x_min":-53,"x_max":506,"o":"m -53 1278 q 24 1279 -3 1269 q 62 1310 50 1289 q 78 1358 74 1331 q 88 1410 82 1385 q 108 1454 93 1435 q 154 1478 122 1474 l 299 1478 q 345 1454 331 1474 q 365 1410 360 1435 q 375 1358 371 1385 q 391 1310 379 1331 q 428 1279 403 1289 q 506 1278 454 1269 l 506 1129 q 388 1144 432 1124 q 317 1196 343 1164 q 278 1266 290 1228 q 260 1335 267 1304 q 247 1385 253 1367 q 226 1397 240 1404 q 202 1386 210 1404 q 188 1337 194 1368 q 170 1267 182 1306 q 133 1197 158 1229 q 64 1144 108 1164 q -53 1129 19 1124 l -53 1278 m 32 0 l 32 1042 l 417 1042 l 417 0 l 32 0 z "},"Ï":{"ha":451,"x_min":-7,"x_max":458,"o":"m -7 1328 q 24 1413 -7 1378 q 99 1449 56 1449 q 174 1413 143 1449 q 206 1328 206 1378 q 174 1243 206 1278 q 99 1208 143 1208 q 24 1243 56 1208 q -7 1328 -7 1278 m 246 1328 q 277 1413 246 1378 q 351 1449 308 1449 q 427 1413 396 1449 q 458 1328 458 1378 q 427 1243 458 1278 q 351 1208 396 1208 q 277 1243 308 1208 q 246 1328 246 1278 m 32 0 l 32 1042 l 417 1042 l 417 0 l 32 0 z "},"Ð":{"ha":1086,"x_min":56,"x_max":1058,"o":"m 56 408 l 56 611 l 192 611 l 192 1042 l 654 1042 q 811 1010 738 1042 q 940 923 885 978 q 1026 794 994 868 q 1058 638 1058 721 l 1058 404 q 1026 247 1058 321 q 940 119 994 174 q 811 32 885 64 q 654 0 738 0 l 192 0 l 192 408 l 56 408 m 599 247 q 632 263 618 247 q 656 301 646 278 q 669 356 665 325 q 674 418 674 386 l 674 624 q 669 685 674 654 q 656 740 665 717 q 632 779 646 764 q 599 794 618 794 l 569 794 l 569 611 l 653 611 l 653 408 l 569 408 l 569 247 l 599 247 z "},"Ñ":{"ha":1114,"x_min":11,"x_max":1104,"o":"m 597 1368 q 673 1310 640 1322 q 738 1306 706 1297 q 806 1339 769 1315 q 897 1390 843 1363 l 935 1300 q 891 1269 915 1288 q 838 1235 867 1251 q 776 1207 810 1218 q 701 1197 742 1196 q 615 1215 661 1197 q 517 1275 569 1233 q 433 1331 472 1321 q 361 1331 393 1340 q 306 1300 329 1321 q 271 1264 282 1279 l 179 1321 q 203 1347 186 1328 q 249 1386 221 1365 q 313 1424 276 1407 q 394 1445 350 1442 q 490 1432 439 1449 q 597 1368 540 1415 m 1104 0 l 719 0 l 396 476 l 396 0 l 11 0 l 11 1042 l 396 1042 l 719 567 l 719 1042 l 1104 1042 l 1104 0 z "},"Ò":{"ha":943,"x_min":14,"x_max":929,"o":"m 294 1458 q 430 1445 382 1464 q 501 1393 478 1426 q 531 1317 524 1360 q 548 1234 539 1275 q 576 1160 557 1193 q 639 1110 594 1126 l 501 1110 q 454 1133 468 1114 q 435 1178 440 1153 q 425 1230 429 1203 q 409 1278 421 1257 q 371 1308 397 1299 q 294 1310 344 1318 l 294 1458 m 14 638 q 46 794 14 721 q 133 923 78 868 q 261 1010 188 978 q 418 1042 335 1042 l 525 1042 q 682 1010 608 1042 q 810 923 756 978 q 897 794 865 868 q 929 638 929 721 l 929 404 q 897 247 929 321 q 810 119 865 174 q 682 32 756 64 q 525 0 608 0 l 418 0 q 261 32 335 0 q 133 119 188 64 q 46 247 78 174 q 14 404 14 321 l 14 638 m 551 624 q 547 685 551 654 q 533 740 543 717 q 510 779 524 764 q 476 794 496 794 l 474 794 q 440 779 454 794 q 417 740 426 764 q 403 685 407 717 q 399 624 399 654 l 399 418 q 403 356 399 386 q 417 301 407 325 q 440 263 426 278 q 474 247 454 247 l 476 247 q 510 263 496 247 q 533 301 524 278 q 547 356 543 325 q 551 418 551 386 l 551 624 z "},"Ó":{"ha":943,"x_min":14,"x_max":929,"o":"m 647 1310 q 570 1308 596 1318 q 533 1278 544 1299 q 517 1230 521 1257 q 507 1178 513 1203 q 488 1133 501 1153 q 440 1110 474 1114 l 303 1110 q 366 1159 347 1125 q 394 1234 385 1193 q 410 1317 403 1275 q 441 1393 418 1360 q 511 1445 464 1426 q 647 1458 558 1464 l 647 1310 m 14 638 q 46 794 14 721 q 133 923 78 868 q 261 1010 188 978 q 418 1042 335 1042 l 525 1042 q 682 1010 608 1042 q 810 923 756 978 q 897 794 865 868 q 929 638 929 721 l 929 404 q 897 247 929 321 q 810 119 865 174 q 682 32 756 64 q 525 0 608 0 l 418 0 q 261 32 335 0 q 133 119 188 64 q 46 247 78 174 q 14 404 14 321 l 14 638 m 551 624 q 547 685 551 654 q 533 740 543 717 q 510 779 524 764 q 476 794 496 794 l 474 794 q 440 779 454 794 q 417 740 426 764 q 403 685 407 717 q 399 624 399 654 l 399 418 q 403 356 399 386 q 417 301 407 325 q 440 263 426 278 q 474 247 454 247 l 476 247 q 510 263 496 247 q 533 301 524 278 q 547 356 543 325 q 551 418 551 386 l 551 624 z "},"Ô":{"ha":943,"x_min":14,"x_max":929,"o":"m 192 1278 q 268 1279 242 1269 q 306 1310 294 1289 q 322 1358 318 1331 q 332 1410 326 1385 q 351 1454 338 1435 q 399 1478 365 1474 l 543 1478 q 590 1454 575 1474 q 610 1410 604 1435 q 619 1358 615 1385 q 635 1310 624 1331 q 673 1279 647 1289 q 750 1278 699 1269 l 750 1129 q 632 1144 676 1124 q 561 1196 588 1164 q 523 1266 535 1228 q 504 1335 511 1304 q 491 1385 497 1367 q 471 1397 485 1404 q 447 1386 454 1404 q 433 1337 439 1368 q 415 1267 426 1306 q 378 1197 403 1229 q 308 1144 353 1164 q 192 1129 264 1124 l 192 1278 m 14 638 q 46 794 14 721 q 133 923 78 868 q 261 1010 188 978 q 418 1042 335 1042 l 525 1042 q 682 1010 608 1042 q 810 923 756 978 q 897 794 865 868 q 929 638 929 721 l 929 404 q 897 247 929 321 q 810 119 865 174 q 682 32 756 64 q 525 0 608 0 l 418 0 q 261 32 335 0 q 133 119 188 64 q 46 247 78 174 q 14 404 14 321 l 14 638 m 551 624 q 547 685 551 654 q 533 740 543 717 q 510 779 524 764 q 476 794 496 794 l 474 794 q 440 779 454 794 q 417 740 426 764 q 403 685 407 717 q 399 624 399 654 l 399 418 q 403 356 399 386 q 417 301 407 325 q 440 263 426 278 q 474 247 454 247 l 476 247 q 510 263 496 247 q 533 301 524 278 q 547 356 543 325 q 551 418 551 386 l 551 624 z "},"Õ":{"ha":943,"x_min":14,"x_max":929,"o":"m 511 1368 q 587 1310 554 1322 q 651 1306 619 1297 q 720 1339 683 1315 q 811 1390 757 1363 l 849 1300 q 805 1269 829 1288 q 752 1235 781 1251 q 690 1207 724 1218 q 615 1197 656 1196 q 529 1215 575 1197 q 431 1275 483 1233 q 347 1331 386 1321 q 275 1331 307 1340 q 219 1300 243 1321 q 185 1264 196 1279 l 93 1321 q 117 1347 100 1328 q 163 1386 135 1365 q 227 1424 190 1407 q 308 1445 264 1442 q 403 1432 353 1449 q 511 1368 454 1415 m 14 638 q 46 794 14 721 q 133 923 78 868 q 261 1010 188 978 q 418 1042 335 1042 l 525 1042 q 682 1010 608 1042 q 810 923 756 978 q 897 794 865 868 q 929 638 929 721 l 929 404 q 897 247 929 321 q 810 119 865 174 q 682 32 756 64 q 525 0 608 0 l 418 0 q 261 32 335 0 q 133 119 188 64 q 46 247 78 174 q 14 404 14 321 l 14 638 m 551 624 q 547 685 551 654 q 533 740 543 717 q 510 779 524 764 q 476 794 496 794 l 474 794 q 440 779 454 794 q 417 740 426 764 q 403 685 407 717 q 399 624 399 654 l 399 418 q 403 356 399 386 q 417 301 407 325 q 440 263 426 278 q 474 247 454 247 l 476 247 q 510 263 496 247 q 533 301 524 278 q 547 356 543 325 q 551 418 551 386 l 551 624 z "},"Ö":{"ha":943,"x_min":14,"x_max":929,"o":"m 14 638 q 46 794 14 721 q 133 923 78 868 q 261 1010 188 978 q 418 1042 335 1042 l 525 1042 q 682 1010 608 1042 q 810 923 756 978 q 897 794 865 868 q 929 638 929 721 l 929 404 q 897 247 929 321 q 810 119 865 174 q 682 32 756 64 q 525 0 608 0 l 418 0 q 261 32 335 0 q 133 119 188 64 q 46 247 78 174 q 14 404 14 321 l 14 638 m 551 624 q 547 685 551 654 q 533 740 543 717 q 510 779 524 764 q 476 794 496 794 l 474 794 q 440 779 454 794 q 417 740 426 764 q 403 685 407 717 q 399 624 399 654 l 399 418 q 403 356 399 386 q 417 301 407 325 q 440 263 426 278 q 474 247 454 247 l 476 247 q 510 263 496 247 q 533 301 524 278 q 547 356 543 325 q 551 418 551 386 l 551 624 m 239 1328 q 270 1413 239 1378 q 344 1449 301 1449 q 420 1413 389 1449 q 451 1328 451 1378 q 420 1243 451 1278 q 344 1208 389 1208 q 270 1243 301 1208 q 239 1328 239 1278 m 492 1328 q 523 1413 492 1378 q 597 1449 554 1449 q 673 1413 642 1449 q 704 1328 704 1378 q 673 1243 704 1278 q 597 1208 642 1208 q 523 1243 554 1208 q 492 1328 492 1278 z "},"×":{"ha":760,"x_min":33,"x_max":728,"o":"m 178 42 l 33 186 l 238 389 l 33 592 l 178 736 l 381 532 l 583 736 l 728 592 l 524 389 l 728 186 l 583 42 l 381 246 l 178 42 z "},"Ø":{"ha":943,"x_min":14,"x_max":929,"o":"m 14 638 q 46 794 14 721 q 133 923 78 868 q 261 1010 188 978 q 418 1042 335 1042 l 525 1042 q 690 1006 611 1042 l 738 1088 l 881 1088 l 794 939 q 893 806 857 883 q 929 638 929 728 l 929 404 q 897 247 929 321 q 810 119 865 174 q 682 32 756 64 q 525 0 608 0 l 418 0 q 268 28 339 0 l 228 -42 l 86 -42 l 163 90 q 53 228 93 147 q 14 404 14 308 l 14 638 m 474 794 q 440 779 454 794 q 417 740 426 764 q 403 685 407 717 q 399 624 399 654 l 399 500 l 535 736 q 510 778 525 763 q 476 794 496 794 l 474 794 m 476 247 q 510 263 496 247 q 533 301 524 278 q 547 356 543 325 q 551 418 551 386 l 551 518 l 421 292 q 443 260 431 272 q 474 247 456 247 l 476 247 z "},"Ù":{"ha":953,"x_min":7,"x_max":922,"o":"m 300 1458 q 435 1445 388 1464 q 506 1393 483 1426 q 537 1317 529 1360 q 553 1234 544 1275 q 581 1160 563 1193 q 644 1110 600 1126 l 507 1110 q 460 1133 474 1114 q 440 1178 446 1153 q 431 1230 435 1203 q 415 1278 426 1257 q 376 1308 403 1299 q 300 1310 350 1318 l 300 1458 m 544 1042 l 922 1042 l 922 404 q 890 247 922 321 q 803 119 858 174 q 675 32 749 64 q 518 0 601 0 l 411 0 q 254 32 328 0 q 126 119 181 64 q 39 247 71 174 q 7 404 7 321 l 7 1042 l 392 1042 l 392 540 q 396 478 392 508 q 410 424 400 447 q 433 385 419 400 q 467 369 447 369 l 469 369 q 503 385 489 369 q 526 424 517 400 q 540 478 536 447 q 544 540 544 508 l 544 1042 z "},"Ú":{"ha":953,"x_min":7,"x_max":922,"o":"m 653 1311 q 576 1310 601 1319 q 538 1279 550 1300 q 522 1231 526 1258 q 513 1179 518 1204 q 492 1135 507 1154 q 446 1111 478 1115 l 308 1111 q 372 1160 353 1126 q 399 1235 390 1194 q 416 1319 408 1276 q 447 1394 424 1361 q 517 1447 469 1428 q 653 1460 565 1465 l 653 1311 m 544 1042 l 922 1042 l 922 404 q 890 247 922 321 q 803 119 858 174 q 675 32 749 64 q 518 0 601 0 l 411 0 q 254 32 328 0 q 126 119 181 64 q 39 247 71 174 q 7 404 7 321 l 7 1042 l 392 1042 l 392 540 q 396 478 392 508 q 410 424 400 447 q 433 385 419 400 q 467 369 447 369 l 469 369 q 503 385 489 369 q 526 424 517 400 q 540 478 536 447 q 544 540 544 508 l 544 1042 z "},"Û":{"ha":953,"x_min":7,"x_max":922,"o":"m 197 1278 q 274 1279 247 1269 q 312 1310 300 1289 q 328 1358 324 1331 q 338 1410 332 1385 q 357 1454 343 1435 q 404 1478 371 1474 l 549 1478 q 595 1454 581 1474 q 615 1410 610 1435 q 625 1358 621 1385 q 641 1310 629 1331 q 679 1279 653 1289 q 756 1278 706 1269 l 756 1129 q 638 1144 682 1124 q 567 1196 593 1164 q 528 1266 540 1228 q 510 1335 517 1304 q 497 1385 503 1367 q 476 1397 490 1404 q 452 1386 460 1404 q 438 1337 444 1368 q 420 1267 432 1306 q 383 1197 408 1229 q 314 1144 358 1164 q 197 1129 269 1124 l 197 1278 m 544 1042 l 922 1042 l 922 404 q 890 247 922 321 q 803 119 858 174 q 675 32 749 64 q 518 0 601 0 l 411 0 q 254 32 328 0 q 126 119 181 64 q 39 247 71 174 q 7 404 7 321 l 7 1042 l 392 1042 l 392 540 q 396 478 392 508 q 410 424 400 447 q 433 385 419 400 q 467 369 447 369 l 469 369 q 503 385 489 369 q 526 424 517 400 q 540 478 536 447 q 544 540 544 508 l 544 1042 z "},"Ü":{"ha":953,"x_min":7,"x_max":922,"o":"m 243 1328 q 274 1413 243 1378 q 349 1449 306 1449 q 424 1413 393 1449 q 456 1328 456 1378 q 424 1243 456 1278 q 349 1208 393 1208 q 274 1243 306 1208 q 243 1328 243 1278 m 496 1328 q 527 1413 496 1378 q 601 1449 558 1449 q 677 1413 646 1449 q 708 1328 708 1378 q 677 1243 708 1278 q 601 1208 646 1208 q 527 1243 558 1208 q 496 1328 496 1278 m 544 1042 l 922 1042 l 922 404 q 890 247 922 321 q 803 119 858 174 q 675 32 749 64 q 518 0 601 0 l 411 0 q 254 32 328 0 q 126 119 181 64 q 39 247 71 174 q 7 404 7 321 l 7 1042 l 392 1042 l 392 540 q 396 478 392 508 q 410 424 400 447 q 433 385 419 400 q 467 369 447 369 l 469 369 q 503 385 489 369 q 526 424 517 400 q 540 478 536 447 q 544 540 544 508 l 544 1042 z "},"Ý":{"ha":947,"x_min":18,"x_max":933,"o":"m 650 1310 q 573 1308 599 1318 q 535 1278 547 1299 q 519 1230 524 1257 q 510 1178 515 1203 q 490 1133 504 1153 q 443 1110 475 1114 l 306 1110 q 369 1159 350 1125 q 397 1234 388 1193 q 413 1317 406 1275 q 444 1393 421 1360 q 514 1445 467 1426 q 650 1458 561 1464 l 650 1310 m 556 1042 l 933 1042 l 933 585 q 914 460 933 519 q 859 351 894 400 q 775 264 824 301 q 668 206 726 226 l 668 0 l 283 0 l 283 206 q 176 264 225 226 q 92 351 128 301 q 38 460 57 400 q 18 585 18 519 l 18 1042 l 403 1042 l 403 599 q 407 536 403 567 q 421 482 411 506 q 444 443 431 458 q 478 428 458 428 l 481 428 q 514 443 500 428 q 538 482 528 458 q 551 536 547 506 q 556 599 556 567 l 556 1042 z "},"Þ":{"ha":844,"x_min":51,"x_max":821,"o":"m 51 0 l 51 1040 l 325 1040 l 325 849 l 443 849 q 591 822 522 849 q 710 750 660 796 q 791 642 761 704 q 821 506 821 579 l 821 481 q 791 347 821 407 q 710 242 761 286 q 591 174 660 199 q 443 150 522 150 l 325 150 l 325 0 l 51 0 m 394 643 q 365 631 378 643 q 344 601 353 619 q 331 558 336 582 q 325 508 326 533 l 325 343 l 397 343 q 428 356 415 343 q 451 390 442 369 q 464 438 460 411 q 468 493 468 465 q 464 548 468 521 q 451 596 460 575 q 428 630 442 617 q 397 643 415 643 l 394 643 z "},"ß":{"ha":879,"x_min":42,"x_max":858,"o":"m 379 -14 l 379 244 l 457 244 q 501 249 479 244 q 539 263 522 254 q 566 281 556 271 q 576 303 576 292 q 544 344 567 329 q 494 366 522 358 q 438 376 467 374 q 388 378 410 378 l 354 378 l 354 665 q 400 671 376 667 q 443 680 424 675 q 476 692 463 685 q 489 708 489 700 l 489 738 q 478 757 489 749 q 451 771 468 765 q 413 779 435 776 q 369 782 392 782 l 301 782 l 301 0 l 42 0 l 42 1042 l 435 1040 q 544 1022 493 1040 q 633 969 596 1003 q 693 892 671 936 q 715 799 715 849 l 646 647 q 642 607 646 625 q 713 569 675 592 q 783 519 750 547 q 837 460 815 492 q 858 394 858 429 l 858 228 q 836 134 858 178 q 776 57 814 90 q 688 5 739 24 q 578 -14 636 -14 l 379 -14 z "},"à":{"ha":963,"x_min":14,"x_max":929,"o":"m 304 1458 q 440 1445 392 1464 q 510 1393 488 1426 q 541 1317 533 1360 q 558 1234 549 1275 q 585 1160 567 1193 q 649 1110 604 1126 l 511 1110 q 464 1133 478 1114 q 444 1178 450 1153 q 435 1230 439 1203 q 419 1278 431 1257 q 381 1308 407 1299 q 304 1310 354 1318 l 304 1458 m 551 204 l 399 204 l 399 0 l 14 0 l 14 638 q 46 794 14 721 q 133 923 78 868 q 261 1010 188 978 q 418 1042 335 1042 l 525 1042 q 682 1010 608 1042 q 810 923 756 978 q 897 794 865 868 q 929 638 929 721 l 929 0 l 551 0 l 551 204 m 399 453 l 551 453 l 551 624 q 547 685 551 654 q 533 740 543 717 q 510 779 524 764 q 476 794 496 794 l 474 794 q 440 779 454 794 q 417 740 426 764 q 403 685 407 717 q 399 624 399 654 l 399 453 z "},"á":{"ha":963,"x_min":14,"x_max":929,"o":"m 657 1310 q 580 1308 606 1318 q 542 1278 554 1299 q 526 1230 531 1257 q 517 1178 522 1203 q 497 1133 511 1153 q 450 1110 482 1114 l 313 1110 q 376 1159 357 1125 q 403 1234 394 1193 q 420 1317 413 1275 q 451 1393 428 1360 q 521 1445 474 1426 q 657 1458 568 1464 l 657 1310 m 551 204 l 399 204 l 399 0 l 14 0 l 14 638 q 46 794 14 721 q 133 923 78 868 q 261 1010 188 978 q 418 1042 335 1042 l 525 1042 q 682 1010 608 1042 q 810 923 756 978 q 897 794 865 868 q 929 638 929 721 l 929 0 l 551 0 l 551 204 m 399 453 l 551 453 l 551 624 q 547 685 551 654 q 533 740 543 717 q 510 779 524 764 q 476 794 496 794 l 474 794 q 440 779 454 794 q 417 740 426 764 q 403 685 407 717 q 399 624 399 654 l 399 453 z "},"â":{"ha":963,"x_min":14,"x_max":929,"o":"m 201 1278 q 278 1279 251 1269 q 316 1310 304 1289 q 332 1358 328 1331 q 342 1410 336 1385 q 361 1454 347 1435 q 408 1478 375 1474 l 553 1478 q 599 1454 585 1474 q 619 1410 614 1435 q 629 1358 625 1385 q 645 1310 633 1331 q 683 1279 657 1289 q 760 1278 708 1269 l 760 1129 q 642 1144 686 1124 q 571 1196 597 1164 q 533 1266 544 1228 q 514 1335 521 1304 q 501 1385 507 1367 q 481 1397 494 1404 q 456 1386 464 1404 q 442 1337 449 1368 q 424 1267 436 1306 q 388 1197 413 1229 q 318 1144 363 1164 q 201 1129 274 1124 l 201 1278 m 551 204 l 399 204 l 399 0 l 14 0 l 14 638 q 46 794 14 721 q 133 923 78 868 q 261 1010 188 978 q 418 1042 335 1042 l 525 1042 q 682 1010 608 1042 q 810 923 756 978 q 897 794 865 868 q 929 638 929 721 l 929 0 l 551 0 l 551 204 m 399 453 l 551 453 l 551 624 q 547 685 551 654 q 533 740 543 717 q 510 779 524 764 q 476 794 496 794 l 474 794 q 440 779 454 794 q 417 740 426 764 q 403 685 407 717 q 399 624 399 654 l 399 453 z "},"ã":{"ha":963,"x_min":14,"x_max":929,"o":"m 521 1368 q 597 1310 564 1322 q 661 1306 629 1297 q 730 1339 693 1315 q 821 1390 767 1363 l 858 1300 q 815 1269 839 1288 q 762 1235 790 1251 q 699 1207 733 1218 q 625 1197 665 1196 q 539 1215 585 1197 q 440 1275 493 1233 q 356 1331 396 1321 q 285 1331 317 1340 q 229 1300 253 1321 q 194 1264 206 1279 l 103 1321 q 127 1347 110 1328 q 172 1386 144 1365 q 237 1424 200 1407 q 318 1445 274 1442 q 413 1432 363 1449 q 521 1368 464 1415 m 551 204 l 399 204 l 399 0 l 14 0 l 14 638 q 46 794 14 721 q 133 923 78 868 q 261 1010 188 978 q 418 1042 335 1042 l 525 1042 q 682 1010 608 1042 q 810 923 756 978 q 897 794 865 868 q 929 638 929 721 l 929 0 l 551 0 l 551 204 m 399 453 l 551 453 l 551 624 q 547 685 551 654 q 533 740 543 717 q 510 779 524 764 q 476 794 496 794 l 474 794 q 440 779 454 794 q 417 740 426 764 q 403 685 407 717 q 399 624 399 654 l 399 453 z "},"ä":{"ha":963,"x_min":14,"x_max":929,"o":"m 249 1328 q 280 1413 249 1378 q 354 1449 311 1449 q 430 1413 399 1449 q 461 1328 461 1378 q 430 1243 461 1278 q 354 1208 399 1208 q 280 1243 311 1208 q 249 1328 249 1278 m 501 1328 q 533 1413 501 1378 q 607 1449 564 1449 q 683 1413 651 1449 q 714 1328 714 1378 q 683 1243 714 1278 q 607 1208 651 1208 q 533 1243 564 1208 q 501 1328 501 1278 m 551 204 l 399 204 l 399 0 l 14 0 l 14 638 q 46 794 14 721 q 133 923 78 868 q 261 1010 188 978 q 418 1042 335 1042 l 525 1042 q 682 1010 608 1042 q 810 923 756 978 q 897 794 865 868 q 929 638 929 721 l 929 0 l 551 0 l 551 204 m 399 453 l 551 453 l 551 624 q 547 685 551 654 q 533 740 543 717 q 510 779 524 764 q 476 794 496 794 l 474 794 q 440 779 454 794 q 417 740 426 764 q 403 685 407 717 q 399 624 399 654 l 399 453 z "},"å":{"ha":963,"x_min":14,"x_max":929,"o":"m 208 1178 q 228 1269 208 1226 q 281 1342 247 1311 q 360 1392 314 1374 q 458 1410 406 1410 q 557 1392 511 1410 q 637 1342 603 1374 q 690 1269 671 1311 q 710 1178 710 1226 q 693 1094 710 1133 q 646 1022 676 1054 q 759 966 707 1003 q 849 878 811 929 q 908 767 886 828 q 929 638 929 706 l 929 0 l 551 0 l 551 204 l 399 204 l 399 0 l 14 0 l 14 638 q 33 762 14 703 q 88 871 53 821 q 170 958 122 921 q 276 1017 218 996 q 226 1088 244 1047 q 208 1178 208 1129 m 399 453 l 551 453 l 551 624 q 547 685 551 654 q 533 740 543 717 q 510 779 524 764 q 476 794 496 794 l 474 794 q 440 779 454 794 q 417 740 426 764 q 403 685 407 717 q 399 624 399 654 l 399 453 m 417 1178 q 428 1108 417 1135 q 458 1081 439 1081 q 490 1108 478 1081 q 501 1178 501 1135 q 490 1247 501 1218 q 458 1275 478 1275 q 428 1247 439 1275 q 417 1178 417 1218 z "},"æ":{"ha":1490,"x_min":14,"x_max":1440,"o":"m 1232 415 l 918 415 q 922 353 918 383 q 936 299 926 322 q 960 260 946 275 q 993 244 974 244 l 996 244 q 1035 267 1019 244 q 1060 324 1051 289 l 1440 324 q 1391 194 1426 254 q 1303 92 1356 135 q 1184 24 1250 49 q 1044 0 1118 0 l 938 0 q 729 56 822 0 q 585 204 636 111 l 399 204 l 399 0 l 14 0 l 14 638 q 46 794 14 721 q 133 923 78 868 q 261 1010 188 978 q 418 1042 335 1042 l 1044 1042 q 1184 1017 1118 1042 q 1303 948 1250 992 q 1391 844 1356 904 q 1440 715 1426 785 l 1060 715 q 1035 772 1051 750 q 996 794 1019 794 l 993 794 q 960 779 974 794 q 936 740 946 764 q 922 685 926 717 q 918 624 918 654 l 1232 624 l 1232 415 m 399 453 l 533 453 l 533 638 q 565 794 533 719 l 474 794 q 440 779 454 794 q 417 740 426 764 q 403 685 407 717 q 399 624 399 654 l 399 453 z "},"ç":{"ha":981,"x_min":42,"x_max":957,"o":"m 411 -269 q 483 -245 461 -260 q 510 -214 506 -231 q 505 -178 514 -197 q 482 -140 496 -158 q 455 -103 468 -121 q 438 -69 442 -85 l 438 0 q 283 34 356 1 q 158 121 211 67 q 73 248 104 175 q 42 404 42 321 l 42 638 q 74 794 42 721 q 160 923 106 868 q 289 1010 215 978 q 446 1042 363 1042 l 553 1042 q 710 1010 636 1042 q 838 923 783 978 q 925 794 893 868 q 957 638 957 721 l 957 624 l 579 624 q 575 685 579 654 q 561 740 571 717 q 538 779 551 764 q 504 794 524 794 l 501 794 q 468 779 482 794 q 444 740 454 764 q 431 685 435 717 q 426 624 426 654 l 426 418 q 431 356 426 386 q 444 301 435 325 q 468 263 454 278 q 501 247 482 247 l 504 247 q 538 263 524 247 q 561 301 551 278 q 575 356 571 325 q 579 418 579 386 l 957 418 l 957 404 q 927 251 957 322 q 846 125 897 179 q 724 38 794 71 q 575 0 654 4 l 575 -69 q 628 -116 600 -87 q 673 -178 656 -144 q 693 -249 690 -212 q 669 -318 696 -285 q 581 -378 642 -351 q 411 -418 519 -404 l 411 -269 z "},"è":{"ha":947,"x_min":19,"x_max":926,"o":"m 297 1458 q 433 1445 385 1464 q 503 1393 481 1426 q 534 1317 526 1360 q 551 1234 542 1275 q 578 1160 560 1193 q 642 1110 597 1126 l 504 1110 q 457 1133 471 1114 q 438 1178 443 1153 q 428 1230 432 1203 q 412 1278 424 1257 q 374 1308 400 1299 q 297 1310 347 1318 l 297 1458 m 718 415 l 404 415 q 408 353 404 383 q 422 299 413 322 q 446 260 432 275 q 479 244 460 244 l 482 244 q 522 267 506 244 q 546 324 538 289 l 926 324 q 877 194 913 254 q 789 92 842 135 q 670 24 736 49 q 531 0 604 0 l 424 0 q 267 31 340 0 q 138 117 193 63 q 51 244 83 171 q 19 401 19 318 l 19 638 q 51 794 19 721 q 138 923 83 868 q 267 1010 193 978 q 424 1042 340 1042 l 531 1042 q 670 1017 604 1042 q 789 948 736 992 q 877 844 842 904 q 926 715 913 785 l 546 715 q 522 772 538 750 q 482 794 506 794 l 479 794 q 446 779 460 794 q 422 740 432 764 q 408 685 413 717 q 404 624 404 654 l 718 624 l 718 415 z "},"é":{"ha":947,"x_min":19,"x_max":926,"o":"m 650 1310 q 573 1308 599 1318 q 535 1278 547 1299 q 519 1230 524 1257 q 510 1178 515 1203 q 490 1133 504 1153 q 443 1110 475 1114 l 306 1110 q 369 1159 350 1125 q 397 1234 388 1193 q 413 1317 406 1275 q 444 1393 421 1360 q 514 1445 467 1426 q 650 1458 561 1464 l 650 1310 m 718 415 l 404 415 q 408 353 404 383 q 422 299 413 322 q 446 260 432 275 q 479 244 460 244 l 482 244 q 522 267 506 244 q 546 324 538 289 l 926 324 q 877 194 913 254 q 789 92 842 135 q 670 24 736 49 q 531 0 604 0 l 424 0 q 267 31 340 0 q 138 117 193 63 q 51 244 83 171 q 19 401 19 318 l 19 638 q 51 794 19 721 q 138 923 83 868 q 267 1010 193 978 q 424 1042 340 1042 l 531 1042 q 670 1017 604 1042 q 789 948 736 992 q 877 844 842 904 q 926 715 913 785 l 546 715 q 522 772 538 750 q 482 794 506 794 l 479 794 q 446 779 460 794 q 422 740 432 764 q 408 685 413 717 q 404 624 404 654 l 718 624 l 718 415 z "},"ê":{"ha":947,"x_min":19,"x_max":926,"o":"m 194 1278 q 271 1279 244 1269 q 309 1310 297 1289 q 325 1358 321 1331 q 335 1410 329 1385 q 354 1454 340 1435 q 401 1478 368 1474 l 546 1478 q 592 1454 578 1474 q 613 1410 607 1435 q 622 1358 618 1385 q 638 1310 626 1331 q 676 1279 650 1289 q 753 1278 701 1269 l 753 1129 q 635 1144 679 1124 q 564 1196 590 1164 q 526 1266 538 1228 q 507 1335 514 1304 q 494 1385 500 1367 q 474 1397 489 1404 q 449 1386 457 1404 q 435 1337 442 1368 q 417 1267 429 1306 q 381 1197 406 1229 q 311 1144 356 1164 q 194 1129 267 1124 l 194 1278 m 718 415 l 404 415 q 408 353 404 383 q 422 299 413 322 q 446 260 432 275 q 479 244 460 244 l 482 244 q 522 267 506 244 q 546 324 538 289 l 926 324 q 877 194 913 254 q 789 92 842 135 q 670 24 736 49 q 531 0 604 0 l 424 0 q 267 31 340 0 q 138 117 193 63 q 51 244 83 171 q 19 401 19 318 l 19 638 q 51 794 19 721 q 138 923 83 868 q 267 1010 193 978 q 424 1042 340 1042 l 531 1042 q 670 1017 604 1042 q 789 948 736 992 q 877 844 842 904 q 926 715 913 785 l 546 715 q 522 772 538 750 q 482 794 506 794 l 479 794 q 446 779 460 794 q 422 740 432 764 q 408 685 413 717 q 404 624 404 654 l 718 624 l 718 415 z "},"ë":{"ha":947,"x_min":19,"x_max":926,"o":"m 240 1328 q 272 1413 240 1378 q 346 1449 303 1449 q 422 1413 390 1449 q 453 1328 453 1378 q 422 1243 453 1278 q 346 1208 390 1208 q 272 1243 303 1208 q 240 1328 240 1278 m 493 1328 q 524 1413 493 1378 q 599 1449 556 1449 q 674 1413 643 1449 q 706 1328 706 1378 q 674 1243 706 1278 q 599 1208 643 1208 q 524 1243 556 1208 q 493 1328 493 1278 m 718 415 l 404 415 q 408 353 404 383 q 422 299 413 322 q 446 260 432 275 q 479 244 460 244 l 482 244 q 522 267 506 244 q 546 324 538 289 l 926 324 q 877 194 913 254 q 789 92 842 135 q 670 24 736 49 q 531 0 604 0 l 424 0 q 267 31 340 0 q 138 117 193 63 q 51 244 83 171 q 19 401 19 318 l 19 638 q 51 794 19 721 q 138 923 83 868 q 267 1010 193 978 q 424 1042 340 1042 l 531 1042 q 670 1017 604 1042 q 789 948 736 992 q 877 844 842 904 q 926 715 913 785 l 546 715 q 522 772 538 750 q 482 794 506 794 l 479 794 q 446 779 460 794 q 422 740 432 764 q 408 685 413 717 q 404 624 404 654 l 718 624 l 718 415 z "},"ì":{"ha":451,"x_min":32,"x_max":417,"o":"m 49 1458 q 184 1445 136 1464 q 255 1393 232 1426 q 285 1317 278 1360 q 302 1234 293 1275 q 330 1160 311 1193 q 393 1110 349 1126 l 256 1110 q 208 1133 222 1114 q 189 1178 194 1153 q 179 1230 183 1203 q 163 1278 175 1257 q 125 1308 151 1299 q 49 1310 99 1318 l 49 1458 m 32 0 l 32 1042 l 417 1042 l 417 0 l 32 0 z "},"í":{"ha":451,"x_min":32,"x_max":417,"o":"m 401 1310 q 324 1308 350 1318 q 287 1278 299 1299 q 271 1230 275 1257 q 261 1178 267 1203 q 241 1133 256 1153 q 194 1110 226 1114 l 57 1110 q 120 1159 101 1125 q 148 1234 139 1193 q 165 1317 157 1275 q 195 1393 172 1360 q 266 1445 218 1426 q 401 1458 314 1464 l 401 1310 m 32 0 l 32 1042 l 417 1042 l 417 0 l 32 0 z "},"î":{"ha":451,"x_min":-53,"x_max":506,"o":"m -53 1278 q 24 1279 -3 1269 q 62 1310 50 1289 q 78 1358 74 1331 q 88 1410 82 1385 q 108 1454 93 1435 q 154 1478 122 1474 l 299 1478 q 345 1454 331 1474 q 365 1410 360 1435 q 375 1358 371 1385 q 391 1310 379 1331 q 428 1279 403 1289 q 506 1278 454 1269 l 506 1129 q 388 1144 432 1124 q 317 1196 343 1164 q 278 1266 290 1228 q 260 1335 267 1304 q 247 1385 253 1367 q 226 1397 240 1404 q 202 1386 210 1404 q 188 1337 194 1368 q 170 1267 182 1306 q 133 1197 158 1229 q 64 1144 108 1164 q -53 1129 19 1124 l -53 1278 m 32 0 l 32 1042 l 417 1042 l 417 0 l 32 0 z "},"ï":{"ha":451,"x_min":-7,"x_max":458,"o":"m -7 1328 q 24 1413 -7 1378 q 99 1449 56 1449 q 174 1413 143 1449 q 206 1328 206 1378 q 174 1243 206 1278 q 99 1208 143 1208 q 24 1243 56 1208 q -7 1328 -7 1278 m 246 1328 q 277 1413 246 1378 q 351 1449 308 1449 q 427 1413 396 1449 q 458 1328 458 1378 q 427 1243 458 1278 q 351 1208 396 1208 q 277 1243 308 1208 q 246 1328 246 1278 m 32 0 l 32 1042 l 417 1042 l 417 0 l 32 0 z "},"ð":{"ha":707,"x_min":13,"x_max":669,"o":"m 368 757 l 235 757 l 169 675 l 75 790 l 208 954 l 75 1117 l 169 1232 l 235 1150 l 368 1150 l 433 1232 l 528 1117 l 408 971 q 535 939 485 967 q 616 863 586 911 q 658 749 646 815 q 669 601 669 682 l 669 244 q 657 150 669 194 q 613 72 644 106 q 526 19 581 39 q 390 0 472 0 l 286 0 q 151 19 204 0 q 67 72 97 39 q 24 150 36 106 q 13 244 13 194 l 13 375 q 24 469 13 425 q 67 547 36 514 q 151 600 97 581 q 286 619 204 619 l 417 619 l 417 664 q 416 681 417 672 q 415 697 415 689 l 368 757 m 403 332 q 401 369 403 350 q 392 402 399 388 q 373 426 385 417 q 343 435 361 435 l 340 435 q 310 426 321 435 q 292 402 299 417 q 283 369 285 388 q 281 332 281 350 l 281 276 q 283 239 281 257 q 292 206 285 221 q 310 183 299 192 q 340 174 321 174 l 343 174 q 373 183 361 174 q 392 206 385 192 q 401 239 399 221 q 403 276 403 257 l 403 332 z "},"ñ":{"ha":1114,"x_min":11,"x_max":1104,"o":"m 597 1368 q 673 1310 640 1322 q 738 1306 706 1297 q 806 1339 769 1315 q 897 1390 843 1363 l 935 1300 q 891 1269 915 1288 q 838 1235 867 1251 q 776 1207 810 1218 q 701 1197 742 1196 q 615 1215 661 1197 q 517 1275 569 1233 q 433 1331 472 1321 q 361 1331 393 1340 q 306 1300 329 1321 q 271 1264 282 1279 l 179 1321 q 203 1347 186 1328 q 249 1386 221 1365 q 313 1424 276 1407 q 394 1445 350 1442 q 490 1432 439 1449 q 597 1368 540 1415 m 1104 0 l 719 0 l 396 476 l 396 0 l 11 0 l 11 1042 l 396 1042 l 719 567 l 719 1042 l 1104 1042 l 1104 0 z "},"ò":{"ha":943,"x_min":14,"x_max":929,"o":"m 294 1458 q 430 1445 382 1464 q 501 1393 478 1426 q 531 1317 524 1360 q 548 1234 539 1275 q 576 1160 557 1193 q 639 1110 594 1126 l 501 1110 q 454 1133 468 1114 q 435 1178 440 1153 q 425 1230 429 1203 q 409 1278 421 1257 q 371 1308 397 1299 q 294 1310 344 1318 l 294 1458 m 14 638 q 46 794 14 721 q 133 923 78 868 q 261 1010 188 978 q 418 1042 335 1042 l 525 1042 q 682 1010 608 1042 q 810 923 756 978 q 897 794 865 868 q 929 638 929 721 l 929 404 q 897 247 929 321 q 810 119 865 174 q 682 32 756 64 q 525 0 608 0 l 418 0 q 261 32 335 0 q 133 119 188 64 q 46 247 78 174 q 14 404 14 321 l 14 638 m 551 624 q 547 685 551 654 q 533 740 543 717 q 510 779 524 764 q 476 794 496 794 l 474 794 q 440 779 454 794 q 417 740 426 764 q 403 685 407 717 q 399 624 399 654 l 399 418 q 403 356 399 386 q 417 301 407 325 q 440 263 426 278 q 474 247 454 247 l 476 247 q 510 263 496 247 q 533 301 524 278 q 547 356 543 325 q 551 418 551 386 l 551 624 z "},"ó":{"ha":943,"x_min":14,"x_max":929,"o":"m 647 1310 q 570 1308 596 1318 q 533 1278 544 1299 q 517 1230 521 1257 q 507 1178 513 1203 q 488 1133 501 1153 q 440 1110 474 1114 l 303 1110 q 366 1159 347 1125 q 394 1234 385 1193 q 410 1317 403 1275 q 441 1393 418 1360 q 511 1445 464 1426 q 647 1458 558 1464 l 647 1310 m 14 638 q 46 794 14 721 q 133 923 78 868 q 261 1010 188 978 q 418 1042 335 1042 l 525 1042 q 682 1010 608 1042 q 810 923 756 978 q 897 794 865 868 q 929 638 929 721 l 929 404 q 897 247 929 321 q 810 119 865 174 q 682 32 756 64 q 525 0 608 0 l 418 0 q 261 32 335 0 q 133 119 188 64 q 46 247 78 174 q 14 404 14 321 l 14 638 m 551 624 q 547 685 551 654 q 533 740 543 717 q 510 779 524 764 q 476 794 496 794 l 474 794 q 440 779 454 794 q 417 740 426 764 q 403 685 407 717 q 399 624 399 654 l 399 418 q 403 356 399 386 q 417 301 407 325 q 440 263 426 278 q 474 247 454 247 l 476 247 q 510 263 496 247 q 533 301 524 278 q 547 356 543 325 q 551 418 551 386 l 551 624 z "},"ô":{"ha":943,"x_min":14,"x_max":929,"o":"m 192 1278 q 268 1279 242 1269 q 306 1310 294 1289 q 322 1358 318 1331 q 332 1410 326 1385 q 351 1454 338 1435 q 399 1478 365 1474 l 543 1478 q 590 1454 575 1474 q 610 1410 604 1435 q 619 1358 615 1385 q 635 1310 624 1331 q 673 1279 647 1289 q 750 1278 699 1269 l 750 1129 q 632 1144 676 1124 q 561 1196 588 1164 q 523 1266 535 1228 q 504 1335 511 1304 q 491 1385 497 1367 q 471 1397 485 1404 q 447 1386 454 1404 q 433 1337 439 1368 q 415 1267 426 1306 q 378 1197 403 1229 q 308 1144 353 1164 q 192 1129 264 1124 l 192 1278 m 14 638 q 46 794 14 721 q 133 923 78 868 q 261 1010 188 978 q 418 1042 335 1042 l 525 1042 q 682 1010 608 1042 q 810 923 756 978 q 897 794 865 868 q 929 638 929 721 l 929 404 q 897 247 929 321 q 810 119 865 174 q 682 32 756 64 q 525 0 608 0 l 418 0 q 261 32 335 0 q 133 119 188 64 q 46 247 78 174 q 14 404 14 321 l 14 638 m 551 624 q 547 685 551 654 q 533 740 543 717 q 510 779 524 764 q 476 794 496 794 l 474 794 q 440 779 454 794 q 417 740 426 764 q 403 685 407 717 q 399 624 399 654 l 399 418 q 403 356 399 386 q 417 301 407 325 q 440 263 426 278 q 474 247 454 247 l 476 247 q 510 263 496 247 q 533 301 524 278 q 547 356 543 325 q 551 418 551 386 l 551 624 z "},"õ":{"ha":943,"x_min":14,"x_max":929,"o":"m 511 1368 q 587 1310 554 1322 q 651 1306 619 1297 q 720 1339 683 1315 q 811 1390 757 1363 l 849 1300 q 805 1269 829 1288 q 752 1235 781 1251 q 690 1207 724 1218 q 615 1197 656 1196 q 529 1215 575 1197 q 431 1275 483 1233 q 347 1331 386 1321 q 275 1331 307 1340 q 219 1300 243 1321 q 185 1264 196 1279 l 93 1321 q 117 1347 100 1328 q 163 1386 135 1365 q 227 1424 190 1407 q 308 1445 264 1442 q 403 1432 353 1449 q 511 1368 454 1415 m 14 638 q 46 794 14 721 q 133 923 78 868 q 261 1010 188 978 q 418 1042 335 1042 l 525 1042 q 682 1010 608 1042 q 810 923 756 978 q 897 794 865 868 q 929 638 929 721 l 929 404 q 897 247 929 321 q 810 119 865 174 q 682 32 756 64 q 525 0 608 0 l 418 0 q 261 32 335 0 q 133 119 188 64 q 46 247 78 174 q 14 404 14 321 l 14 638 m 551 624 q 547 685 551 654 q 533 740 543 717 q 510 779 524 764 q 476 794 496 794 l 474 794 q 440 779 454 794 q 417 740 426 764 q 403 685 407 717 q 399 624 399 654 l 399 418 q 403 356 399 386 q 417 301 407 325 q 440 263 426 278 q 474 247 454 247 l 476 247 q 510 263 496 247 q 533 301 524 278 q 547 356 543 325 q 551 418 551 386 l 551 624 z "},"ö":{"ha":943,"x_min":14,"x_max":929,"o":"m 14 638 q 46 794 14 721 q 133 923 78 868 q 261 1010 188 978 q 418 1042 335 1042 l 525 1042 q 682 1010 608 1042 q 810 923 756 978 q 897 794 865 868 q 929 638 929 721 l 929 404 q 897 247 929 321 q 810 119 865 174 q 682 32 756 64 q 525 0 608 0 l 418 0 q 261 32 335 0 q 133 119 188 64 q 46 247 78 174 q 14 404 14 321 l 14 638 m 551 624 q 547 685 551 654 q 533 740 543 717 q 510 779 524 764 q 476 794 496 794 l 474 794 q 440 779 454 794 q 417 740 426 764 q 403 685 407 717 q 399 624 399 654 l 399 418 q 403 356 399 386 q 417 301 407 325 q 440 263 426 278 q 474 247 454 247 l 476 247 q 510 263 496 247 q 533 301 524 278 q 547 356 543 325 q 551 418 551 386 l 551 624 m 239 1328 q 270 1413 239 1378 q 344 1449 301 1449 q 420 1413 389 1449 q 451 1328 451 1378 q 420 1243 451 1278 q 344 1208 389 1208 q 270 1243 301 1208 q 239 1328 239 1278 m 492 1328 q 523 1413 492 1378 q 597 1449 554 1449 q 673 1413 642 1449 q 704 1328 704 1378 q 673 1243 704 1278 q 597 1208 642 1208 q 523 1243 554 1208 q 492 1328 492 1278 z "},"÷":{"ha":833,"x_min":24,"x_max":801,"o":"m 296 119 q 327 205 296 169 q 401 240 358 240 q 477 205 446 240 q 508 119 508 169 q 477 35 508 69 q 401 0 446 0 q 327 35 358 0 q 296 119 296 69 m 310 675 q 341 760 310 725 q 415 796 372 796 q 491 760 460 796 q 522 675 522 725 q 491 590 522 625 q 415 556 460 556 q 341 590 372 556 q 310 675 310 625 m 24 300 l 24 503 l 801 503 l 801 300 l 24 300 z "},"ø":{"ha":943,"x_min":14,"x_max":929,"o":"m 14 638 q 46 794 14 721 q 133 923 78 868 q 261 1010 188 978 q 418 1042 335 1042 l 525 1042 q 690 1006 611 1042 l 738 1088 l 881 1088 l 794 939 q 893 806 857 883 q 929 638 929 728 l 929 404 q 897 247 929 321 q 810 119 865 174 q 682 32 756 64 q 525 0 608 0 l 418 0 q 268 28 339 0 l 228 -42 l 86 -42 l 163 90 q 53 228 93 147 q 14 404 14 308 l 14 638 m 474 794 q 440 779 454 794 q 417 740 426 764 q 403 685 407 717 q 399 624 399 654 l 399 500 l 535 736 q 510 778 525 763 q 476 794 496 794 l 474 794 m 476 247 q 510 263 496 247 q 533 301 524 278 q 547 356 543 325 q 551 418 551 386 l 551 518 l 421 292 q 443 260 431 272 q 474 247 456 247 l 476 247 z "},"ù":{"ha":953,"x_min":7,"x_max":922,"o":"m 300 1458 q 435 1445 388 1464 q 506 1393 483 1426 q 537 1317 529 1360 q 553 1234 544 1275 q 581 1160 563 1193 q 644 1110 600 1126 l 507 1110 q 460 1133 474 1114 q 440 1178 446 1153 q 431 1230 435 1203 q 415 1278 426 1257 q 376 1308 403 1299 q 300 1310 350 1318 l 300 1458 m 544 1042 l 922 1042 l 922 404 q 890 247 922 321 q 803 119 858 174 q 675 32 749 64 q 518 0 601 0 l 411 0 q 254 32 328 0 q 126 119 181 64 q 39 247 71 174 q 7 404 7 321 l 7 1042 l 392 1042 l 392 540 q 396 478 392 508 q 410 424 400 447 q 433 385 419 400 q 467 369 447 369 l 469 369 q 503 385 489 369 q 526 424 517 400 q 540 478 536 447 q 544 540 544 508 l 544 1042 z "},"ú":{"ha":953,"x_min":7,"x_max":922,"o":"m 653 1311 q 576 1310 601 1319 q 538 1279 550 1300 q 522 1231 526 1258 q 513 1179 518 1204 q 492 1135 507 1154 q 446 1111 478 1115 l 308 1111 q 372 1160 353 1126 q 399 1235 390 1194 q 416 1319 408 1276 q 447 1394 424 1361 q 517 1447 469 1428 q 653 1460 565 1465 l 653 1311 m 544 1042 l 922 1042 l 922 404 q 890 247 922 321 q 803 119 858 174 q 675 32 749 64 q 518 0 601 0 l 411 0 q 254 32 328 0 q 126 119 181 64 q 39 247 71 174 q 7 404 7 321 l 7 1042 l 392 1042 l 392 540 q 396 478 392 508 q 410 424 400 447 q 433 385 419 400 q 467 369 447 369 l 469 369 q 503 385 489 369 q 526 424 517 400 q 540 478 536 447 q 544 540 544 508 l 544 1042 z "},"û":{"ha":953,"x_min":7,"x_max":922,"o":"m 197 1278 q 274 1279 247 1269 q 312 1310 300 1289 q 328 1358 324 1331 q 338 1410 332 1385 q 357 1454 343 1435 q 404 1478 371 1474 l 549 1478 q 595 1454 581 1474 q 615 1410 610 1435 q 625 1358 621 1385 q 641 1310 629 1331 q 679 1279 653 1289 q 756 1278 706 1269 l 756 1129 q 638 1144 682 1124 q 567 1196 593 1164 q 528 1266 540 1228 q 510 1335 517 1304 q 497 1385 503 1367 q 476 1397 490 1404 q 452 1386 460 1404 q 438 1337 444 1368 q 420 1267 432 1306 q 383 1197 408 1229 q 314 1144 358 1164 q 197 1129 269 1124 l 197 1278 m 544 1042 l 922 1042 l 922 404 q 890 247 922 321 q 803 119 858 174 q 675 32 749 64 q 518 0 601 0 l 411 0 q 254 32 328 0 q 126 119 181 64 q 39 247 71 174 q 7 404 7 321 l 7 1042 l 392 1042 l 392 540 q 396 478 392 508 q 410 424 400 447 q 433 385 419 400 q 467 369 447 369 l 469 369 q 503 385 489 369 q 526 424 517 400 q 540 478 536 447 q 544 540 544 508 l 544 1042 z "},"ü":{"ha":953,"x_min":7,"x_max":922,"o":"m 243 1328 q 274 1413 243 1378 q 349 1449 306 1449 q 424 1413 393 1449 q 456 1328 456 1378 q 424 1243 456 1278 q 349 1208 393 1208 q 274 1243 306 1208 q 243 1328 243 1278 m 496 1328 q 527 1413 496 1378 q 601 1449 558 1449 q 677 1413 646 1449 q 708 1328 708 1378 q 677 1243 708 1278 q 601 1208 646 1208 q 527 1243 558 1208 q 496 1328 496 1278 m 544 1042 l 922 1042 l 922 404 q 890 247 922 321 q 803 119 858 174 q 675 32 749 64 q 518 0 601 0 l 411 0 q 254 32 328 0 q 126 119 181 64 q 39 247 71 174 q 7 404 7 321 l 7 1042 l 392 1042 l 392 540 q 396 478 392 508 q 410 424 400 447 q 433 385 419 400 q 467 369 447 369 l 469 369 q 503 385 489 369 q 526 424 517 400 q 540 478 536 447 q 544 540 544 508 l 544 1042 z "},"ý":{"ha":947,"x_min":18,"x_max":933,"o":"m 650 1310 q 573 1308 599 1318 q 535 1278 547 1299 q 519 1230 524 1257 q 510 1178 515 1203 q 490 1133 504 1153 q 443 1110 475 1114 l 306 1110 q 369 1159 350 1125 q 397 1234 388 1193 q 413 1317 406 1275 q 444 1393 421 1360 q 514 1445 467 1426 q 650 1458 561 1464 l 650 1310 m 556 1042 l 933 1042 l 933 585 q 914 460 933 519 q 859 351 894 400 q 775 264 824 301 q 668 206 726 226 l 668 0 l 283 0 l 283 206 q 176 264 225 226 q 92 351 128 301 q 38 460 57 400 q 18 585 18 519 l 18 1042 l 403 1042 l 403 599 q 407 536 403 567 q 421 482 411 506 q 444 443 431 458 q 478 428 458 428 l 481 428 q 514 443 500 428 q 538 482 528 458 q 551 536 547 506 q 556 599 556 567 l 556 1042 z "},"þ":{"ha":844,"x_min":51,"x_max":821,"o":"m 51 0 l 51 1040 l 325 1040 l 325 849 l 443 849 q 591 822 522 849 q 710 750 660 796 q 791 642 761 704 q 821 506 821 579 l 821 481 q 791 347 821 407 q 710 242 761 286 q 591 174 660 199 q 443 150 522 150 l 325 150 l 325 0 l 51 0 m 394 643 q 365 631 378 643 q 344 601 353 619 q 331 558 336 582 q 325 508 326 533 l 325 343 l 397 343 q 428 356 415 343 q 451 390 442 369 q 464 438 460 411 q 468 493 468 465 q 464 548 468 521 q 451 596 460 575 q 428 630 442 617 q 397 643 415 643 l 394 643 z "},"ÿ":{"ha":947,"x_min":18,"x_max":933,"o":"m 556 1042 l 933 1042 l 933 585 q 914 460 933 519 q 859 351 894 400 q 775 264 824 301 q 668 206 726 226 l 668 0 l 283 0 l 283 206 q 176 264 225 226 q 92 351 128 301 q 38 460 57 400 q 18 585 18 519 l 18 1042 l 403 1042 l 403 599 q 407 536 403 567 q 421 482 411 506 q 444 443 431 458 q 478 428 458 428 l 481 428 q 514 443 500 428 q 538 482 528 458 q 551 536 547 506 q 556 599 556 567 l 556 1042 m 240 1189 q 272 1274 240 1239 q 346 1310 303 1310 q 422 1274 390 1310 q 453 1189 453 1239 q 422 1104 453 1139 q 346 1069 390 1069 q 272 1104 303 1069 q 240 1189 240 1139 m 493 1189 q 524 1274 493 1239 q 599 1310 556 1310 q 674 1274 643 1310 q 706 1189 706 1239 q 674 1104 706 1139 q 599 1069 643 1069 q 524 1104 556 1069 q 493 1189 493 1139 z "},"a":{"ha":1446,"x_min":56,"x_max":1408,"o":"m 1011 257 l 456 257 l 456 0 l 56 0 l 56 797 q 89 944 56 894 q 170 1016 122 994 q 272 1040 218 1038 q 367 1042 326 1042 l 1085 1042 q 1229 1036 1168 1042 q 1330 1007 1290 1031 q 1389 933 1369 983 q 1408 794 1408 883 l 1408 0 l 1011 0 l 1011 257 m 456 524 l 1011 524 l 1011 713 q 1008 758 1011 742 q 999 783 1006 775 q 979 792 992 790 q 947 794 967 794 l 522 794 q 487 792 500 794 q 467 781 474 789 q 458 756 460 772 q 456 713 456 740 l 456 524 z "},"b":{"ha":1514,"x_min":51,"x_max":1489,"o":"m 51 972 q 53 1013 51 999 q 64 1033 56 1026 q 90 1040 72 1039 q 140 1042 108 1042 l 1039 1042 q 1183 1036 1122 1042 q 1284 1007 1244 1031 q 1343 933 1324 983 q 1363 794 1363 883 l 1363 724 q 1345 630 1364 671 q 1296 561 1326 589 q 1369 541 1333 557 q 1431 498 1404 525 q 1473 433 1457 471 q 1488 346 1489 394 l 1488 247 q 1468 108 1488 158 q 1409 35 1449 58 q 1308 6 1369 11 q 1164 0 1247 0 l 140 0 q 90 1 108 0 q 64 9 72 3 q 53 29 56 15 q 51 69 51 43 l 51 972 m 451 333 q 453 292 451 306 q 463 272 456 278 q 483 265 469 265 q 518 265 496 265 l 943 265 q 975 265 963 265 q 994 270 988 265 q 1004 290 1001 275 q 1007 333 1007 304 l 1007 383 l 451 383 l 451 333 m 451 676 l 1007 676 l 1007 726 q 1004 770 1007 756 q 994 790 1001 785 q 975 794 988 794 q 943 794 963 794 l 518 794 q 485 794 497 794 q 465 790 472 794 q 454 776 457 786 q 451 746 451 765 l 451 676 z "},"c":{"ha":1447,"x_min":56,"x_max":1408,"o":"m 453 329 q 456 283 453 300 q 467 259 460 267 q 488 249 475 251 q 521 247 501 247 l 946 247 q 1001 276 990 247 q 1011 357 1011 306 l 1408 357 l 1408 244 q 1375 97 1408 147 q 1294 26 1342 47 q 1192 2 1246 4 q 1097 0 1138 0 l 379 0 q 235 6 296 0 q 134 35 174 11 q 75 108 94 58 q 56 247 56 158 l 56 794 q 75 933 56 883 q 134 1007 94 983 q 235 1036 174 1031 q 379 1042 296 1042 l 1097 1042 q 1192 1040 1138 1042 q 1294 1016 1246 1038 q 1375 944 1342 994 q 1408 797 1408 894 l 1408 685 l 1011 685 q 1001 765 1011 736 q 946 794 990 794 l 521 794 q 488 792 501 794 q 467 783 475 790 q 456 758 460 775 q 453 713 453 742 l 453 329 z "},"d":{"ha":1438,"x_min":43,"x_max":1399,"o":"m 1399 272 q 1365 121 1399 175 q 1284 40 1332 67 q 1182 6 1236 13 q 1088 0 1128 0 l 132 0 q 82 1 100 0 q 56 9 64 3 q 45 29 47 15 q 43 69 43 43 l 43 972 q 45 1013 43 999 q 56 1033 47 1026 q 82 1040 64 1039 q 132 1042 100 1042 l 1088 1042 q 1182 1035 1128 1042 q 1284 1002 1236 1029 q 1365 921 1332 975 q 1399 769 1399 867 l 1399 272 m 1001 656 q 999 706 1001 681 q 991 751 997 731 q 972 783 985 771 q 936 794 958 794 l 511 794 q 478 792 492 794 q 458 783 465 790 q 447 758 450 775 q 443 713 443 742 l 443 329 q 447 283 443 300 q 458 259 450 267 q 478 249 465 251 q 511 247 492 247 l 936 247 q 991 283 981 247 q 1001 371 1001 319 l 1001 656 z "},"e":{"ha":1432,"x_min":61,"x_max":1397,"o":"m 1017 417 l 458 417 l 458 326 q 458 283 458 299 q 460 260 458 268 q 469 249 463 251 q 488 247 475 247 l 990 247 q 1006 249 1000 247 q 1013 260 1011 251 q 1016 283 1015 268 q 1017 326 1017 299 l 1397 326 q 1396 197 1394 257 q 1388 94 1397 138 q 1352 25 1379 50 q 1265 0 1325 0 l 150 0 q 100 1 118 0 q 74 9 82 3 q 63 29 65 15 q 61 69 61 43 l 61 972 q 63 1013 61 999 q 74 1033 65 1026 q 100 1040 82 1039 q 150 1042 118 1042 l 1265 1042 q 1352 1017 1325 1042 q 1388 948 1379 992 q 1396 844 1397 904 q 1397 715 1394 785 l 1017 715 q 1016 758 1017 742 q 1013 782 1015 774 q 1006 792 1011 790 q 990 794 1000 794 l 488 794 q 469 792 475 794 q 460 782 463 790 q 458 758 458 774 q 458 715 458 742 l 458 624 l 1017 624 l 1017 417 z "},"f":{"ha":1446,"x_min":71,"x_max":1407,"o":"m 921 306 l 468 306 l 468 0 l 71 0 l 71 972 q 73 1013 71 999 q 83 1033 75 1026 q 110 1040 92 1039 q 160 1042 128 1042 l 1275 1042 q 1362 1017 1335 1042 q 1398 948 1389 992 q 1406 844 1407 904 q 1407 715 1404 785 l 1026 715 q 1026 758 1026 742 q 1023 782 1025 774 q 1015 792 1021 790 q 1000 794 1010 794 l 497 794 q 478 792 485 794 q 470 782 472 790 q 468 758 468 774 q 468 715 468 742 l 468 582 l 921 582 l 921 306 z "},"g":{"ha":1435,"x_min":43,"x_max":1396,"o":"m 440 360 q 442 302 440 324 q 451 269 444 281 q 470 253 457 257 q 507 250 483 250 l 935 250 q 966 253 954 250 q 984 265 978 256 q 993 290 990 274 q 996 332 996 306 l 996 361 l 476 361 l 476 600 l 1181 600 q 1284 588 1243 600 q 1350 549 1325 576 q 1385 476 1375 522 q 1396 363 1396 431 l 1396 250 q 1376 111 1396 161 q 1317 38 1357 61 q 1215 8 1276 14 q 1069 3 1153 3 l 354 3 q 260 5 314 3 q 158 28 206 7 q 76 100 110 50 q 43 247 43 150 l 43 794 q 63 933 43 883 q 122 1007 82 983 q 222 1036 161 1031 q 367 1042 283 1042 l 1085 1042 q 1179 1040 1125 1042 q 1281 1016 1233 1038 q 1363 944 1329 994 q 1396 797 1396 894 l 1396 685 l 999 685 q 998 738 999 717 q 991 771 997 758 q 972 789 985 783 q 933 794 958 794 l 508 794 q 476 792 489 794 q 455 783 463 790 q 444 758 447 775 q 440 713 440 742 l 440 360 z "},"h":{"ha":1389,"x_min":94,"x_max":1325,"o":"m 94 972 q 97 1013 94 999 q 107 1033 99 1026 q 133 1040 115 1039 q 183 1042 151 1042 l 403 1042 q 453 1040 435 1042 q 479 1033 471 1039 q 490 1013 488 1026 q 492 972 492 999 l 492 622 l 928 622 l 928 972 q 930 1013 928 999 q 940 1033 932 1026 q 967 1040 949 1039 q 1017 1042 985 1042 l 1236 1042 q 1286 1040 1268 1042 q 1313 1033 1304 1039 q 1323 1013 1321 1026 q 1325 972 1325 999 l 1325 69 q 1323 29 1325 43 q 1313 9 1321 15 q 1286 1 1304 3 q 1236 0 1268 0 l 1017 0 q 967 1 985 0 q 940 9 949 3 q 930 29 932 15 q 928 69 928 43 l 928 372 l 492 372 l 492 69 q 490 29 492 43 q 479 9 488 15 q 453 1 471 3 q 403 0 435 0 l 183 0 q 133 1 151 0 q 107 9 115 3 q 97 29 99 15 q 94 69 94 43 l 94 972 z "},"i":{"ha":646,"x_min":58,"x_max":594,"o":"m 506 1042 q 556 1040 538 1042 q 582 1033 574 1039 q 592 1013 590 1026 q 594 972 594 999 l 594 69 q 592 29 594 43 q 582 9 590 15 q 556 1 574 3 q 506 0 538 0 l 147 0 q 97 1 115 0 q 71 9 79 3 q 60 29 63 15 q 58 69 58 43 l 58 972 q 60 1013 58 999 q 71 1033 63 1026 q 97 1040 79 1039 q 147 1042 115 1042 l 506 1042 z "},"j":{"ha":1178,"x_min":51,"x_max":1125,"o":"m 1036 1042 q 1086 1040 1068 1042 q 1113 1033 1104 1039 q 1123 1013 1121 1026 q 1125 972 1125 999 l 1125 225 q 1092 96 1125 142 q 1001 28 1058 50 q 867 3 943 7 q 708 0 792 0 l 463 0 q 280 3 357 0 q 152 28 203 7 q 76 94 101 49 q 51 224 51 140 l 51 418 l 436 418 q 436 356 436 386 q 440 301 436 325 q 454 263 444 278 q 483 247 464 247 l 681 247 q 710 263 700 247 q 724 301 719 278 q 728 356 728 325 q 728 418 728 386 l 728 972 q 730 1013 728 999 q 740 1033 732 1026 q 767 1040 749 1039 q 817 1042 785 1042 l 1036 1042 z "},"k":{"ha":1469,"x_min":69,"x_max":1414,"o":"m 158 0 q 108 1 126 0 q 82 9 90 3 q 72 29 74 15 q 69 69 69 43 l 69 972 q 72 1013 69 999 q 82 1033 74 1026 q 108 1040 90 1039 q 158 1042 126 1042 l 378 1042 q 428 1040 410 1042 q 454 1033 446 1039 q 465 1013 463 1026 q 467 972 467 999 l 467 686 l 472 686 l 751 1042 l 1414 1042 l 908 524 l 1414 0 l 751 0 l 472 356 l 467 356 l 467 69 q 465 29 467 43 q 454 9 463 15 q 428 1 446 3 q 378 0 410 0 l 158 0 z "},"l":{"ha":1026,"x_min":72,"x_max":989,"o":"m 381 1042 q 431 1040 413 1042 q 457 1033 449 1039 q 467 1013 465 1026 q 469 972 469 999 l 469 557 q 471 458 469 493 q 479 408 472 424 q 501 389 486 392 q 544 386 517 386 l 989 386 l 989 0 l 489 0 q 257 4 340 0 q 133 31 174 8 q 82 104 92 54 q 72 246 72 154 l 72 972 q 74 1013 72 999 q 85 1033 76 1026 q 111 1040 93 1039 q 161 1042 129 1042 l 381 1042 z "},"m":{"ha":1650,"x_min":44,"x_max":1597,"o":"m 869 315 q 822 292 842 292 q 769 315 801 292 l 442 560 l 442 69 q 440 29 442 43 q 429 9 438 15 q 403 1 421 3 q 353 0 385 0 l 133 0 q 83 1 101 0 q 57 9 65 3 q 47 29 49 15 q 44 69 44 43 l 44 972 q 47 1013 44 999 q 57 1033 49 1026 q 83 1040 65 1039 q 133 1042 101 1042 l 442 1042 l 821 706 l 1200 1042 l 1508 1042 q 1558 1040 1540 1042 q 1585 1033 1576 1039 q 1595 1013 1593 1026 q 1597 972 1597 999 l 1597 69 q 1595 29 1597 43 q 1585 9 1593 15 q 1558 1 1576 3 q 1508 0 1540 0 l 1289 0 q 1239 1 1257 0 q 1213 9 1221 3 q 1202 29 1204 15 q 1200 69 1200 43 l 1200 560 l 869 315 z "},"n":{"ha":1397,"x_min":49,"x_max":1361,"o":"m 138 0 q 88 1 106 0 q 61 9 69 3 q 51 29 53 15 q 49 69 49 43 l 49 972 q 51 1013 49 999 q 61 1033 53 1026 q 88 1040 69 1039 q 138 1042 106 1042 l 446 1042 l 964 567 l 964 972 q 966 1013 964 999 q 976 1033 968 1026 q 1003 1040 985 1039 q 1053 1042 1021 1042 l 1272 1042 q 1322 1040 1304 1042 q 1349 1033 1340 1039 q 1359 1013 1357 1026 q 1361 972 1361 999 l 1361 69 q 1359 29 1361 43 q 1349 9 1357 15 q 1322 1 1340 3 q 1272 0 1304 0 l 964 0 l 446 476 l 446 69 q 444 29 446 43 q 433 9 442 15 q 407 1 425 3 q 357 0 389 0 l 138 0 z "},"o":{"ha":1442,"x_min":46,"x_max":1399,"o":"m 1399 247 q 1379 108 1399 158 q 1319 35 1360 58 q 1217 6 1279 11 q 1072 0 1156 0 l 357 0 q 263 2 317 0 q 160 26 208 4 q 79 97 113 47 q 46 244 46 147 l 46 794 q 65 933 46 883 q 124 1007 85 983 q 225 1036 164 1031 q 369 1042 286 1042 l 1088 1042 q 1182 1040 1128 1042 q 1284 1016 1236 1038 q 1365 944 1332 994 q 1399 797 1399 894 l 1399 247 m 443 357 q 445 299 443 321 q 453 266 447 278 q 473 251 460 254 q 510 247 486 247 l 938 247 q 969 250 957 247 q 987 262 981 253 q 996 287 993 271 q 999 329 999 303 l 999 685 q 998 742 999 719 q 992 775 997 764 q 974 790 988 786 q 936 794 961 794 l 511 794 q 478 792 492 794 q 458 783 465 790 q 447 758 450 775 q 443 713 443 742 l 443 357 z "},"p":{"ha":1453,"x_min":57,"x_max":1411,"o":"m 57 797 q 90 944 57 894 q 172 1016 124 994 q 274 1040 219 1038 q 368 1042 328 1042 l 1086 1042 q 1231 1036 1169 1042 q 1331 1007 1292 1031 q 1390 933 1371 983 q 1410 794 1410 883 l 1410 474 q 1393 381 1411 421 q 1344 313 1375 340 q 1275 271 1314 285 q 1194 257 1236 257 l 457 257 l 457 0 l 57 0 l 57 797 m 457 524 l 1013 524 l 1013 713 q 1010 758 1013 742 q 1000 783 1007 775 q 981 792 993 790 q 949 794 968 794 l 524 794 q 488 792 501 794 q 468 781 475 789 q 459 756 461 772 q 457 713 457 740 l 457 524 z "},"q":{"ha":1417,"x_min":29,"x_max":1382,"o":"m 1382 247 q 1347 108 1382 158 q 1254 35 1313 58 q 1119 6 1196 11 q 960 0 1043 0 l 957 0 l 1124 -117 l 960 -332 l 478 0 l 336 0 q 242 2 294 0 q 142 26 189 4 q 62 99 94 49 q 29 244 29 149 l 29 794 q 49 933 29 883 q 108 1007 68 983 q 208 1036 147 1031 q 353 1042 269 1042 l 1071 1042 q 1165 1040 1111 1042 q 1267 1016 1219 1038 q 1349 944 1315 994 q 1382 797 1382 894 l 1382 247 m 426 357 q 428 299 426 321 q 437 266 431 278 q 456 251 443 254 q 493 247 469 247 l 921 247 q 952 250 940 247 q 970 262 964 253 q 979 287 976 271 q 982 329 982 303 l 982 685 q 981 742 982 719 q 976 775 981 764 q 958 790 971 786 q 919 794 944 794 l 494 794 q 462 792 475 794 q 441 783 449 790 q 430 758 433 775 q 426 713 426 742 l 426 357 z "},"r":{"ha":1446,"x_min":50,"x_max":1404,"o":"m 50 797 q 83 944 50 894 q 165 1016 117 994 q 267 1040 213 1038 q 361 1042 321 1042 l 1079 1042 q 1224 1036 1163 1042 q 1324 1007 1285 1031 q 1383 933 1364 983 q 1403 794 1403 883 l 1403 474 q 1367 346 1404 396 q 1275 274 1329 296 l 1399 0 l 1014 0 l 915 257 l 450 257 l 450 0 l 50 0 l 50 797 m 450 524 l 1006 524 l 1006 713 q 1003 758 1006 742 q 993 783 1000 775 q 974 792 986 790 q 942 794 961 794 l 517 794 q 481 792 494 794 q 461 781 468 789 q 452 756 454 772 q 450 713 450 740 l 450 524 z "},"s":{"ha":1446,"x_min":50,"x_max":1406,"o":"m 267 389 q 186 403 225 389 q 117 444 147 417 q 68 513 86 472 q 51 606 50 553 l 51 794 q 71 933 51 883 q 130 1007 90 983 q 231 1036 169 1031 q 375 1042 292 1042 l 1093 1042 q 1188 1040 1133 1042 q 1290 1016 1242 1038 q 1371 944 1338 994 q 1404 797 1404 894 l 1404 685 l 1007 685 q 1006 741 1007 719 q 999 774 1006 763 q 980 790 993 786 q 942 794 967 794 l 517 794 q 484 792 497 794 q 463 783 471 790 q 452 758 456 775 q 449 713 449 742 l 449 656 l 1189 656 q 1269 637 1231 656 q 1339 585 1308 618 q 1388 508 1369 553 q 1404 411 1406 464 l 1404 250 q 1385 111 1404 161 q 1325 38 1365 61 q 1223 8 1285 14 q 1078 3 1161 3 l 363 3 q 268 5 322 3 q 166 28 214 7 q 85 100 118 50 q 51 247 51 150 l 51 360 l 449 360 q 451 302 449 324 q 459 269 453 281 q 478 253 465 257 q 515 250 492 250 l 943 250 q 974 252 963 250 q 992 263 986 254 q 1001 287 999 271 q 1004 332 1004 303 l 1004 389 l 267 389 z "},"t":{"ha":1314,"x_min":47,"x_max":1275,"o":"m 381 657 l 47 657 l 47 794 q 67 933 47 883 q 126 1007 86 983 q 226 1036 165 1031 q 371 1042 288 1042 l 964 1042 q 1058 1040 1004 1042 q 1160 1016 1113 1038 q 1242 944 1208 994 q 1275 797 1275 894 l 1275 657 l 926 657 q 926 716 926 690 q 919 759 925 742 q 900 785 913 776 q 863 794 888 794 l 863 69 q 860 29 863 43 q 850 9 858 15 q 824 1 842 3 q 774 0 806 0 l 540 0 q 490 1 508 0 q 464 9 472 3 q 453 29 456 15 q 451 69 451 43 l 451 794 l 449 794 q 410 788 424 794 q 390 765 396 781 q 382 723 383 750 q 381 657 381 696 z "},"u":{"ha":1292,"x_min":44,"x_max":1258,"o":"m 353 1042 q 403 1040 385 1042 q 429 1033 421 1039 q 440 1013 438 1026 q 442 972 442 999 l 442 360 q 444 302 442 324 q 452 269 446 281 q 472 253 458 257 q 508 250 485 250 l 797 250 q 848 265 836 250 q 861 332 860 279 l 861 972 q 863 1013 861 999 q 874 1033 865 1026 q 900 1040 882 1039 q 950 1042 918 1042 l 1169 1042 q 1219 1040 1201 1042 q 1246 1033 1238 1039 q 1256 1013 1254 1026 q 1258 972 1258 999 l 1258 250 q 1239 111 1258 161 q 1179 38 1219 61 q 1077 8 1139 14 q 932 3 1015 3 l 356 3 q 261 5 315 3 q 159 28 207 7 q 78 100 111 50 q 44 247 44 150 l 44 972 q 47 1013 44 999 q 57 1033 49 1026 q 83 1040 65 1039 q 133 1042 101 1042 l 353 1042 z "},"v":{"ha":1275,"x_min":24,"x_max":1258,"o":"m 1176 1042 q 1226 1040 1208 1042 q 1251 1033 1244 1039 q 1256 1013 1258 1026 q 1249 972 1254 999 l 1024 69 q 1012 29 1017 43 q 997 9 1007 15 q 968 1 986 3 q 918 0 950 0 l 364 0 q 314 1 332 0 q 285 9 296 3 q 269 29 275 15 q 258 69 264 43 l 33 972 q 25 1013 26 999 q 31 1033 24 1026 q 56 1040 38 1039 q 106 1042 74 1042 l 381 1042 q 431 1040 413 1042 q 459 1033 449 1039 q 474 1013 469 1026 q 486 972 479 999 l 640 406 l 796 972 q 807 1013 801 999 q 823 1033 813 1026 q 851 1040 833 1039 q 901 1042 869 1042 l 1176 1042 z "},"w":{"ha":1658,"x_min":61,"x_max":1608,"o":"m 1542 1042 q 1581 1040 1567 1042 q 1601 1033 1594 1039 q 1608 1012 1607 1026 q 1607 971 1608 997 l 1560 71 q 1556 30 1558 44 q 1547 9 1554 15 q 1526 1 1540 3 q 1488 0 1513 0 l 1022 0 q 983 1 997 0 q 959 9 968 3 q 942 30 950 15 q 925 71 935 44 l 835 232 l 746 71 q 728 30 735 44 q 711 9 721 15 q 688 1 701 3 q 649 0 674 0 l 183 0 q 144 1 158 0 q 123 9 131 3 q 113 30 115 15 q 110 71 111 44 l 63 971 q 63 1012 61 997 q 70 1033 64 1026 q 90 1040 76 1039 q 128 1042 103 1042 l 382 1042 q 421 1040 407 1042 q 442 1033 435 1039 q 450 1012 449 1026 q 453 971 451 997 l 478 507 l 710 874 l 708 875 l 961 875 l 961 874 l 1192 507 l 1217 971 q 1220 1012 1218 997 q 1229 1033 1222 1026 q 1250 1040 1236 1039 q 1289 1042 1264 1042 l 1542 1042 z "},"x":{"ha":1276,"x_min":35,"x_max":1246,"o":"m 1168 1042 q 1217 1040 1200 1042 q 1240 1033 1235 1039 q 1240 1013 1246 1026 q 1221 972 1235 999 l 978 513 l 1213 69 q 1232 29 1226 43 q 1232 9 1238 15 q 1209 1 1226 3 q 1160 0 1192 0 l 940 0 q 868 1 908 0 q 790 9 828 3 q 721 29 751 15 q 676 69 690 43 l 640 138 l 604 69 q 560 29 590 43 q 491 9 529 15 q 413 1 453 3 q 340 0 372 0 l 121 0 q 72 1 89 0 q 49 9 54 3 q 49 29 43 15 q 68 69 54 43 l 303 513 l 60 972 q 40 1013 46 999 q 40 1033 35 1026 q 63 1040 46 1039 q 113 1042 81 1042 l 332 1042 q 404 1040 364 1042 q 483 1033 444 1039 q 551 1013 521 1026 q 596 972 582 999 l 640 888 l 685 972 q 729 1013 699 999 q 798 1033 760 1026 q 876 1040 836 1039 q 949 1042 917 1042 l 1168 1042 z "},"y":{"ha":1435,"x_min":54,"x_max":1407,"o":"m 464 0 l 464 294 q 394 297 436 294 q 308 306 353 299 q 217 330 263 314 q 135 373 172 346 q 76 441 99 400 q 54 539 54 482 l 54 972 q 56 1013 54 999 q 67 1033 58 1026 q 93 1040 75 1039 q 143 1042 111 1042 l 363 1042 q 413 1040 394 1042 q 439 1033 431 1039 q 449 1013 447 1026 q 451 972 451 999 l 451 651 q 453 594 451 615 q 462 560 456 572 q 481 545 468 549 q 518 542 494 542 l 946 542 q 997 556 985 542 q 1010 624 1008 571 l 1010 972 q 1012 1013 1010 999 q 1022 1033 1014 1026 q 1049 1040 1031 1039 q 1099 1042 1067 1042 l 1318 1042 q 1368 1040 1350 1042 q 1394 1033 1386 1039 q 1405 1013 1403 1026 q 1407 972 1407 999 l 1407 542 q 1368 410 1407 458 q 1269 335 1329 361 q 1134 302 1208 310 q 988 294 1060 294 l 988 0 l 464 0 z "},"z":{"ha":1456,"x_min":64,"x_max":1417,"o":"m 525 250 l 953 250 q 989 253 975 250 q 1009 269 1003 257 q 1017 302 1015 281 q 1019 360 1019 324 l 1417 471 l 1417 247 q 1383 100 1417 150 q 1302 28 1350 50 q 1200 5 1254 7 q 1106 3 1146 3 l 390 3 q 245 8 307 3 q 143 38 183 14 q 83 111 103 61 q 64 250 64 161 l 64 411 l 1019 713 q 1016 758 1019 742 q 1005 783 1013 775 q 984 792 997 790 q 951 794 971 794 l 526 794 q 488 783 501 794 q 469 753 475 772 q 462 706 463 733 q 461 643 461 678 l 64 532 l 64 797 q 97 944 64 894 q 178 1016 131 994 q 281 1040 226 1038 q 375 1042 335 1042 l 1093 1042 q 1238 1036 1176 1042 q 1338 1007 1299 1031 q 1397 933 1378 983 q 1417 794 1417 883 l 1417 550 l 525 250 z "},"A":{"ha":1446,"x_min":56,"x_max":1408,"o":"m 1011 257 l 456 257 l 456 0 l 56 0 l 56 797 q 89 944 56 894 q 170 1016 122 994 q 272 1040 218 1038 q 367 1042 326 1042 l 1085 1042 q 1229 1036 1168 1042 q 1330 1007 1290 1031 q 1389 933 1369 983 q 1408 794 1408 883 l 1408 0 l 1011 0 l 1011 257 m 456 524 l 1011 524 l 1011 713 q 1008 758 1011 742 q 999 783 1006 775 q 979 792 992 790 q 947 794 967 794 l 522 794 q 487 792 500 794 q 467 781 474 789 q 458 756 460 772 q 456 713 456 740 l 456 524 z "},"B":{"ha":1514,"x_min":51,"x_max":1489,"o":"m 51 972 q 53 1013 51 999 q 64 1033 56 1026 q 90 1040 72 1039 q 140 1042 108 1042 l 1039 1042 q 1183 1036 1122 1042 q 1284 1007 1244 1031 q 1343 933 1324 983 q 1363 794 1363 883 l 1363 724 q 1345 630 1364 671 q 1296 561 1326 589 q 1369 541 1333 557 q 1431 498 1404 525 q 1473 433 1457 471 q 1488 346 1489 394 l 1488 247 q 1468 108 1488 158 q 1409 35 1449 58 q 1308 6 1369 11 q 1164 0 1247 0 l 140 0 q 90 1 108 0 q 64 9 72 3 q 53 29 56 15 q 51 69 51 43 l 51 972 m 451 333 q 453 292 451 306 q 463 272 456 278 q 483 265 469 265 q 518 265 496 265 l 943 265 q 975 265 963 265 q 994 270 988 265 q 1004 290 1001 275 q 1007 333 1007 304 l 1007 383 l 451 383 l 451 333 m 451 676 l 1007 676 l 1007 726 q 1004 770 1007 756 q 994 790 1001 785 q 975 794 988 794 q 943 794 963 794 l 518 794 q 485 794 497 794 q 465 790 472 794 q 454 776 457 786 q 451 746 451 765 l 451 676 z "},"C":{"ha":1447,"x_min":56,"x_max":1408,"o":"m 453 329 q 456 283 453 300 q 467 259 460 267 q 488 249 475 251 q 521 247 501 247 l 946 247 q 1001 276 990 247 q 1011 357 1011 306 l 1408 357 l 1408 244 q 1375 97 1408 147 q 1294 26 1342 47 q 1192 2 1246 4 q 1097 0 1138 0 l 379 0 q 235 6 296 0 q 134 35 174 11 q 75 108 94 58 q 56 247 56 158 l 56 794 q 75 933 56 883 q 134 1007 94 983 q 235 1036 174 1031 q 379 1042 296 1042 l 1097 1042 q 1192 1040 1138 1042 q 1294 1016 1246 1038 q 1375 944 1342 994 q 1408 797 1408 894 l 1408 685 l 1011 685 q 1001 765 1011 736 q 946 794 990 794 l 521 794 q 488 792 501 794 q 467 783 475 790 q 456 758 460 775 q 453 713 453 742 l 453 329 z "},"D":{"ha":1438,"x_min":43,"x_max":1399,"o":"m 1399 272 q 1365 121 1399 175 q 1284 40 1332 67 q 1182 6 1236 13 q 1088 0 1128 0 l 132 0 q 82 1 100 0 q 56 9 64 3 q 45 29 47 15 q 43 69 43 43 l 43 972 q 45 1013 43 999 q 56 1033 47 1026 q 82 1040 64 1039 q 132 1042 100 1042 l 1088 1042 q 1182 1035 1128 1042 q 1284 1002 1236 1029 q 1365 921 1332 975 q 1399 769 1399 867 l 1399 272 m 1001 656 q 999 706 1001 681 q 991 751 997 731 q 972 783 985 771 q 936 794 958 794 l 511 794 q 478 792 492 794 q 458 783 465 790 q 447 758 450 775 q 443 713 443 742 l 443 329 q 447 283 443 300 q 458 259 450 267 q 478 249 465 251 q 511 247 492 247 l 936 247 q 991 283 981 247 q 1001 371 1001 319 l 1001 656 z "},"E":{"ha":1432,"x_min":61,"x_max":1397,"o":"m 1017 417 l 458 417 l 458 326 q 458 283 458 299 q 460 260 458 268 q 469 249 463 251 q 488 247 475 247 l 990 247 q 1006 249 1000 247 q 1013 260 1011 251 q 1016 283 1015 268 q 1017 326 1017 299 l 1397 326 q 1396 197 1394 257 q 1388 94 1397 138 q 1352 25 1379 50 q 1265 0 1325 0 l 150 0 q 100 1 118 0 q 74 9 82 3 q 63 29 65 15 q 61 69 61 43 l 61 972 q 63 1013 61 999 q 74 1033 65 1026 q 100 1040 82 1039 q 150 1042 118 1042 l 1265 1042 q 1352 1017 1325 1042 q 1388 948 1379 992 q 1396 844 1397 904 q 1397 715 1394 785 l 1017 715 q 1016 758 1017 742 q 1013 782 1015 774 q 1006 792 1011 790 q 990 794 1000 794 l 488 794 q 469 792 475 794 q 460 782 463 790 q 458 758 458 774 q 458 715 458 742 l 458 624 l 1017 624 l 1017 417 z "},"F":{"ha":1446,"x_min":71,"x_max":1407,"o":"m 921 306 l 468 306 l 468 0 l 71 0 l 71 972 q 73 1013 71 999 q 83 1033 75 1026 q 110 1040 92 1039 q 160 1042 128 1042 l 1275 1042 q 1362 1017 1335 1042 q 1398 948 1389 992 q 1406 844 1407 904 q 1407 715 1404 785 l 1026 715 q 1026 758 1026 742 q 1023 782 1025 774 q 1015 792 1021 790 q 1000 794 1010 794 l 497 794 q 478 792 485 794 q 470 782 472 790 q 468 758 468 774 q 468 715 468 742 l 468 582 l 921 582 l 921 306 z "},"G":{"ha":1435,"x_min":43,"x_max":1396,"o":"m 440 360 q 442 302 440 324 q 451 269 444 281 q 470 253 457 257 q 507 250 483 250 l 935 250 q 966 253 954 250 q 984 265 978 256 q 993 290 990 274 q 996 332 996 306 l 996 361 l 476 361 l 476 600 l 1181 600 q 1284 588 1243 600 q 1350 549 1325 576 q 1385 476 1375 522 q 1396 363 1396 431 l 1396 250 q 1376 111 1396 161 q 1317 38 1357 61 q 1215 8 1276 14 q 1069 3 1153 3 l 354 3 q 260 5 314 3 q 158 28 206 7 q 76 100 110 50 q 43 247 43 150 l 43 794 q 63 933 43 883 q 122 1007 82 983 q 222 1036 161 1031 q 367 1042 283 1042 l 1085 1042 q 1179 1040 1125 1042 q 1281 1016 1233 1038 q 1363 944 1329 994 q 1396 797 1396 894 l 1396 685 l 999 685 q 998 738 999 717 q 991 771 997 758 q 972 789 985 783 q 933 794 958 794 l 508 794 q 476 792 489 794 q 455 783 463 790 q 444 758 447 775 q 440 713 440 742 l 440 360 z "},"H":{"ha":1389,"x_min":94,"x_max":1325,"o":"m 94 972 q 97 1013 94 999 q 107 1033 99 1026 q 133 1040 115 1039 q 183 1042 151 1042 l 403 1042 q 453 1040 435 1042 q 479 1033 471 1039 q 490 1013 488 1026 q 492 972 492 999 l 492 622 l 928 622 l 928 972 q 930 1013 928 999 q 940 1033 932 1026 q 967 1040 949 1039 q 1017 1042 985 1042 l 1236 1042 q 1286 1040 1268 1042 q 1313 1033 1304 1039 q 1323 1013 1321 1026 q 1325 972 1325 999 l 1325 69 q 1323 29 1325 43 q 1313 9 1321 15 q 1286 1 1304 3 q 1236 0 1268 0 l 1017 0 q 967 1 985 0 q 940 9 949 3 q 930 29 932 15 q 928 69 928 43 l 928 372 l 492 372 l 492 69 q 490 29 492 43 q 479 9 488 15 q 453 1 471 3 q 403 0 435 0 l 183 0 q 133 1 151 0 q 107 9 115 3 q 97 29 99 15 q 94 69 94 43 l 94 972 z "},"I":{"ha":646,"x_min":58,"x_max":594,"o":"m 506 1042 q 556 1040 538 1042 q 582 1033 574 1039 q 592 1013 590 1026 q 594 972 594 999 l 594 69 q 592 29 594 43 q 582 9 590 15 q 556 1 574 3 q 506 0 538 0 l 147 0 q 97 1 115 0 q 71 9 79 3 q 60 29 63 15 q 58 69 58 43 l 58 972 q 60 1013 58 999 q 71 1033 63 1026 q 97 1040 79 1039 q 147 1042 115 1042 l 506 1042 z "},"J":{"ha":1178,"x_min":51,"x_max":1125,"o":"m 1036 1042 q 1086 1040 1068 1042 q 1113 1033 1104 1039 q 1123 1013 1121 1026 q 1125 972 1125 999 l 1125 225 q 1092 96 1125 142 q 1001 28 1058 50 q 867 3 943 7 q 708 0 792 0 l 463 0 q 280 3 357 0 q 152 28 203 7 q 76 94 101 49 q 51 224 51 140 l 51 418 l 436 418 q 436 356 436 386 q 440 301 436 325 q 454 263 444 278 q 483 247 464 247 l 681 247 q 710 263 700 247 q 724 301 719 278 q 728 356 728 325 q 728 418 728 386 l 728 972 q 730 1013 728 999 q 740 1033 732 1026 q 767 1040 749 1039 q 817 1042 785 1042 l 1036 1042 z "},"K":{"ha":1469,"x_min":69,"x_max":1414,"o":"m 158 0 q 108 1 126 0 q 82 9 90 3 q 72 29 74 15 q 69 69 69 43 l 69 972 q 72 1013 69 999 q 82 1033 74 1026 q 108 1040 90 1039 q 158 1042 126 1042 l 378 1042 q 428 1040 410 1042 q 454 1033 446 1039 q 465 1013 463 1026 q 467 972 467 999 l 467 686 l 472 686 l 751 1042 l 1414 1042 l 908 524 l 1414 0 l 751 0 l 472 356 l 467 356 l 467 69 q 465 29 467 43 q 454 9 463 15 q 428 1 446 3 q 378 0 410 0 l 158 0 z "},"L":{"ha":1026,"x_min":72,"x_max":989,"o":"m 381 1042 q 431 1040 413 1042 q 457 1033 449 1039 q 467 1013 465 1026 q 469 972 469 999 l 469 557 q 471 458 469 493 q 479 408 472 424 q 501 389 486 392 q 544 386 517 386 l 989 386 l 989 0 l 489 0 q 257 4 340 0 q 133 31 174 8 q 82 104 92 54 q 72 246 72 154 l 72 972 q 74 1013 72 999 q 85 1033 76 1026 q 111 1040 93 1039 q 161 1042 129 1042 l 381 1042 z "},"M":{"ha":1650,"x_min":44,"x_max":1597,"o":"m 869 315 q 822 292 842 292 q 769 315 801 292 l 442 560 l 442 69 q 440 29 442 43 q 429 9 438 15 q 403 1 421 3 q 353 0 385 0 l 133 0 q 83 1 101 0 q 57 9 65 3 q 47 29 49 15 q 44 69 44 43 l 44 972 q 47 1013 44 999 q 57 1033 49 1026 q 83 1040 65 1039 q 133 1042 101 1042 l 442 1042 l 821 706 l 1200 1042 l 1508 1042 q 1558 1040 1540 1042 q 1585 1033 1576 1039 q 1595 1013 1593 1026 q 1597 972 1597 999 l 1597 69 q 1595 29 1597 43 q 1585 9 1593 15 q 1558 1 1576 3 q 1508 0 1540 0 l 1289 0 q 1239 1 1257 0 q 1213 9 1221 3 q 1202 29 1204 15 q 1200 69 1200 43 l 1200 560 l 869 315 z "},"N":{"ha":1397,"x_min":49,"x_max":1361,"o":"m 138 0 q 88 1 106 0 q 61 9 69 3 q 51 29 53 15 q 49 69 49 43 l 49 972 q 51 1013 49 999 q 61 1033 53 1026 q 88 1040 69 1039 q 138 1042 106 1042 l 446 1042 l 964 567 l 964 972 q 966 1013 964 999 q 976 1033 968 1026 q 1003 1040 985 1039 q 1053 1042 1021 1042 l 1272 1042 q 1322 1040 1304 1042 q 1349 1033 1340 1039 q 1359 1013 1357 1026 q 1361 972 1361 999 l 1361 69 q 1359 29 1361 43 q 1349 9 1357 15 q 1322 1 1340 3 q 1272 0 1304 0 l 964 0 l 446 476 l 446 69 q 444 29 446 43 q 433 9 442 15 q 407 1 425 3 q 357 0 389 0 l 138 0 z "},"O":{"ha":1442,"x_min":46,"x_max":1399,"o":"m 1399 247 q 1379 108 1399 158 q 1319 35 1360 58 q 1217 6 1279 11 q 1072 0 1156 0 l 357 0 q 263 2 317 0 q 160 26 208 4 q 79 97 113 47 q 46 244 46 147 l 46 794 q 65 933 46 883 q 124 1007 85 983 q 225 1036 164 1031 q 369 1042 286 1042 l 1088 1042 q 1182 1040 1128 1042 q 1284 1016 1236 1038 q 1365 944 1332 994 q 1399 797 1399 894 l 1399 247 m 443 357 q 445 299 443 321 q 453 266 447 278 q 473 251 460 254 q 510 247 486 247 l 938 247 q 969 250 957 247 q 987 262 981 253 q 996 287 993 271 q 999 329 999 303 l 999 685 q 998 742 999 719 q 992 775 997 764 q 974 790 988 786 q 936 794 961 794 l 511 794 q 478 792 492 794 q 458 783 465 790 q 447 758 450 775 q 443 713 443 742 l 443 357 z "},"P":{"ha":1453,"x_min":57,"x_max":1411,"o":"m 57 797 q 90 944 57 894 q 172 1016 124 994 q 274 1040 219 1038 q 368 1042 328 1042 l 1086 1042 q 1231 1036 1169 1042 q 1331 1007 1292 1031 q 1390 933 1371 983 q 1410 794 1410 883 l 1410 474 q 1393 381 1411 421 q 1344 313 1375 340 q 1275 271 1314 285 q 1194 257 1236 257 l 457 257 l 457 0 l 57 0 l 57 797 m 457 524 l 1013 524 l 1013 713 q 1010 758 1013 742 q 1000 783 1007 775 q 981 792 993 790 q 949 794 968 794 l 524 794 q 488 792 501 794 q 468 781 475 789 q 459 756 461 772 q 457 713 457 740 l 457 524 z "},"Q":{"ha":1417,"x_min":29,"x_max":1382,"o":"m 1382 247 q 1347 108 1382 158 q 1254 35 1313 58 q 1119 6 1196 11 q 960 0 1043 0 l 957 0 l 1124 -117 l 960 -332 l 478 0 l 336 0 q 242 2 294 0 q 142 26 189 4 q 62 99 94 49 q 29 244 29 149 l 29 794 q 49 933 29 883 q 108 1007 68 983 q 208 1036 147 1031 q 353 1042 269 1042 l 1071 1042 q 1165 1040 1111 1042 q 1267 1016 1219 1038 q 1349 944 1315 994 q 1382 797 1382 894 l 1382 247 m 426 357 q 428 299 426 321 q 437 266 431 278 q 456 251 443 254 q 493 247 469 247 l 921 247 q 952 250 940 247 q 970 262 964 253 q 979 287 976 271 q 982 329 982 303 l 982 685 q 981 742 982 719 q 976 775 981 764 q 958 790 971 786 q 919 794 944 794 l 494 794 q 462 792 475 794 q 441 783 449 790 q 430 758 433 775 q 426 713 426 742 l 426 357 z "},"R":{"ha":1446,"x_min":50,"x_max":1404,"o":"m 50 797 q 83 944 50 894 q 165 1016 117 994 q 267 1040 213 1038 q 361 1042 321 1042 l 1079 1042 q 1224 1036 1163 1042 q 1324 1007 1285 1031 q 1383 933 1364 983 q 1403 794 1403 883 l 1403 474 q 1367 346 1404 396 q 1275 274 1329 296 l 1399 0 l 1014 0 l 915 257 l 450 257 l 450 0 l 50 0 l 50 797 m 450 524 l 1006 524 l 1006 713 q 1003 758 1006 742 q 993 783 1000 775 q 974 792 986 790 q 942 794 961 794 l 517 794 q 481 792 494 794 q 461 781 468 789 q 452 756 454 772 q 450 713 450 740 l 450 524 z "},"S":{"ha":1446,"x_min":50,"x_max":1406,"o":"m 267 389 q 186 403 225 389 q 117 444 147 417 q 68 513 86 472 q 51 606 50 553 l 51 794 q 71 933 51 883 q 130 1007 90 983 q 231 1036 169 1031 q 375 1042 292 1042 l 1093 1042 q 1188 1040 1133 1042 q 1290 1016 1242 1038 q 1371 944 1338 994 q 1404 797 1404 894 l 1404 685 l 1007 685 q 1006 741 1007 719 q 999 774 1006 763 q 980 790 993 786 q 942 794 967 794 l 517 794 q 484 792 497 794 q 463 783 471 790 q 452 758 456 775 q 449 713 449 742 l 449 656 l 1189 656 q 1269 637 1231 656 q 1339 585 1308 618 q 1388 508 1369 553 q 1404 411 1406 464 l 1404 250 q 1385 111 1404 161 q 1325 38 1365 61 q 1223 8 1285 14 q 1078 3 1161 3 l 363 3 q 268 5 322 3 q 166 28 214 7 q 85 100 118 50 q 51 247 51 150 l 51 360 l 449 360 q 451 302 449 324 q 459 269 453 281 q 478 253 465 257 q 515 250 492 250 l 943 250 q 974 252 963 250 q 992 263 986 254 q 1001 287 999 271 q 1004 332 1004 303 l 1004 389 l 267 389 z "},"T":{"ha":1356,"x_min":75,"x_max":1289,"o":"m 408 685 l 75 685 l 75 794 q 94 933 75 883 q 153 1007 114 983 q 254 1036 193 1031 q 399 1042 315 1042 l 978 1042 q 1072 1040 1018 1042 q 1174 1016 1126 1038 q 1256 944 1222 994 q 1289 797 1289 894 l 1289 685 l 940 685 q 940 740 940 718 q 933 774 939 761 q 914 790 926 786 q 876 794 901 794 l 876 69 q 874 29 876 43 q 864 9 872 15 q 838 1 856 3 q 788 0 819 0 l 568 0 q 518 1 536 0 q 492 9 500 3 q 481 29 483 15 q 479 69 479 43 l 479 794 l 476 794 q 438 792 451 794 q 417 779 424 790 q 410 746 411 768 q 408 685 408 724 z "},"U":{"ha":1292,"x_min":44,"x_max":1258,"o":"m 353 1042 q 403 1040 385 1042 q 429 1033 421 1039 q 440 1013 438 1026 q 442 972 442 999 l 442 360 q 444 302 442 324 q 452 269 446 281 q 472 253 458 257 q 508 250 485 250 l 797 250 q 848 265 836 250 q 861 332 860 279 l 861 972 q 863 1013 861 999 q 874 1033 865 1026 q 900 1040 882 1039 q 950 1042 918 1042 l 1169 1042 q 1219 1040 1201 1042 q 1246 1033 1238 1039 q 1256 1013 1254 1026 q 1258 972 1258 999 l 1258 250 q 1239 111 1258 161 q 1179 38 1219 61 q 1077 8 1139 14 q 932 3 1015 3 l 356 3 q 261 5 315 3 q 159 28 207 7 q 78 100 111 50 q 44 247 44 150 l 44 972 q 47 1013 44 999 q 57 1033 49 1026 q 83 1040 65 1039 q 133 1042 101 1042 l 353 1042 z "},"V":{"ha":1275,"x_min":24,"x_max":1258,"o":"m 1176 1042 q 1226 1040 1208 1042 q 1251 1033 1244 1039 q 1256 1013 1258 1026 q 1249 972 1254 999 l 1024 69 q 1012 29 1017 43 q 997 9 1007 15 q 968 1 986 3 q 918 0 950 0 l 364 0 q 314 1 332 0 q 285 9 296 3 q 269 29 275 15 q 258 69 264 43 l 33 972 q 25 1013 26 999 q 31 1033 24 1026 q 56 1040 38 1039 q 106 1042 74 1042 l 381 1042 q 431 1040 413 1042 q 459 1033 449 1039 q 474 1013 469 1026 q 486 972 479 999 l 640 406 l 796 972 q 807 1013 801 999 q 823 1033 813 1026 q 851 1040 833 1039 q 901 1042 869 1042 l 1176 1042 z "},"W":{"ha":1658,"x_min":61,"x_max":1608,"o":"m 1542 1042 q 1581 1040 1567 1042 q 1601 1033 1594 1039 q 1608 1012 1607 1026 q 1607 971 1608 997 l 1560 71 q 1556 30 1558 44 q 1547 9 1554 15 q 1526 1 1540 3 q 1488 0 1513 0 l 1022 0 q 983 1 997 0 q 959 9 968 3 q 942 30 950 15 q 925 71 935 44 l 835 232 l 746 71 q 728 30 735 44 q 711 9 721 15 q 688 1 701 3 q 649 0 674 0 l 183 0 q 144 1 158 0 q 123 9 131 3 q 113 30 115 15 q 110 71 111 44 l 63 971 q 63 1012 61 997 q 70 1033 64 1026 q 90 1040 76 1039 q 128 1042 103 1042 l 382 1042 q 421 1040 407 1042 q 442 1033 435 1039 q 450 1012 449 1026 q 453 971 451 997 l 478 507 l 710 874 l 708 875 l 961 875 l 961 874 l 1192 507 l 1217 971 q 1220 1012 1218 997 q 1229 1033 1222 1026 q 1250 1040 1236 1039 q 1289 1042 1264 1042 l 1542 1042 z "},"X":{"ha":1276,"x_min":35,"x_max":1246,"o":"m 1168 1042 q 1217 1040 1200 1042 q 1240 1033 1235 1039 q 1240 1013 1246 1026 q 1221 972 1235 999 l 978 513 l 1213 69 q 1232 29 1226 43 q 1232 9 1238 15 q 1209 1 1226 3 q 1160 0 1192 0 l 940 0 q 868 1 908 0 q 790 9 828 3 q 721 29 751 15 q 676 69 690 43 l 640 138 l 604 69 q 560 29 590 43 q 491 9 529 15 q 413 1 453 3 q 340 0 372 0 l 121 0 q 72 1 89 0 q 49 9 54 3 q 49 29 43 15 q 68 69 54 43 l 303 513 l 60 972 q 40 1013 46 999 q 40 1033 35 1026 q 63 1040 46 1039 q 113 1042 81 1042 l 332 1042 q 404 1040 364 1042 q 483 1033 444 1039 q 551 1013 521 1026 q 596 972 582 999 l 640 888 l 685 972 q 729 1013 699 999 q 798 1033 760 1026 q 876 1040 836 1039 q 949 1042 917 1042 l 1168 1042 z "},"Y":{"ha":1435,"x_min":54,"x_max":1407,"o":"m 464 0 l 464 294 q 394 297 436 294 q 308 306 353 299 q 217 330 263 314 q 135 373 172 346 q 76 441 99 400 q 54 539 54 482 l 54 972 q 56 1013 54 999 q 67 1033 58 1026 q 93 1040 75 1039 q 143 1042 111 1042 l 363 1042 q 413 1040 394 1042 q 439 1033 431 1039 q 449 1013 447 1026 q 451 972 451 999 l 451 651 q 453 594 451 615 q 462 560 456 572 q 481 545 468 549 q 518 542 494 542 l 946 542 q 997 556 985 542 q 1010 624 1008 571 l 1010 972 q 1012 1013 1010 999 q 1022 1033 1014 1026 q 1049 1040 1031 1039 q 1099 1042 1067 1042 l 1318 1042 q 1368 1040 1350 1042 q 1394 1033 1386 1039 q 1405 1013 1403 1026 q 1407 972 1407 999 l 1407 542 q 1368 410 1407 458 q 1269 335 1329 361 q 1134 302 1208 310 q 988 294 1060 294 l 988 0 l 464 0 z "},"Z":{"ha":1456,"x_min":64,"x_max":1417,"o":"m 525 250 l 953 250 q 989 253 975 250 q 1009 269 1003 257 q 1017 302 1015 281 q 1019 360 1019 324 l 1417 471 l 1417 247 q 1383 100 1417 150 q 1302 28 1350 50 q 1200 5 1254 7 q 1106 3 1146 3 l 390 3 q 245 8 307 3 q 143 38 183 14 q 83 111 103 61 q 64 250 64 161 l 64 411 l 1019 713 q 1016 758 1019 742 q 1005 783 1013 775 q 984 792 997 790 q 951 794 971 794 l 526 794 q 488 783 501 794 q 469 753 475 772 q 462 706 463 733 q 461 643 461 678 l 64 532 l 64 797 q 97 944 64 894 q 178 1016 131 994 q 281 1040 226 1038 q 375 1042 335 1042 l 1093 1042 q 1238 1036 1176 1042 q 1338 1007 1299 1031 q 1397 933 1378 983 q 1417 794 1417 883 l 1417 550 l 525 250 z "},"":{"ha":1446,"x_min":56,"x_max":4015,"o":"m 3592 919 q 3603 947 3592 935 q 3629 958 3614 958 q 3656 947 3644 958 q 3668 919 3668 935 q 3660 896 3668 906 q 3639 883 3651 886 q 3709 846 3671 856 q 3785 844 3747 836 q 3875 878 3829 854 q 3944 938 3921 903 q 4000 1069 3989 1000 q 3997 1209 4011 1139 q 3944 1344 3982 1279 q 3854 1464 3907 1410 q 3737 1556 3801 1518 q 3603 1610 3672 1594 q 3361 1628 3475 1636 q 3142 1581 3247 1621 q 2935 1470 3036 1540 q 2732 1303 2833 1400 q 2582 1146 2654 1229 q 2439 974 2510 1063 q 2297 792 2368 885 q 2154 607 2226 700 q 2026 444 2090 525 q 1898 283 1963 363 q 1767 130 1833 204 q 1633 -11 1701 56 q 1461 -166 1547 -94 q 1283 -292 1375 -237 q 1002 -415 1157 -369 q 683 -462 847 -461 q 463 -440 571 -464 q 269 -360 356 -415 q 125 -216 182 -304 q 56 0 68 -128 l 56 797 q 89 944 56 894 q 170 1016 122 994 q 272 1040 218 1038 q 367 1042 326 1042 l 1085 1042 q 1229 1036 1168 1042 q 1330 1007 1290 1031 q 1389 933 1369 983 q 1408 794 1408 883 l 1408 0 l 1011 0 l 1011 257 l 456 257 l 456 0 l 64 0 q 122 -201 69 -115 q 260 -344 175 -287 q 454 -430 344 -401 q 683 -458 564 -458 q 992 -412 836 -458 q 1281 -289 1149 -365 q 1457 -160 1371 -235 q 1626 -6 1543 -86 q 1888 283 1764 126 q 2143 606 2013 439 q 2288 794 2217 700 q 2429 977 2358 888 q 2573 1150 2500 1067 q 2725 1308 2646 1233 q 2926 1475 2826 1404 q 3133 1586 3026 1546 q 3355 1635 3239 1626 q 3604 1615 3471 1644 q 3748 1558 3681 1599 q 3867 1462 3815 1518 q 3955 1338 3919 1406 q 4003 1201 3990 1271 q 4003 1062 4015 1131 q 3949 936 3992 993 q 3874 874 3919 896 q 3786 842 3829 851 q 3706 842 3746 833 q 3631 882 3665 850 l 3629 882 q 3603 893 3614 882 q 3592 919 3592 904 m 456 524 l 1011 524 l 1011 713 q 1008 758 1011 742 q 999 783 1006 775 q 979 792 992 790 q 947 794 967 794 l 522 794 q 487 792 500 794 q 467 781 474 789 q 458 756 460 772 q 456 713 456 740 l 456 524 z "},"":{"ha":1514,"x_min":51,"x_max":4015,"o":"m 3592 961 q 3603 988 3592 976 q 3629 1000 3614 1000 q 3656 988 3644 1000 q 3668 961 3668 976 q 3660 938 3668 947 q 3639 925 3651 928 q 3709 888 3671 897 q 3785 886 3747 878 q 3875 920 3829 896 q 3944 979 3921 944 q 4000 1111 3989 1042 q 3997 1251 4011 1181 q 3944 1386 3982 1321 q 3854 1506 3907 1451 q 3737 1598 3801 1560 q 3603 1651 3672 1636 q 3361 1670 3475 1678 q 3142 1622 3247 1663 q 2935 1512 3036 1582 q 2732 1344 2833 1442 q 2582 1188 2654 1271 q 2439 1015 2510 1104 q 2297 834 2368 926 q 2154 649 2226 742 q 2026 485 2090 567 q 1898 325 1963 404 q 1767 172 1833 246 q 1633 31 1701 97 q 1461 -124 1547 -53 q 1283 -250 1375 -196 q 1002 -374 1157 -328 q 683 -421 847 -419 q 469 -399 574 -422 q 278 -324 364 -376 q 135 -190 193 -272 q 58 13 76 -107 q 52 33 53 19 q 51 69 51 46 l 51 972 q 53 1013 51 999 q 64 1033 56 1026 q 90 1040 72 1039 q 140 1042 108 1042 l 1039 1042 q 1183 1036 1122 1042 q 1284 1007 1244 1031 q 1343 933 1324 983 q 1363 794 1363 883 l 1363 724 q 1345 630 1364 671 q 1296 561 1326 589 q 1369 541 1333 557 q 1431 498 1404 525 q 1473 433 1457 471 q 1488 346 1489 394 l 1488 247 q 1468 108 1488 158 q 1409 35 1449 58 q 1308 6 1369 11 q 1164 0 1247 0 l 140 0 q 93 1 110 0 q 67 7 76 1 q 134 -179 79 -100 q 273 -311 189 -258 q 463 -390 357 -364 q 683 -417 568 -417 q 992 -370 836 -417 q 1281 -247 1149 -324 q 1457 -119 1371 -193 q 1626 36 1543 -44 q 1888 324 1764 168 q 2143 647 2013 481 q 2288 835 2217 742 q 2429 1019 2358 929 q 2573 1192 2500 1108 q 2725 1350 2646 1275 q 2926 1517 2826 1446 q 3133 1628 3026 1588 q 3355 1677 3239 1668 q 3604 1657 3471 1686 q 3748 1600 3681 1640 q 3867 1503 3815 1560 q 3955 1380 3919 1447 q 4003 1242 3990 1313 q 4003 1104 4015 1172 q 3949 978 3992 1036 q 3874 915 3919 938 q 3786 883 3829 893 q 3706 883 3746 875 q 3631 924 3665 892 l 3629 924 q 3603 935 3614 924 q 3592 961 3592 946 m 451 676 l 1007 676 l 1007 726 q 1004 770 1007 756 q 994 790 1001 785 q 975 794 988 794 q 943 794 963 794 l 518 794 q 485 794 497 794 q 465 790 472 794 q 454 776 457 786 q 451 746 451 765 l 451 676 m 451 333 q 453 292 451 306 q 463 272 456 278 q 483 265 469 265 q 518 265 496 265 l 943 265 q 975 265 963 265 q 994 270 988 265 q 1004 290 1001 275 q 1007 333 1007 304 l 1007 383 l 451 383 l 451 333 z "},"":{"ha":1447,"x_min":56,"x_max":4029,"o":"m 3606 1072 q 3617 1099 3606 1088 q 3643 1111 3628 1111 q 3670 1099 3658 1111 q 3682 1072 3682 1088 q 3674 1049 3682 1058 q 3653 1036 3665 1039 q 3723 999 3685 1008 q 3799 997 3761 989 q 3889 1031 3843 1007 q 3958 1090 3935 1056 q 4014 1222 4003 1153 q 4010 1362 4025 1292 q 3958 1497 3996 1432 q 3868 1617 3921 1563 q 3751 1709 3815 1671 q 3617 1763 3686 1747 q 3375 1781 3489 1789 q 3156 1733 3261 1774 q 2949 1623 3050 1693 q 2746 1456 2847 1553 q 2596 1299 2668 1382 q 2453 1126 2524 1215 q 2311 945 2382 1038 q 2168 760 2240 853 q 2040 597 2104 678 q 1912 436 1976 515 q 1781 283 1847 357 q 1647 142 1715 208 q 1475 -13 1561 58 q 1297 -139 1389 -85 q 1016 -262 1171 -217 q 697 -310 861 -308 q 488 -289 590 -311 q 300 -217 385 -267 q 156 -89 215 -168 q 76 103 97 -10 q 56 247 56 154 l 56 794 q 75 933 56 883 q 134 1007 94 983 q 235 1036 174 1031 q 379 1042 296 1042 l 1097 1042 q 1192 1040 1138 1042 q 1294 1016 1246 1038 q 1375 944 1342 994 q 1408 797 1408 894 l 1408 685 l 1011 685 q 1001 765 1011 736 q 946 794 990 794 l 521 794 q 488 792 501 794 q 467 783 475 790 q 456 758 460 775 q 453 713 453 742 l 453 329 q 456 283 453 300 q 467 259 460 267 q 488 249 475 251 q 521 247 501 247 l 946 247 q 1001 276 990 247 q 1011 357 1011 306 l 1408 357 l 1408 244 q 1375 97 1408 147 q 1294 26 1342 47 q 1192 2 1246 4 q 1097 0 1138 0 l 379 0 q 274 2 321 0 q 191 13 228 4 q 128 38 154 21 q 85 85 101 54 q 161 -87 104 -14 q 300 -208 218 -160 q 484 -281 382 -257 q 697 -306 586 -306 q 1006 -259 850 -306 q 1294 -136 1163 -212 q 1471 -8 1385 -82 q 1640 147 1557 67 q 1902 435 1778 279 q 2157 758 2026 592 q 2301 947 2231 853 q 2443 1130 2372 1040 q 2587 1303 2514 1219 q 2739 1461 2660 1386 q 2940 1628 2840 1557 q 3147 1739 3040 1699 q 3369 1788 3253 1779 q 3618 1768 3485 1797 q 3762 1711 3694 1751 q 3881 1615 3829 1671 q 3969 1491 3933 1558 q 4017 1353 4004 1424 q 4017 1215 4029 1283 q 3963 1089 4006 1146 q 3888 1026 3933 1049 q 3800 994 3843 1004 q 3719 994 3760 986 q 3644 1035 3679 1003 l 3643 1035 q 3617 1046 3628 1035 q 3606 1072 3606 1057 z "},"":{"ha":1438,"x_min":43,"x_max":4015,"o":"m 3592 961 q 3603 988 3592 976 q 3629 1000 3614 1000 q 3656 988 3644 1000 q 3668 961 3668 976 q 3660 938 3668 947 q 3639 925 3651 928 q 3709 888 3671 897 q 3785 886 3747 878 q 3875 920 3829 896 q 3944 979 3921 944 q 4000 1111 3989 1042 q 3997 1251 4011 1181 q 3944 1386 3982 1321 q 3854 1506 3907 1451 q 3737 1598 3801 1560 q 3603 1651 3672 1636 q 3361 1670 3475 1678 q 3142 1622 3247 1663 q 2935 1512 3036 1582 q 2732 1344 2833 1442 q 2582 1188 2654 1271 q 2439 1015 2510 1104 q 2297 834 2368 926 q 2154 649 2226 742 q 2026 485 2090 567 q 1898 325 1963 404 q 1767 172 1833 246 q 1633 31 1701 97 q 1461 -124 1547 -53 q 1283 -250 1375 -196 q 1002 -374 1157 -328 q 683 -421 847 -419 q 471 -399 575 -422 q 282 -326 367 -376 q 138 -193 197 -275 q 60 6 79 -111 q 45 25 47 11 q 43 69 43 39 l 43 972 q 45 1013 43 999 q 56 1033 47 1026 q 82 1040 64 1039 q 132 1042 100 1042 l 1088 1042 q 1182 1035 1128 1042 q 1284 1002 1236 1029 q 1365 921 1332 975 q 1399 769 1399 867 l 1399 272 q 1365 121 1399 175 q 1284 40 1332 67 q 1182 6 1236 13 q 1088 0 1128 0 l 132 0 q 93 0 108 0 q 67 3 78 0 q 135 -181 81 -103 q 274 -312 190 -260 q 463 -390 357 -364 q 683 -417 568 -417 q 992 -370 836 -417 q 1281 -247 1149 -324 q 1457 -119 1371 -193 q 1626 36 1543 -44 q 1888 324 1764 168 q 2143 647 2013 481 q 2288 835 2217 742 q 2429 1019 2358 929 q 2573 1192 2500 1108 q 2725 1350 2646 1275 q 2926 1517 2826 1446 q 3133 1628 3026 1588 q 3355 1677 3239 1668 q 3604 1657 3471 1686 q 3748 1600 3681 1640 q 3867 1503 3815 1560 q 3955 1380 3919 1447 q 4003 1242 3990 1313 q 4003 1104 4015 1172 q 3949 978 3992 1036 q 3874 915 3919 938 q 3786 883 3829 893 q 3706 883 3746 875 q 3631 924 3665 892 l 3629 924 q 3603 935 3614 924 q 3592 961 3592 946 m 1001 656 q 999 706 1001 681 q 991 751 997 731 q 972 783 985 771 q 936 794 958 794 l 511 794 q 478 792 492 794 q 458 783 465 790 q 447 758 450 775 q 443 713 443 742 l 443 329 q 447 283 443 300 q 458 259 450 267 q 478 249 465 251 q 511 247 492 247 l 936 247 q 991 283 981 247 q 1001 371 1001 319 l 1001 656 z "},"":{"ha":1432,"x_min":61,"x_max":4024,"o":"m 3600 961 q 3611 988 3600 976 q 3638 1000 3622 1000 q 3665 988 3653 1000 q 3676 961 3676 976 q 3668 938 3676 947 q 3647 925 3660 928 q 3717 888 3679 897 q 3793 886 3756 878 q 3883 920 3838 896 q 3953 979 3929 944 q 4008 1111 3997 1042 q 4005 1251 4019 1181 q 3953 1386 3990 1321 q 3863 1506 3915 1451 q 3745 1598 3810 1560 q 3611 1651 3681 1636 q 3369 1670 3483 1678 q 3150 1622 3256 1663 q 2943 1512 3044 1582 q 2740 1344 2842 1442 q 2590 1188 2663 1271 q 2447 1015 2518 1104 q 2306 834 2376 926 q 2163 649 2235 742 q 2035 485 2099 567 q 1906 325 1971 404 q 1776 172 1842 246 q 1642 31 1710 97 q 1469 -124 1556 -53 q 1292 -250 1383 -196 q 1010 -374 1165 -328 q 692 -421 856 -419 q 477 -399 582 -422 q 287 -324 372 -376 q 143 -188 201 -272 q 67 15 85 -104 q 62 35 63 22 q 61 69 61 49 l 61 972 q 63 1013 61 999 q 74 1033 65 1026 q 100 1040 82 1039 q 150 1042 118 1042 l 1265 1042 q 1352 1017 1325 1042 q 1388 948 1379 992 q 1396 844 1397 904 q 1397 715 1394 785 l 1017 715 q 1016 758 1017 742 q 1013 782 1015 774 q 1006 792 1011 790 q 990 794 1000 794 l 488 794 q 469 792 475 794 q 460 782 463 790 q 458 758 458 774 q 458 715 458 742 l 458 624 l 1017 624 l 1017 417 l 458 417 l 458 326 q 458 283 458 299 q 460 260 458 268 q 469 249 463 251 q 488 247 475 247 l 990 247 q 1006 249 1000 247 q 1013 260 1011 251 q 1016 283 1015 268 q 1017 326 1017 299 l 1397 326 q 1396 197 1394 257 q 1388 94 1397 138 q 1352 25 1379 50 q 1265 0 1325 0 l 150 0 q 101 1 118 0 q 75 7 83 1 q 142 -179 88 -100 q 281 -311 197 -258 q 470 -390 364 -364 q 692 -417 576 -417 q 1001 -370 844 -417 q 1289 -247 1157 -324 q 1465 -119 1379 -193 q 1635 36 1551 -44 q 1897 324 1772 168 q 2151 647 2021 481 q 2296 835 2225 742 q 2438 1019 2367 929 q 2581 1192 2508 1108 q 2733 1350 2654 1275 q 2935 1517 2835 1446 q 3141 1628 3035 1588 q 3363 1677 3247 1668 q 3613 1657 3479 1686 q 3756 1600 3689 1640 q 3876 1503 3824 1560 q 3963 1380 3928 1447 q 4011 1242 3999 1313 q 4012 1104 4024 1172 q 3957 978 4000 1036 q 3883 915 3928 938 q 3794 883 3838 893 q 3714 883 3754 875 q 3639 924 3674 892 l 3638 924 q 3611 935 3622 924 q 3600 961 3600 946 z "},"":{"ha":1446,"x_min":71,"x_max":4033,"o":"m 3610 929 q 3621 956 3610 944 q 3647 968 3632 968 q 3674 956 3663 968 q 3686 929 3686 944 q 3678 906 3686 915 q 3657 893 3669 896 q 3727 856 3689 865 q 3803 854 3765 846 q 3893 888 3847 864 q 3963 947 3939 913 q 4018 1079 4007 1010 q 4015 1219 4029 1149 q 3963 1354 4000 1289 q 3872 1474 3925 1419 q 3755 1566 3819 1528 q 3621 1619 3690 1604 q 3379 1638 3493 1646 q 3160 1590 3265 1631 q 2953 1480 3054 1550 q 2750 1313 2851 1410 q 2600 1156 2672 1239 q 2457 983 2528 1072 q 2315 802 2386 894 q 2172 617 2244 710 q 2044 453 2108 535 q 1916 293 1981 372 q 1785 140 1851 214 q 1651 -1 1719 65 q 1479 -156 1565 -85 q 1301 -282 1393 -228 q 1020 -406 1175 -360 q 701 -453 865 -451 q 483 -430 589 -454 q 291 -351 376 -406 q 147 -211 206 -297 q 75 0 89 -125 l 71 0 l 71 972 q 73 1013 71 999 q 83 1033 75 1026 q 110 1040 92 1039 q 160 1042 128 1042 l 1275 1042 q 1362 1017 1335 1042 q 1398 948 1389 992 q 1406 844 1407 904 q 1407 715 1404 785 l 1026 715 q 1026 758 1026 742 q 1023 782 1025 774 q 1015 792 1021 790 q 1000 794 1010 794 l 497 794 q 478 792 485 794 q 470 782 472 790 q 468 758 468 774 q 468 715 468 742 l 468 582 l 921 582 l 921 306 l 468 306 l 468 0 l 82 0 q 144 -197 90 -112 q 281 -337 197 -281 q 474 -421 365 -393 q 701 -449 583 -449 q 1010 -402 854 -449 q 1299 -279 1167 -356 q 1475 -151 1389 -225 q 1644 4 1561 -76 q 1906 292 1782 136 q 2161 615 2031 449 q 2306 803 2235 710 q 2447 987 2376 897 q 2591 1160 2518 1076 q 2743 1318 2664 1243 q 2944 1485 2844 1414 q 3151 1596 3044 1556 q 3373 1645 3257 1636 q 3622 1625 3489 1654 q 3766 1568 3699 1608 q 3885 1472 3833 1528 q 3973 1348 3938 1415 q 4021 1210 4008 1281 q 4022 1072 4033 1140 q 3967 946 4010 1003 q 3892 883 3938 906 q 3804 851 3847 861 q 3724 851 3764 843 q 3649 892 3683 860 l 3647 892 q 3621 903 3632 892 q 3610 929 3610 914 z "},"":{"ha":1435,"x_min":43,"x_max":4015,"o":"m 3592 1114 q 3603 1141 3592 1129 q 3629 1153 3614 1153 q 3656 1141 3644 1153 q 3668 1114 3668 1129 q 3660 1090 3668 1100 q 3639 1078 3651 1081 q 3709 1040 3671 1050 q 3785 1039 3747 1031 q 3875 1073 3829 1049 q 3944 1132 3921 1097 q 4000 1264 3989 1194 q 3997 1403 4011 1333 q 3944 1539 3982 1474 q 3854 1658 3907 1604 q 3737 1751 3801 1713 q 3603 1804 3672 1789 q 3361 1823 3475 1831 q 3142 1775 3247 1815 q 2935 1665 3036 1735 q 2732 1497 2833 1594 q 2582 1340 2654 1424 q 2439 1168 2510 1257 q 2297 987 2368 1079 q 2154 801 2226 894 q 2026 638 2090 719 q 1898 478 1963 557 q 1767 324 1833 399 q 1633 183 1701 250 q 1461 28 1547 100 q 1283 -97 1375 -43 q 1002 -221 1157 -175 q 683 -268 847 -267 q 481 -249 581 -269 q 299 -183 382 -229 q 156 -65 217 -137 q 69 111 96 7 q 50 169 57 136 q 43 247 43 203 l 43 794 q 63 933 43 883 q 122 1007 82 983 q 222 1036 161 1031 q 367 1042 283 1042 l 1085 1042 q 1179 1040 1125 1042 q 1281 1016 1233 1038 q 1363 944 1329 994 q 1396 797 1396 894 l 1396 685 l 999 685 q 998 738 999 717 q 991 771 997 758 q 972 789 985 783 q 933 794 958 794 l 508 794 q 476 792 489 794 q 455 783 463 790 q 444 758 447 775 q 440 713 440 742 l 440 360 q 442 302 440 324 q 451 269 444 281 q 470 253 457 257 q 507 250 483 250 l 935 250 q 966 253 954 250 q 984 265 978 256 q 993 290 990 274 q 996 332 996 306 l 996 361 l 476 361 l 476 600 l 1181 600 q 1284 588 1243 600 q 1350 549 1325 576 q 1385 476 1375 522 q 1396 363 1396 431 l 1396 250 q 1376 111 1396 161 q 1317 38 1357 61 q 1215 8 1276 14 q 1069 3 1153 3 l 354 3 q 286 3 324 3 q 210 12 249 4 q 138 38 172 19 q 79 93 103 57 q 162 -64 104 3 q 300 -175 219 -131 q 479 -242 381 -219 q 683 -264 578 -264 q 992 -217 836 -264 q 1281 -94 1149 -171 q 1457 34 1371 -40 q 1626 189 1543 108 q 1888 477 1764 321 q 2143 800 2013 633 q 2288 988 2217 894 q 2429 1172 2358 1082 q 2573 1344 2500 1261 q 2725 1503 2646 1428 q 2926 1669 2826 1599 q 3133 1781 3026 1740 q 3355 1830 3239 1821 q 3604 1810 3471 1839 q 3748 1753 3681 1793 q 3867 1656 3815 1713 q 3955 1533 3919 1600 q 4003 1395 3990 1465 q 4003 1256 4015 1325 q 3949 1131 3992 1188 q 3874 1068 3919 1090 q 3786 1036 3829 1046 q 3706 1036 3746 1028 q 3631 1076 3665 1044 l 3629 1076 q 3603 1088 3614 1076 q 3592 1114 3592 1099 z "},"":{"ha":1389,"x_min":94,"x_max":4067,"o":"m 3643 961 q 3654 988 3643 976 q 3681 1000 3665 1000 q 3708 988 3696 1000 q 3719 961 3719 976 q 3711 938 3719 947 q 3690 925 3703 928 q 3760 888 3722 897 q 3836 886 3799 878 q 3926 920 3881 896 q 3996 979 3972 944 q 4051 1111 4040 1042 q 4048 1251 4063 1181 q 3996 1386 4033 1321 q 3906 1506 3958 1451 q 3788 1598 3853 1560 q 3654 1651 3724 1636 q 3413 1670 3526 1678 q 3193 1622 3299 1663 q 2986 1512 3088 1582 q 2783 1344 2885 1442 q 2633 1188 2706 1271 q 2490 1015 2561 1104 q 2349 834 2419 926 q 2206 649 2278 742 q 2078 485 2142 567 q 1949 325 2014 404 q 1819 172 1885 246 q 1685 31 1753 97 q 1514 -125 1599 -53 q 1338 -251 1429 -197 q 1055 -375 1211 -329 q 735 -422 899 -421 q 510 -395 624 -424 q 303 -306 396 -367 q 153 -152 211 -246 q 94 69 94 -58 l 94 972 q 97 1013 94 999 q 107 1033 99 1026 q 133 1040 115 1039 q 183 1042 151 1042 l 403 1042 q 453 1040 435 1042 q 479 1033 471 1039 q 490 1013 488 1026 q 492 972 492 999 l 492 622 l 928 622 l 928 972 q 930 1013 928 999 q 940 1033 932 1026 q 967 1040 949 1039 q 1017 1042 985 1042 l 1236 1042 q 1286 1040 1268 1042 q 1313 1033 1304 1039 q 1323 1013 1321 1026 q 1325 972 1325 999 l 1325 69 q 1323 29 1325 43 q 1313 9 1321 15 q 1286 1 1304 3 q 1236 0 1268 0 l 1017 0 q 967 1 985 0 q 940 9 949 3 q 930 29 932 15 q 928 69 928 43 l 928 372 l 492 372 l 492 69 q 490 29 492 43 q 479 9 488 15 q 453 1 471 3 q 403 0 435 0 l 183 0 q 140 0 160 0 q 108 3 119 0 q 172 -169 117 -92 q 315 -301 228 -246 q 510 -387 401 -357 q 735 -417 619 -417 q 1044 -370 888 -417 q 1332 -247 1200 -324 q 1508 -119 1422 -193 q 1678 36 1594 -44 q 1940 324 1815 168 q 2194 647 2064 481 q 2339 835 2268 742 q 2481 1019 2410 929 q 2624 1192 2551 1108 q 2776 1350 2697 1275 q 2978 1517 2878 1446 q 3184 1628 3078 1588 q 3406 1677 3290 1668 q 3656 1657 3522 1686 q 3799 1600 3732 1640 q 3919 1503 3867 1560 q 4006 1380 3971 1447 q 4054 1242 4042 1313 q 4055 1104 4067 1172 q 4000 978 4043 1036 q 3926 915 3971 938 q 3838 882 3881 892 q 3757 883 3797 874 q 3682 924 3717 892 l 3681 924 q 3654 935 3665 924 q 3643 961 3643 946 z "},"":{"ha":646,"x_min":58,"x_max":4029,"o":"m 3606 961 q 3617 988 3606 976 q 3643 1000 3628 1000 q 3670 988 3658 1000 q 3682 961 3682 976 q 3674 938 3682 947 q 3653 925 3665 928 q 3723 888 3685 897 q 3799 886 3761 878 q 3889 920 3843 896 q 3958 979 3935 944 q 4014 1111 4003 1042 q 4010 1251 4025 1181 q 3958 1386 3996 1321 q 3868 1506 3921 1451 q 3751 1598 3815 1560 q 3617 1651 3686 1636 q 3375 1670 3489 1678 q 3156 1622 3261 1663 q 2949 1512 3050 1582 q 2746 1344 2847 1442 q 2596 1188 2668 1271 q 2453 1015 2524 1104 q 2311 834 2382 926 q 2168 649 2240 742 q 2040 485 2104 567 q 1912 325 1976 404 q 1781 172 1847 246 q 1647 31 1715 97 q 1475 -124 1561 -53 q 1297 -250 1389 -196 q 1016 -374 1171 -328 q 697 -421 861 -419 q 485 -399 589 -422 q 295 -326 381 -376 q 151 -193 210 -275 q 74 6 92 -111 q 60 26 63 13 q 58 69 58 40 l 58 972 q 60 1013 58 999 q 71 1033 63 1026 q 97 1040 79 1039 q 147 1042 115 1042 l 506 1042 q 556 1040 538 1042 q 582 1033 574 1039 q 592 1013 590 1026 q 594 972 594 999 l 594 69 q 592 29 594 43 q 582 9 590 15 q 556 1 574 3 q 506 0 538 0 l 147 0 q 107 0 122 0 q 81 3 92 0 q 149 -181 94 -103 q 288 -312 204 -260 q 476 -390 371 -364 q 697 -417 582 -417 q 1006 -370 850 -417 q 1294 -247 1163 -324 q 1471 -119 1385 -193 q 1640 36 1557 -44 q 1902 324 1778 168 q 2157 647 2026 481 q 2301 835 2231 742 q 2443 1019 2372 929 q 2587 1192 2514 1108 q 2739 1350 2660 1275 q 2940 1517 2840 1446 q 3147 1628 3040 1588 q 3369 1677 3253 1668 q 3618 1657 3485 1686 q 3762 1600 3694 1640 q 3881 1503 3829 1560 q 3969 1380 3933 1447 q 4017 1242 4004 1313 q 4017 1104 4029 1172 q 3963 978 4006 1036 q 3888 915 3933 938 q 3800 883 3843 893 q 3719 883 3760 875 q 3644 924 3679 892 l 3643 924 q 3617 935 3628 924 q 3606 961 3606 946 z "},"":{"ha":1178,"x_min":51,"x_max":4015,"o":"m 3592 1114 q 3603 1141 3592 1129 q 3629 1153 3614 1153 q 3656 1141 3644 1153 q 3668 1114 3668 1129 q 3660 1090 3668 1100 q 3639 1078 3651 1081 q 3709 1040 3671 1050 q 3785 1039 3747 1031 q 3875 1073 3829 1049 q 3944 1132 3921 1097 q 4000 1264 3989 1194 q 3997 1403 4011 1333 q 3944 1539 3982 1474 q 3854 1658 3907 1604 q 3737 1751 3801 1713 q 3603 1804 3672 1789 q 3361 1823 3475 1831 q 3142 1775 3247 1815 q 2935 1665 3036 1735 q 2732 1497 2833 1594 q 2582 1340 2654 1424 q 2439 1168 2510 1257 q 2297 987 2368 1079 q 2154 801 2226 894 q 2026 638 2090 719 q 1898 478 1963 557 q 1767 324 1833 399 q 1633 183 1701 250 q 1461 28 1547 100 q 1283 -97 1375 -43 q 1002 -221 1157 -175 q 683 -268 847 -267 q 483 -249 581 -269 q 303 -185 386 -229 q 160 -69 221 -140 q 72 103 100 1 q 51 224 51 149 l 51 418 l 436 418 q 436 356 436 386 q 440 301 436 325 q 454 263 444 278 q 483 247 464 247 l 681 247 q 710 263 700 247 q 724 301 719 278 q 728 356 728 325 q 728 418 728 386 l 728 972 q 730 1013 728 999 q 740 1033 732 1026 q 767 1040 749 1039 q 817 1042 785 1042 l 1036 1042 q 1086 1040 1068 1042 q 1113 1033 1104 1039 q 1123 1013 1121 1026 q 1125 972 1125 999 l 1125 225 q 1092 96 1125 142 q 1001 28 1058 50 q 867 3 943 7 q 708 0 792 0 l 463 0 q 326 1 388 0 q 218 10 265 3 q 138 35 171 18 q 83 82 104 51 q 168 -69 110 -4 q 306 -178 226 -135 q 483 -242 386 -221 q 683 -264 579 -264 q 992 -217 836 -264 q 1281 -94 1149 -171 q 1457 34 1371 -40 q 1626 189 1543 108 q 1888 477 1764 321 q 2143 800 2013 633 q 2288 988 2217 894 q 2429 1172 2358 1082 q 2573 1344 2500 1261 q 2725 1503 2646 1428 q 2926 1669 2826 1599 q 3133 1781 3026 1740 q 3355 1830 3239 1821 q 3604 1810 3471 1839 q 3748 1753 3681 1793 q 3867 1656 3815 1713 q 3955 1533 3919 1600 q 4003 1395 3990 1465 q 4003 1256 4015 1325 q 3949 1131 3992 1188 q 3874 1068 3919 1090 q 3786 1036 3829 1046 q 3706 1036 3746 1028 q 3631 1076 3665 1044 l 3629 1076 q 3603 1088 3614 1076 q 3592 1114 3592 1099 z "},"":{"ha":1469,"x_min":69,"x_max":4032,"o":"m 3608 958 q 3619 985 3608 974 q 3646 997 3631 997 q 3673 985 3661 997 q 3685 958 3685 974 q 3676 935 3685 944 q 3656 922 3668 925 q 3726 885 3688 894 q 3801 883 3764 875 q 3892 917 3846 893 q 3961 976 3938 942 q 4017 1108 4006 1039 q 4013 1248 4028 1178 q 3961 1383 3999 1318 q 3871 1503 3924 1449 q 3753 1595 3818 1557 q 3619 1649 3689 1633 q 3378 1667 3492 1675 q 3158 1619 3264 1660 q 2951 1509 3053 1579 q 2749 1342 2850 1439 q 2599 1185 2671 1268 q 2456 1013 2526 1101 q 2314 831 2385 924 q 2171 646 2243 739 q 2043 483 2107 564 q 1915 322 1979 401 q 1784 169 1850 243 q 1650 28 1718 94 q 1478 -127 1564 -56 q 1300 -253 1392 -199 q 1019 -376 1174 -331 q 700 -424 864 -422 q 484 -401 589 -425 q 294 -325 379 -378 q 150 -188 208 -272 q 75 17 92 -104 q 70 37 71 24 q 69 69 69 50 l 69 972 q 72 1013 69 999 q 82 1033 74 1026 q 108 1040 90 1039 q 158 1042 126 1042 l 378 1042 q 428 1040 410 1042 q 454 1033 446 1039 q 465 1013 463 1026 q 467 972 467 999 l 467 686 l 472 686 l 751 1042 l 1414 1042 l 908 524 l 1414 0 l 751 0 l 472 356 l 467 356 l 467 69 q 465 29 467 43 q 454 9 463 15 q 428 1 446 3 q 378 0 410 0 l 158 0 q 109 1 126 0 q 82 7 92 1 q 149 -180 94 -100 q 288 -313 204 -260 q 478 -393 372 -367 q 700 -419 585 -419 q 1009 -373 853 -419 q 1297 -250 1165 -326 q 1474 -122 1388 -196 q 1643 33 1560 -47 q 1905 322 1781 165 q 2160 644 2029 478 q 2304 833 2233 739 q 2446 1016 2375 926 q 2590 1189 2517 1106 q 2742 1347 2663 1272 q 2943 1514 2843 1443 q 3149 1625 3043 1585 q 3372 1674 3256 1665 q 3621 1654 3488 1683 q 3765 1597 3697 1638 q 3884 1501 3832 1557 q 3972 1377 3936 1444 q 4019 1240 4007 1310 q 4020 1101 4032 1169 q 3965 975 4008 1032 q 3891 913 3936 935 q 3803 881 3846 890 q 3722 881 3763 872 q 3647 921 3682 889 l 3646 921 q 3619 932 3631 921 q 3608 958 3608 943 z "},"":{"ha":1026,"x_min":72,"x_max":4035,"o":"m 3611 1083 q 3622 1110 3611 1099 q 3649 1122 3633 1122 q 3676 1110 3664 1122 q 3688 1083 3688 1099 q 3679 1060 3688 1069 q 3658 1047 3671 1050 q 3728 1010 3690 1019 q 3804 1008 3767 1000 q 3894 1042 3849 1018 q 3964 1101 3940 1067 q 4019 1233 4008 1164 q 4016 1373 4031 1303 q 3964 1508 4001 1443 q 3874 1628 3926 1574 q 3756 1720 3821 1682 q 3622 1774 3692 1758 q 3381 1792 3494 1800 q 3161 1744 3267 1785 q 2954 1634 3056 1704 q 2751 1467 2853 1564 q 2601 1310 2674 1393 q 2458 1138 2529 1226 q 2317 956 2388 1049 q 2174 771 2246 864 q 2046 608 2110 689 q 1917 447 1982 526 q 1787 294 1853 368 q 1653 153 1721 219 q 1481 -2 1567 69 q 1303 -128 1394 -74 q 1022 -251 1176 -206 q 703 -299 867 -297 q 501 -280 600 -300 q 321 -215 403 -260 q 178 -98 239 -169 q 90 76 117 -26 q 76 145 79 104 q 72 246 72 186 l 72 972 q 74 1013 72 999 q 85 1033 76 1026 q 111 1040 93 1039 q 161 1042 129 1042 l 381 1042 q 431 1040 413 1042 q 457 1033 449 1039 q 467 1013 465 1026 q 469 972 469 999 l 469 557 q 471 458 469 493 q 479 408 472 424 q 501 389 486 392 q 544 386 517 386 l 989 386 l 989 0 l 489 0 q 329 1 396 0 q 217 7 263 1 q 143 24 171 13 q 100 58 115 36 q 183 -96 125 -29 q 322 -206 242 -162 q 501 -272 403 -250 q 703 -294 599 -294 q 1012 -248 856 -294 q 1300 -125 1168 -201 q 1476 3 1390 -71 q 1646 158 1563 78 q 1908 447 1783 290 q 2163 769 2032 603 q 2307 958 2236 864 q 2449 1141 2378 1051 q 2592 1314 2519 1231 q 2744 1472 2665 1397 q 2946 1639 2846 1568 q 3152 1750 3046 1710 q 3374 1799 3258 1790 q 3624 1779 3490 1808 q 3767 1722 3700 1763 q 3887 1626 3835 1682 q 3974 1502 3939 1569 q 4022 1365 4010 1435 q 4023 1226 4035 1294 q 3968 1100 4011 1158 q 3894 1038 3939 1060 q 3806 1006 3849 1015 q 3725 1006 3765 997 q 3650 1046 3685 1014 l 3649 1046 q 3622 1057 3633 1046 q 3611 1083 3611 1068 z "},"":{"ha":1650,"x_min":44,"x_max":4008,"o":"m 3585 958 q 3596 985 3585 974 q 3622 997 3607 997 q 3649 985 3638 997 q 3661 958 3661 974 q 3653 935 3661 944 q 3632 922 3644 925 q 3702 885 3664 894 q 3778 883 3740 875 q 3868 917 3822 893 q 3938 976 3914 942 q 3993 1108 3982 1039 q 3990 1248 4004 1178 q 3938 1383 3975 1318 q 3847 1503 3900 1449 q 3730 1595 3794 1557 q 3596 1649 3665 1633 q 3354 1667 3468 1675 q 3135 1619 3240 1660 q 2928 1509 3029 1579 q 2725 1342 2826 1439 q 2575 1185 2647 1268 q 2432 1013 2503 1101 q 2290 831 2361 924 q 2147 646 2219 739 q 2019 483 2083 564 q 1891 322 1956 401 q 1760 169 1826 243 q 1626 28 1694 94 q 1454 -127 1540 -56 q 1276 -253 1368 -199 q 995 -376 1150 -331 q 676 -424 840 -422 q 460 -401 565 -425 q 270 -326 356 -378 q 126 -190 185 -274 q 51 14 68 -106 q 45 34 46 21 q 44 69 44 47 l 44 972 q 47 1013 44 999 q 57 1033 49 1026 q 83 1040 65 1039 q 133 1042 101 1042 l 442 1042 l 821 706 l 1200 1042 l 1508 1042 q 1558 1040 1540 1042 q 1585 1033 1576 1039 q 1595 1013 1593 1026 q 1597 972 1597 999 l 1597 69 q 1595 29 1597 43 q 1585 9 1593 15 q 1558 1 1576 3 q 1508 0 1540 0 l 1289 0 q 1239 1 1257 0 q 1213 9 1221 3 q 1202 29 1204 15 q 1200 69 1200 43 l 1200 560 l 869 315 q 822 292 842 292 q 769 315 801 292 l 442 560 l 442 69 q 440 29 442 43 q 429 9 438 15 q 403 1 421 3 q 353 0 385 0 l 133 0 q 86 1 103 0 q 60 7 69 1 q 126 -180 72 -100 q 265 -313 181 -260 q 455 -393 349 -367 q 676 -419 561 -419 q 985 -373 829 -419 q 1274 -250 1142 -326 q 1450 -122 1364 -196 q 1619 33 1536 -47 q 1881 322 1757 165 q 2136 644 2006 478 q 2281 833 2210 739 q 2422 1016 2351 926 q 2566 1189 2493 1106 q 2718 1347 2639 1272 q 2919 1514 2819 1443 q 3126 1625 3019 1585 q 3348 1674 3232 1665 q 3597 1654 3464 1683 q 3741 1597 3674 1638 q 3860 1501 3808 1557 q 3948 1377 3913 1444 q 3996 1240 3983 1310 q 3997 1101 4008 1169 q 3942 975 3985 1032 q 3867 913 3913 935 q 3779 881 3822 890 q 3699 881 3739 872 q 3624 921 3658 889 l 3622 921 q 3596 932 3607 921 q 3585 958 3585 943 z "},"":{"ha":1397,"x_min":49,"x_max":4011,"o":"m 3588 960 q 3599 987 3588 975 q 3625 999 3610 999 q 3652 987 3640 999 q 3664 960 3664 975 q 3656 936 3664 946 q 3635 924 3647 926 q 3705 886 3667 896 q 3781 885 3743 876 q 3871 919 3825 894 q 3940 978 3917 943 q 3996 1110 3985 1040 q 3992 1249 4007 1179 q 3940 1385 3978 1319 q 3850 1504 3903 1450 q 3733 1597 3797 1558 q 3599 1650 3668 1635 q 3357 1669 3471 1676 q 3138 1621 3243 1661 q 2931 1510 3032 1581 q 2728 1343 2829 1440 q 2578 1186 2650 1269 q 2435 1014 2506 1103 q 2293 833 2364 925 q 2150 647 2222 740 q 2022 484 2086 565 q 1894 324 1958 403 q 1763 170 1829 244 q 1629 29 1697 96 q 1457 -126 1543 -54 q 1279 -251 1371 -197 q 998 -375 1153 -329 q 679 -422 843 -421 q 463 -400 568 -424 q 273 -324 358 -376 q 129 -188 188 -272 q 54 17 71 -104 q 49 37 50 24 q 49 69 49 50 l 49 972 q 51 1013 49 999 q 61 1033 53 1026 q 88 1040 69 1039 q 138 1042 106 1042 l 446 1042 l 964 567 l 964 972 q 966 1013 964 999 q 976 1033 968 1026 q 1003 1040 985 1039 q 1053 1042 1021 1042 l 1272 1042 q 1322 1040 1304 1042 q 1349 1033 1340 1039 q 1359 1013 1357 1026 q 1361 972 1361 999 l 1361 69 q 1359 29 1361 43 q 1349 9 1357 15 q 1322 1 1340 3 q 1272 0 1304 0 l 964 0 l 446 476 l 446 69 q 444 29 446 43 q 433 9 442 15 q 407 1 425 3 q 357 0 389 0 l 138 0 q 88 1 106 0 q 63 7 71 1 q 130 -180 75 -100 q 268 -312 185 -260 q 458 -392 351 -365 q 679 -418 564 -418 q 988 -372 832 -418 q 1276 -249 1144 -325 q 1453 -120 1367 -194 q 1622 35 1539 -46 q 1884 323 1760 167 q 2139 646 2008 479 q 2283 834 2213 740 q 2425 1017 2354 928 q 2569 1190 2496 1107 q 2721 1349 2642 1274 q 2922 1515 2822 1444 q 3128 1626 3022 1586 q 3351 1676 3235 1667 q 3600 1656 3467 1685 q 3744 1599 3676 1639 q 3863 1502 3811 1558 q 3951 1378 3915 1446 q 3999 1241 3986 1311 q 3999 1102 4011 1171 q 3944 976 3988 1033 q 3870 914 3915 936 q 3782 882 3825 892 q 3701 882 3742 874 q 3626 922 3661 890 l 3625 922 q 3599 933 3610 922 q 3588 960 3588 944 z "},"":{"ha":1442,"x_min":46,"x_max":4021,"o":"m 3597 1083 q 3608 1110 3597 1099 q 3635 1122 3619 1122 q 3662 1110 3650 1122 q 3674 1083 3674 1099 q 3665 1060 3674 1069 q 3644 1047 3657 1050 q 3715 1010 3676 1019 q 3790 1008 3753 1000 q 3881 1042 3835 1018 q 3950 1101 3926 1067 q 4006 1233 3994 1164 q 4002 1373 4017 1303 q 3950 1508 3988 1443 q 3860 1628 3913 1574 q 3742 1720 3807 1682 q 3608 1774 3678 1758 q 3367 1792 3481 1800 q 3147 1744 3253 1785 q 2940 1634 3042 1704 q 2738 1467 2839 1564 q 2588 1310 2660 1393 q 2444 1138 2515 1226 q 2303 956 2374 1049 q 2160 771 2232 864 q 2032 608 2096 689 q 1903 447 1968 526 q 1773 294 1839 368 q 1639 153 1707 219 q 1467 -2 1553 69 q 1289 -128 1381 -74 q 1008 -251 1163 -206 q 689 -299 853 -297 q 477 -277 581 -300 q 289 -204 374 -254 q 145 -73 204 -154 q 67 124 86 8 q 46 244 46 171 l 46 794 q 65 933 46 883 q 124 1007 85 983 q 225 1036 164 1031 q 369 1042 286 1042 l 1088 1042 q 1182 1040 1128 1042 q 1284 1016 1236 1038 q 1365 944 1332 994 q 1399 797 1399 894 l 1399 247 q 1379 108 1399 158 q 1319 35 1360 58 q 1217 6 1279 11 q 1072 0 1156 0 l 357 0 q 286 1 325 0 q 208 10 247 1 q 134 40 169 19 q 76 101 99 61 q 151 -72 94 3 q 290 -195 207 -146 q 475 -269 372 -244 q 689 -294 578 -294 q 998 -248 842 -294 q 1286 -125 1154 -201 q 1463 3 1376 -71 q 1632 158 1549 78 q 1894 447 1769 290 q 2149 769 2018 603 q 2293 958 2222 864 q 2435 1141 2364 1051 q 2578 1314 2506 1231 q 2731 1472 2651 1397 q 2932 1639 2832 1568 q 3138 1750 3032 1710 q 3360 1799 3244 1790 q 3610 1779 3476 1808 q 3753 1722 3686 1763 q 3873 1626 3821 1682 q 3960 1502 3925 1569 q 4008 1365 3996 1435 q 4009 1226 4021 1294 q 3954 1100 3997 1158 q 3880 1038 3925 1060 q 3792 1006 3835 1015 q 3711 1006 3751 997 q 3636 1046 3671 1014 l 3635 1046 q 3608 1057 3619 1046 q 3597 1083 3597 1068 m 443 357 q 445 299 443 321 q 453 266 447 278 q 473 251 460 254 q 510 247 486 247 l 938 247 q 969 250 957 247 q 987 262 981 253 q 996 287 993 271 q 999 329 999 303 l 999 685 q 998 742 999 719 q 992 775 997 764 q 974 790 988 786 q 936 794 961 794 l 511 794 q 478 792 492 794 q 458 783 465 790 q 447 758 450 775 q 443 713 443 742 l 443 357 z "},"":{"ha":1453,"x_min":57,"x_max":4018,"o":"m 3594 929 q 3606 956 3594 944 q 3632 968 3617 968 q 3659 956 3647 968 q 3671 929 3671 944 q 3663 906 3671 915 q 3642 893 3654 896 q 3712 856 3674 865 q 3788 854 3750 846 q 3878 888 3832 864 q 3947 947 3924 913 q 4003 1079 3992 1010 q 3999 1219 4014 1149 q 3947 1354 3985 1289 q 3857 1474 3910 1419 q 3740 1566 3804 1528 q 3606 1619 3675 1604 q 3364 1638 3478 1646 q 3144 1590 3250 1631 q 2938 1480 3039 1550 q 2735 1313 2836 1410 q 2585 1156 2657 1239 q 2442 983 2513 1072 q 2300 802 2371 894 q 2157 617 2229 710 q 2029 453 2093 535 q 1901 293 1965 372 q 1770 140 1836 214 q 1636 -1 1704 65 q 1464 -156 1550 -85 q 1286 -282 1378 -228 q 1005 -406 1160 -360 q 686 -453 850 -451 q 467 -430 574 -454 q 276 -351 361 -406 q 132 -211 190 -297 q 60 0 74 -125 l 57 0 l 57 797 q 90 944 57 894 q 172 1016 124 994 q 274 1040 219 1038 q 368 1042 328 1042 l 1086 1042 q 1231 1036 1169 1042 q 1331 1007 1292 1031 q 1390 933 1371 983 q 1410 794 1410 883 l 1410 474 q 1393 381 1411 421 q 1344 313 1375 340 q 1275 271 1314 285 q 1194 257 1236 257 l 457 257 l 457 0 l 67 0 q 128 -197 75 -112 q 266 -337 182 -281 q 459 -421 350 -393 q 686 -449 568 -449 q 995 -402 839 -449 q 1283 -279 1151 -356 q 1460 -151 1374 -225 q 1629 4 1546 -76 q 1891 292 1767 136 q 2146 615 2015 449 q 2290 803 2219 710 q 2432 987 2361 897 q 2576 1160 2503 1076 q 2728 1318 2649 1243 q 2929 1485 2829 1414 q 3135 1596 3029 1556 q 3358 1645 3242 1636 q 3607 1625 3474 1654 q 3751 1568 3683 1608 q 3870 1472 3818 1528 q 3958 1348 3922 1415 q 4006 1210 3993 1281 q 4006 1072 4018 1140 q 3951 946 3994 1003 q 3877 883 3922 906 q 3789 851 3832 861 q 3708 851 3749 843 q 3633 892 3668 860 l 3632 892 q 3606 903 3617 892 q 3594 929 3594 914 m 457 524 l 1013 524 l 1013 713 q 1010 758 1013 742 q 1000 783 1007 775 q 981 792 993 790 q 949 794 968 794 l 524 794 q 488 792 501 794 q 468 781 475 789 q 459 756 461 772 q 457 713 457 740 l 457 524 z "},"":{"ha":1417,"x_min":29,"x_max":4049,"o":"m 3625 986 q 3636 1013 3625 1001 q 3663 1025 3647 1025 q 3690 1013 3678 1025 q 3701 986 3701 1001 q 3693 963 3701 972 q 3672 950 3685 953 q 3742 913 3704 922 q 3818 911 3781 903 q 3908 945 3863 921 q 3978 1004 3954 969 q 4033 1136 4022 1067 q 4030 1276 4044 1206 q 3978 1411 4015 1346 q 3888 1531 3940 1476 q 3770 1623 3835 1585 q 3636 1676 3706 1661 q 3394 1695 3508 1703 q 3175 1647 3281 1688 q 2968 1537 3069 1607 q 2765 1369 2867 1467 q 2615 1213 2688 1296 q 2472 1040 2543 1129 q 2331 859 2401 951 q 2188 674 2260 767 q 2060 510 2124 592 q 1931 350 1996 429 q 1801 197 1867 271 q 1667 56 1735 122 q 1494 -99 1581 -28 q 1317 -225 1408 -171 q 1035 -349 1190 -303 q 717 -396 881 -394 q 497 -373 604 -397 q 304 -294 390 -349 q 160 -151 218 -239 q 89 63 103 -64 q 45 133 61 90 q 29 244 29 176 l 29 794 q 49 933 29 883 q 108 1007 68 983 q 208 1036 147 1031 q 353 1042 269 1042 l 1071 1042 q 1165 1040 1111 1042 q 1267 1016 1219 1038 q 1349 944 1315 994 q 1382 797 1382 894 l 1382 247 q 1347 108 1382 158 q 1254 35 1313 58 q 1119 6 1196 11 q 960 0 1043 0 l 957 0 l 1124 -117 l 960 -332 l 478 0 l 336 0 q 280 0 311 0 q 217 5 249 0 q 153 21 185 10 q 97 54 122 32 q 159 -142 106 -58 q 297 -281 213 -225 q 490 -364 382 -336 q 717 -392 599 -392 q 1026 -345 869 -392 q 1314 -222 1182 -299 q 1490 -94 1404 -168 q 1660 61 1576 -19 q 1922 349 1797 193 q 2176 672 2046 506 q 2321 860 2250 767 q 2463 1044 2392 954 q 2606 1217 2533 1133 q 2758 1375 2679 1300 q 2960 1542 2860 1471 q 3166 1653 3060 1613 q 3388 1702 3272 1693 q 3638 1682 3504 1711 q 3781 1625 3714 1665 q 3901 1528 3849 1585 q 3988 1405 3953 1472 q 4036 1267 4024 1338 q 4037 1129 4049 1197 q 3982 1003 4025 1061 q 3908 940 3953 963 q 3819 908 3863 918 q 3739 908 3779 900 q 3664 949 3699 917 l 3663 949 q 3636 960 3647 949 q 3625 986 3625 971 m 426 357 q 428 299 426 321 q 437 266 431 278 q 456 251 443 254 q 493 247 469 247 l 921 247 q 952 250 940 247 q 970 262 964 253 q 979 287 976 271 q 982 329 982 303 l 982 685 q 981 742 982 719 q 976 775 981 764 q 958 790 971 786 q 919 794 944 794 l 494 794 q 462 792 475 794 q 441 783 449 790 q 430 758 433 775 q 426 713 426 742 l 426 357 z "},"":{"ha":1446,"x_min":50,"x_max":4011,"o":"m 3588 922 q 3599 949 3588 938 q 3625 961 3610 961 q 3652 949 3640 961 q 3664 922 3664 938 q 3656 899 3664 908 q 3635 886 3647 889 q 3705 849 3667 858 q 3781 847 3743 839 q 3871 881 3825 857 q 3940 940 3917 906 q 3996 1072 3985 1003 q 3992 1212 4007 1142 q 3940 1347 3978 1282 q 3850 1467 3903 1413 q 3733 1559 3797 1521 q 3599 1613 3668 1597 q 3357 1631 3471 1639 q 3138 1583 3243 1624 q 2931 1473 3032 1543 q 2728 1306 2829 1403 q 2578 1149 2650 1232 q 2435 976 2506 1065 q 2293 795 2364 888 q 2150 610 2222 703 q 2022 447 2086 528 q 1894 286 1958 365 q 1763 133 1829 207 q 1629 -8 1697 58 q 1457 -163 1543 -92 q 1279 -289 1371 -235 q 998 -412 1153 -367 q 679 -460 843 -458 q 460 -437 567 -461 q 267 -357 353 -412 q 123 -214 181 -301 q 51 0 65 -126 l 50 0 l 50 797 q 83 944 50 894 q 165 1016 117 994 q 267 1040 213 1038 q 361 1042 321 1042 l 1079 1042 q 1224 1036 1163 1042 q 1324 1007 1285 1031 q 1383 933 1364 983 q 1403 794 1403 883 l 1403 474 q 1367 346 1404 396 q 1275 274 1329 296 l 1399 0 l 1014 0 l 915 257 l 450 257 l 450 0 l 60 0 q 119 -199 65 -114 q 257 -342 172 -285 q 451 -427 342 -399 q 679 -456 560 -456 q 988 -409 832 -456 q 1276 -286 1144 -362 q 1453 -158 1367 -232 q 1622 -3 1539 -83 q 1884 285 1760 129 q 2139 608 2008 442 q 2283 797 2213 703 q 2425 980 2354 890 q 2569 1153 2496 1069 q 2721 1311 2642 1236 q 2922 1478 2822 1407 q 3128 1589 3022 1549 q 3351 1638 3235 1629 q 3600 1618 3467 1647 q 3744 1561 3676 1601 q 3863 1465 3811 1521 q 3951 1341 3915 1408 q 3999 1203 3986 1274 q 3999 1065 4011 1133 q 3944 939 3988 996 q 3870 876 3915 899 q 3782 844 3825 854 q 3701 844 3742 836 q 3626 885 3661 853 l 3625 885 q 3599 896 3610 885 q 3588 922 3588 907 m 450 524 l 1006 524 l 1006 713 q 1003 758 1006 742 q 993 783 1000 775 q 974 792 986 790 q 942 794 961 794 l 517 794 q 481 792 494 794 q 461 781 468 789 q 452 756 454 772 q 450 713 450 740 l 450 524 z "},"":{"ha":1446,"x_min":50,"x_max":4019,"o":"m 3596 1114 q 3607 1141 3596 1129 q 3633 1153 3618 1153 q 3660 1141 3649 1153 q 3672 1114 3672 1129 q 3664 1090 3672 1100 q 3643 1078 3656 1081 q 3713 1040 3675 1050 q 3789 1039 3751 1031 q 3879 1073 3833 1049 q 3949 1132 3925 1097 q 4004 1264 3993 1194 q 4001 1403 4015 1333 q 3949 1539 3986 1474 q 3858 1658 3911 1604 q 3741 1751 3806 1713 q 3607 1804 3676 1789 q 3365 1823 3479 1831 q 3146 1775 3251 1815 q 2939 1665 3040 1735 q 2736 1497 2838 1594 q 2586 1340 2658 1424 q 2443 1168 2514 1257 q 2301 987 2372 1079 q 2158 801 2231 894 q 2031 638 2094 719 q 1902 478 1967 557 q 1772 324 1838 399 q 1638 183 1706 250 q 1465 28 1551 100 q 1288 -97 1379 -43 q 1006 -221 1161 -175 q 688 -268 851 -267 q 480 -248 581 -269 q 295 -178 379 -226 q 151 -53 211 -131 q 69 133 92 24 q 56 185 61 157 q 51 247 51 213 l 51 360 l 449 360 q 451 302 449 324 q 459 269 453 281 q 478 253 465 257 q 515 250 492 250 l 943 250 q 974 252 963 250 q 992 263 986 254 q 1001 287 999 271 q 1004 332 1004 303 l 1004 389 l 267 389 q 186 403 225 389 q 117 444 147 417 q 68 513 86 472 q 51 606 50 553 l 51 794 q 71 933 51 883 q 130 1007 90 983 q 231 1036 169 1031 q 375 1042 292 1042 l 1093 1042 q 1188 1040 1133 1042 q 1290 1016 1242 1038 q 1371 944 1338 994 q 1404 797 1404 894 l 1404 685 l 1007 685 q 1006 741 1007 719 q 999 774 1006 763 q 980 790 993 786 q 942 794 967 794 l 517 794 q 484 792 497 794 q 463 783 471 790 q 452 758 456 775 q 449 713 449 742 l 449 656 l 1189 656 q 1269 637 1231 656 q 1339 585 1308 618 q 1388 508 1369 553 q 1404 411 1406 464 l 1404 250 q 1385 111 1404 161 q 1325 38 1365 61 q 1223 8 1285 14 q 1078 3 1161 3 l 363 3 q 292 3 331 3 q 213 13 253 4 q 138 44 174 22 q 81 107 103 65 q 160 -56 103 14 q 298 -172 217 -125 q 479 -241 379 -218 q 688 -264 579 -264 q 997 -217 840 -264 q 1285 -94 1153 -171 q 1461 34 1375 -40 q 1631 189 1547 108 q 1892 477 1768 321 q 2147 800 2017 633 q 2292 988 2221 894 q 2433 1172 2363 1082 q 2577 1344 2504 1261 q 2729 1503 2650 1428 q 2931 1669 2831 1599 q 3137 1781 3031 1740 q 3359 1830 3243 1821 q 3608 1810 3475 1839 q 3752 1753 3685 1793 q 3872 1656 3819 1713 q 3959 1533 3924 1600 q 4007 1395 3994 1465 q 4008 1256 4019 1325 q 3953 1131 3996 1188 q 3878 1068 3924 1090 q 3790 1036 3833 1046 q 3710 1036 3750 1028 q 3635 1076 3669 1044 l 3633 1076 q 3607 1088 3618 1076 q 3596 1114 3596 1099 z "},"":{"ha":1288,"x_min":33,"x_max":4406,"o":"m 3982 972 q 3993 999 3982 988 q 4019 1011 4004 1011 q 4047 999 4035 1011 q 4058 972 4058 988 q 4050 949 4058 958 q 4029 936 4042 939 q 4099 899 4061 908 q 4175 897 4138 889 q 4265 931 4219 907 q 4335 990 4311 956 q 4390 1122 4379 1053 q 4387 1262 4401 1192 q 4335 1397 4372 1332 q 4244 1517 4297 1463 q 4127 1609 4192 1571 q 3993 1663 4063 1647 q 3751 1681 3865 1689 q 3532 1633 3638 1674 q 3325 1523 3426 1593 q 3122 1356 3224 1453 q 2972 1199 3044 1282 q 2829 1026 2900 1115 q 2688 845 2758 938 q 2544 660 2617 753 q 2417 497 2481 578 q 2288 336 2353 415 q 2158 183 2224 257 q 2024 42 2092 108 q 1851 -113 1938 -42 q 1674 -239 1765 -185 q 1392 -362 1547 -317 q 1074 -410 1238 -408 q 863 -389 965 -411 q 676 -317 760 -367 q 532 -187 592 -267 q 451 7 472 -107 q 439 28 440 14 q 438 69 438 42 l 438 794 l 435 794 q 396 792 410 794 q 376 779 382 790 q 368 746 369 768 q 367 685 367 724 l 33 685 l 33 794 q 53 933 33 883 q 112 1007 72 983 q 213 1036 151 1031 q 357 1042 274 1042 l 936 1042 q 1031 1040 976 1042 q 1133 1016 1085 1038 q 1214 944 1181 994 q 1247 797 1247 894 l 1247 685 l 899 685 q 898 740 899 718 q 891 774 897 761 q 872 790 885 786 q 835 794 860 794 l 835 69 q 833 29 835 43 q 822 9 831 15 q 796 1 814 3 q 746 0 778 0 l 526 0 q 485 1 501 0 q 458 4 469 1 q 529 -176 474 -99 q 668 -303 585 -253 q 856 -380 751 -354 q 1074 -406 961 -406 q 1383 -359 1226 -406 q 1671 -236 1539 -312 q 1847 -108 1761 -182 q 2017 47 1933 -33 q 2278 335 2154 179 q 2533 658 2403 492 q 2678 847 2607 753 q 2819 1030 2749 940 q 2963 1203 2890 1119 q 3115 1361 3036 1286 q 3317 1528 3217 1457 q 3523 1639 3417 1599 q 3745 1688 3629 1679 q 3994 1668 3861 1697 q 4138 1611 4071 1651 q 4258 1515 4206 1571 q 4345 1391 4310 1458 q 4393 1253 4381 1324 q 4394 1115 4406 1183 q 4339 989 4382 1046 q 4265 926 4310 949 q 4176 894 4219 904 q 4096 894 4136 886 q 4021 935 4056 903 l 4019 935 q 3993 946 4004 935 q 3982 972 3982 957 z "},"":{"ha":1292,"x_min":44,"x_max":4035,"o":"m 3611 1083 q 3622 1110 3611 1099 q 3649 1122 3633 1122 q 3676 1110 3664 1122 q 3688 1083 3688 1099 q 3679 1060 3688 1069 q 3658 1047 3671 1050 q 3728 1010 3690 1019 q 3804 1008 3767 1000 q 3894 1042 3849 1018 q 3964 1101 3940 1067 q 4019 1233 4008 1164 q 4016 1373 4031 1303 q 3964 1508 4001 1443 q 3874 1628 3926 1574 q 3756 1720 3821 1682 q 3622 1774 3692 1758 q 3381 1792 3494 1800 q 3161 1744 3267 1785 q 2954 1634 3056 1704 q 2751 1467 2853 1564 q 2601 1310 2674 1393 q 2458 1138 2529 1226 q 2317 956 2388 1049 q 2174 771 2246 864 q 2046 608 2110 689 q 1917 447 1982 526 q 1787 294 1853 368 q 1653 153 1721 219 q 1481 -2 1567 69 q 1303 -128 1394 -74 q 1022 -251 1176 -206 q 703 -299 867 -297 q 500 -279 599 -300 q 319 -212 401 -258 q 176 -94 236 -167 q 89 83 115 -21 q 56 150 68 111 q 44 247 44 189 l 44 972 q 47 1013 44 999 q 57 1033 49 1026 q 83 1040 65 1039 q 133 1042 101 1042 l 353 1042 q 403 1040 385 1042 q 429 1033 421 1039 q 440 1013 438 1026 q 442 972 442 999 l 442 360 q 444 302 442 324 q 452 269 446 281 q 472 253 458 257 q 508 250 485 250 l 797 250 q 848 265 836 250 q 861 332 860 279 l 861 972 q 863 1013 861 999 q 874 1033 865 1026 q 900 1040 882 1039 q 950 1042 918 1042 l 1169 1042 q 1219 1040 1201 1042 q 1246 1033 1238 1039 q 1256 1013 1254 1026 q 1258 972 1258 999 l 1258 250 q 1239 111 1258 161 q 1179 38 1219 61 q 1077 8 1139 14 q 932 3 1015 3 l 356 3 q 293 3 328 3 q 223 9 258 3 q 154 30 188 15 q 96 74 121 44 q 176 -87 118 -18 q 315 -203 233 -157 q 496 -272 396 -249 q 703 -294 596 -294 q 1012 -248 856 -294 q 1300 -125 1168 -201 q 1476 3 1390 -71 q 1646 158 1563 78 q 1908 447 1783 290 q 2163 769 2032 603 q 2307 958 2236 864 q 2449 1141 2378 1051 q 2592 1314 2519 1231 q 2744 1472 2665 1397 q 2946 1639 2846 1568 q 3152 1750 3046 1710 q 3374 1799 3258 1790 q 3624 1779 3490 1808 q 3767 1722 3700 1763 q 3887 1626 3835 1682 q 3974 1502 3939 1569 q 4022 1365 4010 1435 q 4023 1226 4035 1294 q 3968 1100 4011 1158 q 3894 1038 3939 1060 q 3806 1006 3849 1015 q 3725 1006 3765 997 q 3650 1046 3685 1014 l 3649 1046 q 3622 1057 3633 1046 q 3611 1083 3611 1068 z "},"":{"ha":1275,"x_min":24,"x_max":4229,"o":"m 3806 972 q 3817 999 3806 988 q 3843 1011 3828 1011 q 3870 999 3858 1011 q 3882 972 3882 988 q 3874 949 3882 958 q 3853 936 3865 939 q 3923 899 3885 908 q 3999 897 3961 889 q 4089 931 4043 907 q 4158 990 4135 956 q 4214 1122 4203 1053 q 4210 1262 4225 1192 q 4158 1397 4196 1332 q 4068 1517 4121 1463 q 3951 1609 4015 1571 q 3817 1663 3886 1647 q 3575 1681 3689 1689 q 3356 1633 3461 1674 q 3149 1523 3250 1593 q 2946 1356 3047 1453 q 2796 1199 2868 1282 q 2653 1026 2724 1115 q 2511 845 2582 938 q 2368 660 2440 753 q 2240 497 2304 578 q 2112 336 2176 415 q 1981 183 2047 257 q 1847 42 1915 108 q 1675 -113 1761 -42 q 1497 -239 1589 -185 q 1216 -362 1371 -317 q 897 -410 1061 -408 q 683 -388 788 -411 q 494 -313 579 -365 q 351 -179 410 -261 q 274 21 292 -97 q 266 41 269 29 q 258 69 263 53 l 33 972 q 25 1013 26 999 q 31 1033 24 1026 q 56 1040 38 1039 q 106 1042 74 1042 l 381 1042 q 431 1040 413 1042 q 459 1033 449 1039 q 474 1013 469 1026 q 486 972 479 999 l 640 406 l 796 972 q 807 1013 801 999 q 823 1033 813 1026 q 851 1040 833 1039 q 901 1042 869 1042 l 1176 1042 q 1226 1040 1208 1042 q 1251 1033 1244 1039 q 1256 1013 1258 1026 q 1249 972 1254 999 l 1024 69 q 1012 29 1017 43 q 997 9 1007 15 q 968 1 986 3 q 918 0 950 0 l 364 0 q 310 1 328 0 q 281 11 292 3 q 350 -172 294 -93 q 489 -302 406 -250 q 678 -380 572 -354 q 897 -406 783 -406 q 1206 -359 1050 -406 q 1494 -236 1363 -312 q 1671 -108 1585 -182 q 1840 47 1757 -33 q 2102 335 1978 179 q 2357 658 2226 492 q 2501 847 2431 753 q 2643 1030 2572 940 q 2787 1203 2714 1119 q 2939 1361 2860 1286 q 3140 1528 3040 1457 q 3347 1639 3240 1599 q 3569 1688 3453 1679 q 3818 1668 3685 1697 q 3962 1611 3894 1651 q 4081 1515 4029 1571 q 4169 1391 4133 1458 q 4217 1253 4204 1324 q 4217 1115 4229 1183 q 4163 989 4206 1046 q 4088 926 4133 949 q 4000 894 4043 904 q 3919 894 3960 886 q 3844 935 3879 903 l 3843 935 q 3817 946 3828 935 q 3806 972 3806 957 z "},"":{"ha":1658,"x_min":61,"x_max":4076,"o":"m 3653 972 q 3664 999 3653 988 q 3690 1011 3675 1011 q 3717 999 3706 1011 q 3729 972 3729 988 q 3721 949 3729 958 q 3700 936 3713 939 q 3770 899 3732 908 q 3846 897 3808 889 q 3936 931 3890 907 q 4006 990 3982 956 q 4061 1122 4050 1053 q 4058 1262 4072 1192 q 4006 1397 4043 1332 q 3915 1517 3968 1463 q 3798 1609 3863 1571 q 3664 1663 3733 1647 q 3422 1681 3536 1689 q 3203 1633 3308 1674 q 2996 1523 3097 1593 q 2793 1356 2894 1453 q 2643 1199 2715 1282 q 2500 1026 2571 1115 q 2358 845 2429 938 q 2215 660 2288 753 q 2088 497 2151 578 q 1959 336 2024 415 q 1828 183 1894 257 q 1694 42 1763 108 q 1522 -113 1608 -42 q 1344 -239 1436 -185 q 1063 -362 1218 -317 q 744 -410 908 -408 q 533 -389 636 -411 q 346 -317 431 -367 q 202 -187 261 -267 q 122 8 143 -107 q 113 29 115 15 q 110 71 111 43 l 63 971 q 63 1012 61 997 q 70 1033 64 1026 q 90 1040 76 1039 q 128 1042 103 1042 l 382 1042 q 421 1040 407 1042 q 442 1033 435 1039 q 450 1012 449 1026 q 453 971 451 997 l 478 507 l 710 874 l 708 875 l 961 875 l 961 874 l 1192 507 l 1217 971 q 1220 1012 1218 997 q 1229 1033 1222 1026 q 1250 1040 1236 1039 q 1289 1042 1264 1042 l 1542 1042 q 1581 1040 1567 1042 q 1601 1033 1594 1039 q 1608 1012 1607 1026 q 1607 971 1608 997 l 1560 71 q 1556 30 1558 44 q 1547 9 1554 15 q 1526 1 1540 3 q 1488 0 1513 0 l 1022 0 q 983 1 997 0 q 959 9 968 3 q 942 30 950 15 q 925 71 935 44 l 835 232 l 746 71 q 728 30 735 44 q 711 9 721 15 q 688 1 701 3 q 649 0 674 0 l 183 0 q 150 1 163 0 q 129 4 138 1 q 200 -176 144 -99 q 339 -303 256 -253 q 527 -380 422 -354 q 744 -406 632 -406 q 1053 -359 897 -406 q 1342 -236 1210 -312 q 1518 -108 1432 -182 q 1688 47 1604 -33 q 1949 335 1825 179 q 2204 658 2074 492 q 2349 847 2278 753 q 2490 1030 2419 940 q 2634 1203 2561 1119 q 2786 1361 2707 1286 q 2988 1528 2888 1457 q 3194 1639 3088 1599 q 3416 1688 3300 1679 q 3665 1668 3532 1697 q 3809 1611 3742 1651 q 3928 1515 3876 1571 q 4016 1391 3981 1458 q 4064 1253 4051 1324 q 4065 1115 4076 1183 q 4010 989 4053 1046 q 3935 926 3981 949 q 3847 894 3890 904 q 3767 894 3807 886 q 3692 935 3726 903 l 3690 935 q 3664 946 3675 935 q 3653 972 3653 957 z "},"":{"ha":1276,"x_min":35,"x_max":4015,"o":"m 3592 944 q 3603 972 3592 960 q 3629 983 3614 983 q 3656 972 3644 983 q 3668 944 3668 960 q 3660 921 3668 931 q 3639 908 3651 911 q 3709 871 3671 881 q 3785 869 3747 861 q 3875 903 3829 879 q 3944 963 3921 928 q 4000 1094 3989 1025 q 3997 1234 4011 1164 q 3944 1369 3982 1304 q 3854 1489 3907 1435 q 3737 1581 3801 1543 q 3603 1635 3672 1619 q 3361 1653 3475 1661 q 3142 1606 3247 1646 q 2935 1495 3036 1565 q 2732 1328 2833 1425 q 2582 1171 2654 1254 q 2439 999 2510 1088 q 2297 817 2368 910 q 2154 632 2226 725 q 2026 469 2090 550 q 1898 308 1963 388 q 1767 155 1833 229 q 1633 14 1701 81 q 1461 -141 1547 -69 q 1283 -267 1375 -212 q 1002 -390 1157 -344 q 683 -437 847 -436 q 467 -415 572 -439 q 277 -339 363 -392 q 133 -202 192 -286 q 58 3 75 -118 q 47 22 43 7 q 68 69 50 36 l 303 513 l 60 972 q 40 1013 46 999 q 40 1033 35 1026 q 63 1040 46 1039 q 113 1042 81 1042 l 332 1042 q 404 1040 364 1042 q 483 1033 444 1039 q 551 1013 521 1026 q 596 972 582 999 l 640 888 l 685 972 q 729 1013 699 999 q 798 1033 760 1026 q 876 1040 836 1039 q 949 1042 917 1042 l 1168 1042 q 1217 1040 1200 1042 q 1240 1033 1235 1039 q 1240 1013 1246 1026 q 1221 972 1235 999 l 978 513 l 1213 69 q 1232 29 1226 43 q 1232 9 1238 15 q 1209 1 1226 3 q 1160 0 1192 0 l 940 0 q 868 1 908 0 q 790 9 828 3 q 721 29 751 15 q 676 69 690 43 l 640 138 l 604 69 q 560 29 590 43 q 491 9 529 15 q 413 1 453 3 q 340 0 372 0 l 121 0 q 88 0 101 0 q 65 1 74 0 q 130 -189 75 -107 q 269 -325 185 -271 q 460 -406 353 -379 q 683 -433 567 -433 q 992 -387 836 -433 q 1281 -264 1149 -340 q 1457 -135 1371 -210 q 1626 19 1543 -61 q 1888 308 1764 151 q 2143 631 2013 464 q 2288 819 2217 725 q 2429 1002 2358 913 q 2573 1175 2500 1092 q 2725 1333 2646 1258 q 2926 1500 2826 1429 q 3133 1611 3026 1571 q 3355 1660 3239 1651 q 3604 1640 3471 1669 q 3748 1583 3681 1624 q 3867 1487 3815 1543 q 3955 1363 3919 1431 q 4003 1226 3990 1296 q 4003 1087 4015 1156 q 3949 961 3992 1018 q 3874 899 3919 921 q 3786 867 3829 876 q 3706 867 3746 858 q 3631 907 3665 875 l 3629 907 q 3603 918 3614 907 q 3592 944 3592 929 z "},"":{"ha":1435,"x_min":54,"x_max":4428,"o":"m 4004 936 q 4015 963 4004 951 q 4042 975 4026 975 q 4069 963 4057 975 q 4081 936 4081 951 q 4072 913 4081 922 q 4051 900 4064 903 q 4122 863 4083 872 q 4197 861 4160 853 q 4288 895 4242 871 q 4357 954 4333 919 q 4413 1086 4401 1017 q 4409 1226 4424 1156 q 4357 1361 4394 1296 q 4267 1481 4319 1426 q 4149 1573 4214 1535 q 4015 1626 4085 1611 q 3774 1645 3888 1653 q 3554 1597 3660 1638 q 3347 1487 3449 1557 q 3144 1319 3246 1417 q 2994 1163 3067 1246 q 2851 990 2922 1079 q 2710 809 2781 901 q 2567 624 2639 717 q 2439 460 2503 542 q 2310 300 2375 379 q 2180 147 2246 221 q 2046 6 2114 72 q 1874 -149 1960 -78 q 1696 -275 1788 -221 q 1415 -399 1569 -353 q 1096 -446 1260 -444 q 879 -424 985 -447 q 688 -347 774 -400 q 543 -208 601 -293 q 469 0 485 -122 l 464 0 l 464 294 q 394 297 436 294 q 308 306 353 299 q 217 330 263 314 q 135 373 172 346 q 76 441 99 400 q 54 539 54 482 l 54 972 q 56 1013 54 999 q 67 1033 58 1026 q 93 1040 75 1039 q 143 1042 111 1042 l 363 1042 q 413 1040 394 1042 q 439 1033 431 1039 q 449 1013 447 1026 q 451 972 451 999 l 451 651 q 453 594 451 615 q 462 560 456 572 q 481 545 468 549 q 518 542 494 542 l 946 542 q 997 556 985 542 q 1010 624 1008 571 l 1010 972 q 1012 1013 1010 999 q 1022 1033 1014 1026 q 1049 1040 1031 1039 q 1099 1042 1067 1042 l 1318 1042 q 1368 1040 1350 1042 q 1394 1033 1386 1039 q 1405 1013 1403 1026 q 1407 972 1407 999 l 1407 542 q 1368 410 1407 458 q 1269 335 1329 361 q 1134 302 1208 310 q 988 294 1060 294 l 988 0 l 476 0 q 540 -194 486 -111 q 678 -332 594 -276 q 871 -415 763 -387 q 1096 -442 979 -442 q 1405 -395 1249 -442 q 1693 -272 1561 -349 q 1869 -144 1783 -218 q 2039 11 1956 -69 q 2301 299 2176 143 q 2556 622 2425 456 q 2700 810 2629 717 q 2842 994 2771 904 q 2985 1167 2913 1083 q 3138 1325 3058 1250 q 3339 1492 3239 1421 q 3545 1603 3439 1563 q 3767 1652 3651 1643 q 4017 1632 3883 1661 q 4160 1575 4093 1615 q 4280 1478 4228 1535 q 4367 1355 4332 1422 q 4415 1217 4403 1288 q 4416 1078 4428 1147 q 4361 953 4404 1010 q 4287 890 4332 913 q 4199 858 4242 868 q 4118 858 4158 850 q 4043 899 4078 867 l 4042 899 q 4015 910 4026 899 q 4004 936 4004 921 z "},"":{"ha":1456,"x_min":64,"x_max":4035,"o":"m 3611 1083 q 3622 1110 3611 1099 q 3649 1122 3633 1122 q 3676 1110 3664 1122 q 3688 1083 3688 1099 q 3679 1060 3688 1069 q 3658 1047 3671 1050 q 3728 1010 3690 1019 q 3804 1008 3767 1000 q 3894 1042 3849 1018 q 3964 1101 3940 1067 q 4019 1233 4008 1164 q 4016 1373 4031 1303 q 3964 1508 4001 1443 q 3874 1628 3926 1574 q 3756 1720 3821 1682 q 3622 1774 3692 1758 q 3381 1792 3494 1800 q 3161 1744 3267 1785 q 2954 1634 3056 1704 q 2751 1467 2853 1564 q 2601 1310 2674 1393 q 2458 1138 2529 1226 q 2317 956 2388 1049 q 2174 771 2246 864 q 2046 608 2110 689 q 1917 447 1982 526 q 1787 294 1853 368 q 1653 153 1721 219 q 1481 -2 1567 69 q 1303 -128 1394 -74 q 1022 -251 1176 -206 q 703 -299 867 -297 q 493 -278 596 -300 q 306 -206 390 -256 q 163 -78 222 -157 q 82 114 103 1 q 64 250 64 163 l 64 411 l 1019 713 q 1016 758 1019 742 q 1005 783 1013 775 q 984 792 997 790 q 951 794 971 794 l 526 794 q 488 783 501 794 q 469 753 475 772 q 462 706 463 733 q 461 643 461 678 l 64 532 l 64 797 q 97 944 64 894 q 178 1016 131 994 q 281 1040 226 1038 q 375 1042 335 1042 l 1093 1042 q 1238 1036 1176 1042 q 1338 1007 1299 1031 q 1397 933 1378 983 q 1417 794 1417 883 l 1417 550 l 525 250 l 953 250 q 989 253 975 250 q 1009 269 1003 257 q 1017 302 1015 281 q 1019 360 1019 324 l 1417 471 l 1417 247 q 1383 100 1417 150 q 1302 28 1350 50 q 1200 5 1254 7 q 1106 3 1146 3 l 390 3 q 284 5 332 3 q 199 15 236 7 q 135 42 161 24 q 92 92 108 60 q 169 -78 113 -6 q 308 -198 225 -150 q 492 -270 390 -246 q 703 -294 593 -294 q 1012 -248 856 -294 q 1300 -125 1168 -201 q 1476 3 1390 -71 q 1646 158 1563 78 q 1908 447 1783 290 q 2163 769 2032 603 q 2307 958 2236 864 q 2449 1141 2378 1051 q 2592 1314 2519 1231 q 2744 1472 2665 1397 q 2946 1639 2846 1568 q 3152 1750 3046 1710 q 3374 1799 3258 1790 q 3624 1779 3490 1808 q 3767 1722 3700 1763 q 3887 1626 3835 1682 q 3974 1502 3939 1569 q 4022 1365 4010 1435 q 4023 1226 4035 1294 q 3968 1100 4011 1158 q 3894 1038 3939 1060 q 3806 1006 3849 1015 q 3725 1006 3765 997 q 3650 1046 3685 1014 l 3649 1046 q 3622 1057 3633 1046 q 3611 1083 3611 1068 z "},"":{"ha":1446,"x_min":-2551,"x_max":1408,"o":"m -2128 931 q -2139 904 -2128 915 q -2165 893 -2150 893 l -2167 893 q -2242 853 -2201 861 q -2322 853 -2282 844 q -2410 885 -2365 863 q -2485 947 -2456 907 q -2540 1073 -2528 1004 q -2539 1212 -2551 1142 q -2491 1349 -2526 1282 q -2403 1473 -2456 1417 q -2284 1569 -2351 1529 q -2140 1626 -2217 1610 q -1892 1647 -2007 1656 q -1670 1597 -1776 1638 q -1463 1486 -1564 1557 q -1261 1319 -1362 1415 q -1109 1161 -1182 1244 q -965 988 -1036 1078 q -824 805 -894 899 q -679 617 -753 711 q -424 294 -549 450 q -162 6 -300 138 q 7 -149 -79 -75 q 183 -278 93 -224 q 472 -401 315 -354 q 781 -447 628 -447 q 1007 -419 899 -447 q 1199 -335 1115 -392 q 1337 -196 1283 -279 q 1399 0 1390 -112 l 1011 0 l 1011 257 l 456 257 l 456 0 l 56 0 l 56 797 q 89 944 56 894 q 170 1016 122 994 q 272 1040 218 1038 q 367 1042 326 1042 l 1085 1042 q 1229 1036 1168 1042 q 1330 1007 1290 1031 q 1389 933 1369 983 q 1408 794 1408 883 l 1408 0 l 1407 0 q 1334 -210 1392 -124 q 1190 -351 1276 -297 q 998 -428 1104 -404 q 781 -451 892 -453 q 462 -404 617 -450 q 181 -281 307 -358 q 3 -155 89 -226 q -169 0 -83 -83 q -304 141 -239 67 q -434 294 -369 215 q -562 455 -499 374 q -690 618 -626 536 q -834 803 -764 711 q -975 985 -904 896 q -1119 1157 -1046 1074 q -1268 1314 -1192 1240 q -1472 1481 -1371 1411 q -1678 1592 -1572 1551 q -1897 1640 -1783 1632 q -2139 1621 -2011 1647 q -2273 1567 -2208 1606 q -2390 1475 -2337 1529 q -2481 1356 -2443 1421 q -2533 1220 -2518 1290 q -2536 1081 -2547 1150 q -2481 949 -2525 1011 q -2411 890 -2457 914 q -2321 856 -2365 865 q -2245 857 -2283 847 q -2175 894 -2207 867 q -2196 907 -2187 897 q -2204 931 -2204 917 q -2192 958 -2204 946 q -2165 969 -2181 969 q -2139 958 -2150 969 q -2128 931 -2128 946 m 456 524 l 1011 524 l 1011 713 q 1008 758 1011 742 q 999 783 1006 775 q 979 792 992 790 q 947 794 967 794 l 522 794 q 487 792 500 794 q 467 781 474 789 q 458 756 460 772 q 456 713 456 740 l 456 524 z "},"":{"ha":1514,"x_min":-3897,"x_max":1489,"o":"m -3474 975 q -3485 949 -3474 960 q -3511 938 -3496 938 l -3512 938 q -3587 897 -3547 906 q -3668 897 -3628 889 q -3756 929 -3711 907 q -3831 992 -3801 951 q -3885 1117 -3874 1049 q -3885 1256 -3897 1186 q -3837 1394 -3872 1326 q -3749 1517 -3801 1461 q -3630 1614 -3697 1574 q -3486 1671 -3562 1654 q -3237 1691 -3353 1700 q -3016 1642 -3122 1682 q -2809 1531 -2910 1601 q -2607 1364 -2708 1460 q -2455 1206 -2528 1289 q -2311 1033 -2382 1122 q -2169 849 -2240 943 q -2025 661 -2099 756 q -1770 338 -1894 494 q -1508 50 -1646 182 q -1339 -105 -1425 -31 q -1162 -233 -1253 -179 q -874 -356 -1031 -310 q -565 -403 -718 -403 q -342 -376 -449 -403 q -151 -294 -235 -349 q -12 -158 -67 -240 q 53 32 42 -76 q 51 48 51 39 q 51 69 51 57 l 51 972 q 53 1013 51 999 q 64 1033 56 1026 q 90 1040 72 1039 q 140 1042 108 1042 l 1039 1042 q 1183 1036 1122 1042 q 1284 1007 1244 1031 q 1343 933 1324 983 q 1363 794 1363 883 l 1363 724 q 1345 630 1364 671 q 1296 561 1326 589 q 1369 541 1333 557 q 1431 498 1404 525 q 1473 433 1457 471 q 1488 346 1489 394 l 1488 247 q 1468 108 1488 158 q 1409 35 1449 58 q 1308 6 1369 11 q 1164 0 1247 0 l 140 0 q 82 2 100 0 q 57 15 64 4 q -22 -181 38 -100 q -165 -312 -81 -262 q -353 -385 -250 -362 q -565 -407 -457 -408 q -884 -360 -729 -406 q -1165 -236 -1039 -314 q -1343 -110 -1257 -182 q -1515 44 -1429 -39 q -1650 185 -1585 111 q -1780 339 -1715 260 q -1908 499 -1844 418 q -2036 663 -1972 581 q -2180 848 -2110 756 q -2321 1029 -2250 940 q -2465 1201 -2392 1118 q -2614 1358 -2537 1285 q -2817 1526 -2717 1456 q -3024 1636 -2918 1596 q -3243 1684 -3129 1676 q -3485 1665 -3357 1692 q -3619 1612 -3554 1650 q -3736 1519 -3683 1574 q -3826 1400 -3789 1465 q -3878 1265 -3864 1335 q -3882 1125 -3893 1194 q -3826 993 -3871 1056 q -3757 934 -3803 958 q -3667 900 -3711 910 q -3591 901 -3629 892 q -3521 939 -3553 911 q -3542 951 -3533 942 q -3550 975 -3550 961 q -3538 1002 -3550 990 q -3511 1014 -3526 1014 q -3485 1002 -3496 1014 q -3474 975 -3474 990 m 451 676 l 1007 676 l 1007 726 q 1004 770 1007 756 q 994 790 1001 785 q 975 794 988 794 q 943 794 963 794 l 518 794 q 485 794 497 794 q 465 790 472 794 q 454 776 457 786 q 451 746 451 765 l 451 676 m 451 333 q 453 292 451 306 q 463 272 456 278 q 483 265 469 265 q 518 265 496 265 l 943 265 q 975 265 963 265 q 994 270 988 265 q 1004 290 1001 275 q 1007 333 1007 304 l 1007 383 l 451 383 l 451 333 z "},"":{"ha":1447,"x_min":-2558,"x_max":1408,"o":"m -2135 1111 q -2146 1085 -2135 1096 q -2172 1074 -2157 1074 l -2174 1074 q -2249 1033 -2208 1042 q -2329 1033 -2289 1025 q -2417 1065 -2372 1043 q -2492 1128 -2462 1088 q -2547 1253 -2535 1185 q -2546 1392 -2558 1322 q -2498 1530 -2533 1463 q -2410 1653 -2462 1597 q -2291 1750 -2358 1710 q -2147 1807 -2224 1790 q -1899 1827 -2014 1836 q -1677 1778 -1783 1818 q -1470 1667 -1571 1738 q -1268 1500 -1369 1596 q -1116 1342 -1189 1425 q -972 1169 -1043 1258 q -831 985 -901 1079 q -686 797 -760 892 q -431 474 -556 631 q -169 186 -307 318 q 0 31 -86 106 q 176 -97 86 -43 q 465 -220 308 -174 q 774 -267 621 -267 q 982 -243 882 -267 q 1164 -173 1082 -219 q 1303 -56 1246 -126 q 1382 110 1360 15 q 1324 42 1360 65 q 1249 10 1289 19 q 1168 1 1208 1 q 1097 0 1128 0 l 379 0 q 235 6 296 0 q 134 35 174 11 q 75 108 94 58 q 56 247 56 158 l 56 794 q 75 933 56 883 q 134 1007 94 983 q 235 1036 174 1031 q 379 1042 296 1042 l 1097 1042 q 1192 1040 1138 1042 q 1294 1016 1246 1038 q 1375 944 1342 994 q 1408 797 1408 894 l 1408 685 l 1011 685 q 1001 765 1011 736 q 946 794 990 794 l 521 794 q 488 792 501 794 q 467 783 475 790 q 456 758 460 775 q 453 713 453 742 l 453 329 q 456 283 453 300 q 467 259 460 267 q 488 249 475 251 q 521 247 501 247 l 946 247 q 1001 276 990 247 q 1011 357 1011 306 l 1408 357 l 1408 244 q 1393 139 1408 185 q 1313 -52 1372 26 q 1169 -179 1253 -131 q 983 -250 1085 -228 q 774 -271 881 -272 q 455 -224 610 -269 q 174 -100 300 -178 q -4 26 82 -46 q -176 181 -90 97 q -311 322 -246 247 q -441 475 -376 396 q -569 635 -506 554 q -697 799 -633 717 q -841 984 -771 892 q -982 1165 -911 1076 q -1126 1338 -1053 1254 q -1275 1494 -1199 1421 q -1478 1662 -1378 1592 q -1685 1772 -1579 1732 q -1904 1820 -1790 1813 q -2146 1801 -2018 1828 q -2280 1748 -2215 1786 q -2397 1656 -2344 1710 q -2487 1536 -2450 1601 q -2540 1401 -2525 1471 q -2543 1261 -2554 1331 q -2487 1129 -2532 1192 q -2418 1070 -2464 1094 q -2328 1036 -2372 1046 q -2252 1038 -2290 1028 q -2182 1075 -2214 1047 q -2203 1088 -2194 1078 q -2211 1111 -2211 1097 q -2199 1138 -2211 1126 q -2172 1150 -2187 1150 q -2146 1138 -2157 1150 q -2135 1111 -2135 1126 z "},"":{"ha":1438,"x_min":-3897,"x_max":1399,"o":"m -3474 972 q -3485 946 -3474 957 q -3511 935 -3496 935 l -3512 935 q -3587 894 -3547 903 q -3668 894 -3628 886 q -3756 926 -3711 904 q -3831 989 -3801 949 q -3885 1115 -3874 1046 q -3885 1253 -3897 1183 q -3837 1391 -3872 1324 q -3749 1515 -3801 1458 q -3630 1611 -3697 1571 q -3486 1668 -3562 1651 q -3237 1688 -3353 1697 q -3016 1639 -3122 1679 q -2809 1528 -2910 1599 q -2607 1361 -2708 1457 q -2455 1203 -2528 1286 q -2311 1030 -2382 1119 q -2169 847 -2240 940 q -2025 658 -2099 753 q -1770 335 -1894 492 q -1508 47 -1646 179 q -1339 -108 -1425 -33 q -1162 -236 -1253 -182 q -874 -359 -1031 -312 q -565 -406 -718 -406 q -346 -379 -451 -406 q -157 -301 -240 -353 q -19 -170 -74 -249 q 50 13 36 -92 q 44 33 44 19 q 43 69 43 46 l 43 972 q 45 1013 43 999 q 56 1033 47 1026 q 82 1040 64 1039 q 132 1042 100 1042 l 1088 1042 q 1182 1035 1128 1042 q 1284 1002 1236 1029 q 1365 921 1332 975 q 1399 769 1399 867 l 1399 272 q 1365 121 1399 175 q 1284 40 1332 67 q 1182 6 1236 13 q 1088 0 1128 0 l 132 0 q 83 1 100 0 q 56 8 65 1 q -24 -187 35 -107 q -167 -317 -83 -267 q -354 -389 -251 -367 q -565 -410 -457 -411 q -884 -362 -729 -408 q -1165 -239 -1039 -317 q -1343 -113 -1257 -185 q -1515 42 -1429 -42 q -1650 183 -1585 108 q -1780 336 -1715 257 q -1908 497 -1844 415 q -2036 660 -1972 578 q -2180 845 -2110 753 q -2321 1026 -2250 938 q -2465 1199 -2392 1115 q -2614 1356 -2537 1282 q -2817 1523 -2717 1453 q -3024 1633 -2918 1593 q -3243 1681 -3129 1674 q -3485 1663 -3357 1689 q -3619 1609 -3554 1647 q -3736 1517 -3683 1571 q -3826 1397 -3789 1463 q -3878 1262 -3864 1332 q -3882 1122 -3893 1192 q -3826 990 -3871 1053 q -3757 931 -3803 956 q -3667 897 -3711 907 q -3591 899 -3629 889 q -3521 936 -3553 908 q -3542 949 -3533 939 q -3550 972 -3550 958 q -3538 999 -3550 988 q -3511 1011 -3526 1011 q -3485 999 -3496 1011 q -3474 972 -3474 988 m 1001 656 q 999 706 1001 681 q 991 751 997 731 q 972 783 985 771 q 936 794 958 794 l 511 794 q 478 792 492 794 q 458 783 465 790 q 447 758 450 775 q 443 713 443 742 l 443 329 q 447 283 443 300 q 458 259 450 267 q 478 249 465 251 q 511 247 492 247 l 936 247 q 991 283 981 247 q 1001 371 1001 319 l 1001 656 z "}}}
